<svg class="main-svg" xmlns="http://www.w3.org/2000/svg" xmlns:xlink="http://www.w3.org/1999/xlink" width="1440" height="1440" style="" viewBox="0 0 1440 1440"><rect x="0" y="0" width="1440" height="1440" style="fill: rgb(255, 255, 255); fill-opacity: 1;"/><defs id="defs-b34730"><g class="clips"><clipPath id="clipb34730xyplot" class="plotclip"><rect width="1188" height="1260"/></clipPath><clipPath class="axesclip" id="clipb34730x"><rect x="80" y="0" width="1188" height="1440"/></clipPath><clipPath class="axesclip" id="clipb34730y"><rect x="0" y="100" width="1440" height="1260"/></clipPath><clipPath class="axesclip" id="clipb34730xy"><rect x="80" y="100" width="1188" height="1260"/></clipPath></g><g class="gradients"/><g class="patterns"/></defs><g class="bglayer"><rect class="bg" x="80" y="100" width="1188" height="1260" style="fill: rgb(229, 236, 246); fill-opacity: 1; stroke-width: 0;"/></g><g class="layer-below"><g class="imagelayer"/><g class="shapelayer"/></g><g class="cartesianlayer"><g class="subplot xy"><g class="layer-subplot"><g class="shapelayer"/><g class="imagelayer"/></g><g class="gridlayer"><g class="x"/><g class="y"><path class="ygrid crisp" transform="translate(0,1034.22)" d="M80,0h1188" style="stroke: rgb(255, 255, 255); stroke-opacity: 1; stroke-width: 1px;"/><path class="ygrid crisp" transform="translate(0,954.16)" d="M80,0h1188" style="stroke: rgb(255, 255, 255); stroke-opacity: 1; stroke-width: 1px;"/><path class="ygrid crisp" transform="translate(0,874.1)" d="M80,0h1188" style="stroke: rgb(255, 255, 255); stroke-opacity: 1; stroke-width: 1px;"/><path class="ygrid crisp" transform="translate(0,794.05)" d="M80,0h1188" style="stroke: rgb(255, 255, 255); stroke-opacity: 1; stroke-width: 1px;"/><path class="ygrid crisp" transform="translate(0,713.99)" d="M80,0h1188" style="stroke: rgb(255, 255, 255); stroke-opacity: 1; stroke-width: 1px;"/><path class="ygrid crisp" transform="translate(0,633.93)" d="M80,0h1188" style="stroke: rgb(255, 255, 255); stroke-opacity: 1; stroke-width: 1px;"/><path class="ygrid crisp" transform="translate(0,553.87)" d="M80,0h1188" style="stroke: rgb(255, 255, 255); stroke-opacity: 1; stroke-width: 1px;"/><path class="ygrid crisp" transform="translate(0,473.81)" d="M80,0h1188" style="stroke: rgb(255, 255, 255); stroke-opacity: 1; stroke-width: 1px;"/><path class="ygrid crisp" transform="translate(0,393.76)" d="M80,0h1188" style="stroke: rgb(255, 255, 255); stroke-opacity: 1; stroke-width: 1px;"/><path class="ygrid crisp" transform="translate(0,377.75)" d="M80,0h1188" style="stroke: rgb(255, 255, 255); stroke-opacity: 1; stroke-width: 1px;"/><path class="ygrid crisp" transform="translate(0,361.73)" d="M80,0h1188" style="stroke: rgb(255, 255, 255); stroke-opacity: 1; stroke-width: 1px;"/><path class="ygrid crisp" transform="translate(0,345.72)" d="M80,0h1188" style="stroke: rgb(255, 255, 255); stroke-opacity: 1; stroke-width: 1px;"/><path class="ygrid crisp" transform="translate(0,329.71000000000004)" d="M80,0h1188" style="stroke: rgb(255, 255, 255); stroke-opacity: 1; stroke-width: 1px;"/><path class="ygrid crisp" transform="translate(0,313.7)" d="M80,0h1188" style="stroke: rgb(255, 255, 255); stroke-opacity: 1; stroke-width: 1px;"/></g></g><g class="zerolinelayer"/><path class="xlines-below"/><path class="ylines-below"/><g class="overlines-below"/><g class="xaxislayer-below"/><g class="yaxislayer-below"/><g class="overaxes-below"/><g class="plot" transform="translate(80,100)" clip-path="url(#clipb34730xyplot)"><g class="violinlayer mlayer"><g class="trace violins" style="opacity: 0.8;"><path class="violin" d="M177.28,1168.99Q180.02,1152.06 182.06,1143.68C184.12,1135.19 186.62,1126.73 189.61,1118.37C192.66,1109.85 196.3,1101.42 200.22,1093.06C204.22,1084.54 208.84,1076.14 213.42,1067.75C218.05,1059.27 223.16,1050.9 227.85,1042.44C232.51,1034.03 237.39,1025.66 241.49,1017.13C245.49,1008.79 249.37,1000.37 252.21,991.82C254.97,983.49 257.2,975.01 258.41,966.51C259.6,958.13 259.9,949.62 259.47,941.2C259.04,932.74 257.6,924.27 255.81,915.89C253.99,907.39 251.32,898.97 248.6,890.58C245.84,882.09 242.52,873.69 239.35,865.27C236.16,856.82 232.71,848.41 229.52,839.96C226.34,831.54 223.12,823.12 220.24,814.65C217.39,806.25 214.67,797.81 212.31,789.34C209.97,780.94 207.88,772.5 206.11,764.03C204.35,755.62 202.91,747.18 201.72,738.72C200.53,730.3 199.66,721.85 198.95,713.41C198.24,704.98 197.81,696.55 197.46,688.11C197.11,679.68 196.98,671.24 196.85,662.8C196.72,654.36 196.74,645.93 196.7,637.49C196.66,629.05 196.69,620.62 196.6,612.18C196.51,603.74 196.42,595.31 196.18,586.87C195.94,578.43 195.61,569.99 195.15,561.56C194.69,553.12 194.09,544.68 193.41,536.25C192.72,527.81 191.89,519.37 191.04,510.94C190.18,502.5 189.22,494.07 188.28,485.63C187.34,477.19 186.34,468.76 185.4,460.32C184.46,451.88 183.51,443.45 182.62,435.01C181.73,426.58 180.87,418.14 180.07,409.7C179.27,401.27 178.52,392.83 177.84,384.39C177.16,375.96 176.54,367.52 176,359.08C175.46,350.65 174.99,342.21 174.58,333.77C174.18,325.33 173.85,316.9 173.57,308.46Q173.3,300.02 172.93,283.15L171.52,283.15Q171.15,300.02 170.88,308.46C170.61,316.9 170.28,325.34 169.88,333.77C169.48,342.21 169,350.65 168.46,359.08C167.91,367.52 167.29,375.96 166.61,384.39C165.93,392.83 165.18,401.27 164.38,409.7C163.58,418.14 162.72,426.58 161.83,435.01C160.94,443.45 159.99,451.88 159.05,460.32C158.11,468.76 157.12,477.19 156.18,485.63C155.24,494.07 154.28,502.5 153.42,510.94C152.57,519.37 151.74,527.81 151.05,536.25C150.36,544.68 149.76,553.12 149.3,561.56C148.84,569.99 148.51,578.43 148.27,586.87C148.03,595.31 147.94,603.74 147.85,612.18C147.76,620.62 147.79,629.05 147.75,637.49C147.71,645.93 147.73,654.36 147.6,662.8C147.47,671.24 147.34,679.68 146.99,688.11C146.64,696.55 146.21,704.98 145.5,713.41C144.79,721.85 143.92,730.3 142.73,738.72C141.54,747.18 140.1,755.62 138.34,764.03C136.57,772.5 134.48,780.94 132.14,789.34C129.78,797.81 127.06,806.25 124.21,814.65C121.33,823.12 118.12,831.54 114.94,839.96C111.75,848.41 108.29,856.82 105.1,865.27C101.92,873.69 98.61,882.09 95.85,890.58C93.13,898.97 90.46,907.39 88.64,915.89C86.85,924.27 85.41,932.74 84.98,941.2C84.55,949.62 84.85,958.13 86.04,966.51C87.25,975.01 89.49,983.49 92.25,991.82C95.09,1000.37 98.96,1008.79 102.96,1017.13C107.06,1025.66 111.95,1034.03 116.61,1042.44C121.3,1050.9 126.41,1059.27 131.04,1067.75C135.62,1076.14 140.24,1084.54 144.24,1093.06C148.16,1101.42 151.8,1109.85 154.85,1118.37C157.84,1126.73 160.34,1135.19 162.4,1143.68Q164.44,1152.06 167.18,1168.99Z" style="vector-effect: non-scaling-stroke; stroke-width: 1.5px; stroke: rgb(0, 0, 0); stroke-opacity: 1; fill: rgb(0, 0, 0); fill-opacity: 0.5;"/><path class="box" d="M166.91,914.21H177.54M166.91,990.26H177.54V766.1H166.91ZM172.23,990.26V1014.28M172.23,766.1V437.86" style="vector-effect: non-scaling-stroke; stroke-width: 1.5px; stroke: rgb(0, 0, 0); stroke-opacity: 1; fill: rgb(255, 255, 255); fill-opacity: 1;"/><path class="mean" d="M166.91,851.26H177.54" style="fill: none; vector-effect: non-scaling-stroke; stroke-width: 1.5px; stroke-dasharray: 3px, 1.5px; stroke: rgb(0, 0, 0); stroke-opacity: 1;"/><g class="points"><path class="point" transform="translate(68.72,1014.28)" d="M1.25,0A1.25,1.25 0 1,1 0,-1.25A1.25,1.25 0 0,1 1.25,0Z" style="opacity: 0.85; stroke-width: 0px; fill: rgb(0, 0, 0); fill-opacity: 1;"/><path class="point" transform="translate(62.58,1014.28)" d="M1.25,0A1.25,1.25 0 1,1 0,-1.25A1.25,1.25 0 0,1 1.25,0Z" style="opacity: 0.85; stroke-width: 0px; fill: rgb(0, 0, 0); fill-opacity: 1;"/><path class="point" transform="translate(70.08,1014.28)" d="M1.25,0A1.25,1.25 0 1,1 0,-1.25A1.25,1.25 0 0,1 1.25,0Z" style="opacity: 0.85; stroke-width: 0px; fill: rgb(0, 0, 0); fill-opacity: 1;"/><path class="point" transform="translate(61.47,1014.28)" d="M1.25,0A1.25,1.25 0 1,1 0,-1.25A1.25,1.25 0 0,1 1.25,0Z" style="opacity: 0.85; stroke-width: 0px; fill: rgb(0, 0, 0); fill-opacity: 1;"/><path class="point" transform="translate(64.65,1014.28)" d="M1.25,0A1.25,1.25 0 1,1 0,-1.25A1.25,1.25 0 0,1 1.25,0Z" style="opacity: 0.85; stroke-width: 0px; fill: rgb(0, 0, 0); fill-opacity: 1;"/><path class="point" transform="translate(68.75,1006.27)" d="M1.25,0A1.25,1.25 0 1,1 0,-1.25A1.25,1.25 0 0,1 1.25,0Z" style="opacity: 0.85; stroke-width: 0px; fill: rgb(0, 0, 0); fill-opacity: 1;"/><path class="point" transform="translate(65.77,1006.27)" d="M1.25,0A1.25,1.25 0 1,1 0,-1.25A1.25,1.25 0 0,1 1.25,0Z" style="opacity: 0.85; stroke-width: 0px; fill: rgb(0, 0, 0); fill-opacity: 1;"/><path class="point" transform="translate(67.5,1006.27)" d="M1.25,0A1.25,1.25 0 1,1 0,-1.25A1.25,1.25 0 0,1 1.25,0Z" style="opacity: 0.85; stroke-width: 0px; fill: rgb(0, 0, 0); fill-opacity: 1;"/><path class="point" transform="translate(64.27,1006.27)" d="M1.25,0A1.25,1.25 0 1,1 0,-1.25A1.25,1.25 0 0,1 1.25,0Z" style="opacity: 0.85; stroke-width: 0px; fill: rgb(0, 0, 0); fill-opacity: 1;"/><path class="point" transform="translate(62.2,1006.27)" d="M1.25,0A1.25,1.25 0 1,1 0,-1.25A1.25,1.25 0 0,1 1.25,0Z" style="opacity: 0.85; stroke-width: 0px; fill: rgb(0, 0, 0); fill-opacity: 1;"/><path class="point" transform="translate(67.15,998.27)" d="M1.25,0A1.25,1.25 0 1,1 0,-1.25A1.25,1.25 0 0,1 1.25,0Z" style="opacity: 0.85; stroke-width: 0px; fill: rgb(0, 0, 0); fill-opacity: 1;"/><path class="point" transform="translate(64.65,998.27)" d="M1.25,0A1.25,1.25 0 1,1 0,-1.25A1.25,1.25 0 0,1 1.25,0Z" style="opacity: 0.85; stroke-width: 0px; fill: rgb(0, 0, 0); fill-opacity: 1;"/><path class="point" transform="translate(68.48,998.27)" d="M1.25,0A1.25,1.25 0 1,1 0,-1.25A1.25,1.25 0 0,1 1.25,0Z" style="opacity: 0.85; stroke-width: 0px; fill: rgb(0, 0, 0); fill-opacity: 1;"/><path class="point" transform="translate(62.69,998.27)" d="M1.25,0A1.25,1.25 0 1,1 0,-1.25A1.25,1.25 0 0,1 1.25,0Z" style="opacity: 0.85; stroke-width: 0px; fill: rgb(0, 0, 0); fill-opacity: 1;"/><path class="point" transform="translate(64.14,990.26)" d="M1.25,0A1.25,1.25 0 1,1 0,-1.25A1.25,1.25 0 0,1 1.25,0Z" style="opacity: 0.85; stroke-width: 0px; fill: rgb(0, 0, 0); fill-opacity: 1;"/><path class="point" transform="translate(68.94,974.25)" d="M1.25,0A1.25,1.25 0 1,1 0,-1.25A1.25,1.25 0 0,1 1.25,0Z" style="opacity: 0.85; stroke-width: 0px; fill: rgb(0, 0, 0); fill-opacity: 1;"/><path class="point" transform="translate(65.12,966.24)" d="M1.25,0A1.25,1.25 0 1,1 0,-1.25A1.25,1.25 0 0,1 1.25,0Z" style="opacity: 0.85; stroke-width: 0px; fill: rgb(0, 0, 0); fill-opacity: 1;"/><path class="point" transform="translate(63.27,966.24)" d="M1.25,0A1.25,1.25 0 1,1 0,-1.25A1.25,1.25 0 0,1 1.25,0Z" style="opacity: 0.85; stroke-width: 0px; fill: rgb(0, 0, 0); fill-opacity: 1;"/><path class="point" transform="translate(64.92,950.23)" d="M1.25,0A1.25,1.25 0 1,1 0,-1.25A1.25,1.25 0 0,1 1.25,0Z" style="opacity: 0.85; stroke-width: 0px; fill: rgb(0, 0, 0); fill-opacity: 1;"/><path class="point" transform="translate(65.9,942.23)" d="M1.25,0A1.25,1.25 0 1,1 0,-1.25A1.25,1.25 0 0,1 1.25,0Z" style="opacity: 0.85; stroke-width: 0px; fill: rgb(0, 0, 0); fill-opacity: 1;"/><path class="point" transform="translate(67.6,942.23)" d="M1.25,0A1.25,1.25 0 1,1 0,-1.25A1.25,1.25 0 0,1 1.25,0Z" style="opacity: 0.85; stroke-width: 0px; fill: rgb(0, 0, 0); fill-opacity: 1;"/><path class="point" transform="translate(66.4,942.23)" d="M1.25,0A1.25,1.25 0 1,1 0,-1.25A1.25,1.25 0 0,1 1.25,0Z" style="opacity: 0.85; stroke-width: 0px; fill: rgb(0, 0, 0); fill-opacity: 1;"/><path class="point" transform="translate(64.84,934.22)" d="M1.25,0A1.25,1.25 0 1,1 0,-1.25A1.25,1.25 0 0,1 1.25,0Z" style="opacity: 0.85; stroke-width: 0px; fill: rgb(0, 0, 0); fill-opacity: 1;"/><path class="point" transform="translate(62.25,934.22)" d="M1.25,0A1.25,1.25 0 1,1 0,-1.25A1.25,1.25 0 0,1 1.25,0Z" style="opacity: 0.85; stroke-width: 0px; fill: rgb(0, 0, 0); fill-opacity: 1;"/><path class="point" transform="translate(65.95,926.21)" d="M1.25,0A1.25,1.25 0 1,1 0,-1.25A1.25,1.25 0 0,1 1.25,0Z" style="opacity: 0.85; stroke-width: 0px; fill: rgb(0, 0, 0); fill-opacity: 1;"/><path class="point" transform="translate(64.66,926.21)" d="M1.25,0A1.25,1.25 0 1,1 0,-1.25A1.25,1.25 0 0,1 1.25,0Z" style="opacity: 0.85; stroke-width: 0px; fill: rgb(0, 0, 0); fill-opacity: 1;"/><path class="point" transform="translate(67.81,926.21)" d="M1.25,0A1.25,1.25 0 1,1 0,-1.25A1.25,1.25 0 0,1 1.25,0Z" style="opacity: 0.85; stroke-width: 0px; fill: rgb(0, 0, 0); fill-opacity: 1;"/><path class="point" transform="translate(65.57,926.21)" d="M1.25,0A1.25,1.25 0 1,1 0,-1.25A1.25,1.25 0 0,1 1.25,0Z" style="opacity: 0.85; stroke-width: 0px; fill: rgb(0, 0, 0); fill-opacity: 1;"/><path class="point" transform="translate(63.59,918.21)" d="M1.25,0A1.25,1.25 0 1,1 0,-1.25A1.25,1.25 0 0,1 1.25,0Z" style="opacity: 0.85; stroke-width: 0px; fill: rgb(0, 0, 0); fill-opacity: 1;"/><path class="point" transform="translate(62.25,910.2)" d="M1.25,0A1.25,1.25 0 1,1 0,-1.25A1.25,1.25 0 0,1 1.25,0Z" style="opacity: 0.85; stroke-width: 0px; fill: rgb(0, 0, 0); fill-opacity: 1;"/><path class="point" transform="translate(67.63,910.2)" d="M1.25,0A1.25,1.25 0 1,1 0,-1.25A1.25,1.25 0 0,1 1.25,0Z" style="opacity: 0.85; stroke-width: 0px; fill: rgb(0, 0, 0); fill-opacity: 1;"/><path class="point" transform="translate(63.56,902.2)" d="M1.25,0A1.25,1.25 0 1,1 0,-1.25A1.25,1.25 0 0,1 1.25,0Z" style="opacity: 0.85; stroke-width: 0px; fill: rgb(0, 0, 0); fill-opacity: 1;"/><path class="point" transform="translate(67.63,902.2)" d="M1.25,0A1.25,1.25 0 1,1 0,-1.25A1.25,1.25 0 0,1 1.25,0Z" style="opacity: 0.85; stroke-width: 0px; fill: rgb(0, 0, 0); fill-opacity: 1;"/><path class="point" transform="translate(66.58,886.19)" d="M1.25,0A1.25,1.25 0 1,1 0,-1.25A1.25,1.25 0 0,1 1.25,0Z" style="opacity: 0.85; stroke-width: 0px; fill: rgb(0, 0, 0); fill-opacity: 1;"/><path class="point" transform="translate(65.12,886.19)" d="M1.25,0A1.25,1.25 0 1,1 0,-1.25A1.25,1.25 0 0,1 1.25,0Z" style="opacity: 0.85; stroke-width: 0px; fill: rgb(0, 0, 0); fill-opacity: 1;"/><path class="point" transform="translate(64.38,854.16)" d="M1.25,0A1.25,1.25 0 1,1 0,-1.25A1.25,1.25 0 0,1 1.25,0Z" style="opacity: 0.85; stroke-width: 0px; fill: rgb(0, 0, 0); fill-opacity: 1;"/><path class="point" transform="translate(67.12,846.16)" d="M1.25,0A1.25,1.25 0 1,1 0,-1.25A1.25,1.25 0 0,1 1.25,0Z" style="opacity: 0.85; stroke-width: 0px; fill: rgb(0, 0, 0); fill-opacity: 1;"/><path class="point" transform="translate(65.7,846.16)" d="M1.25,0A1.25,1.25 0 1,1 0,-1.25A1.25,1.25 0 0,1 1.25,0Z" style="opacity: 0.85; stroke-width: 0px; fill: rgb(0, 0, 0); fill-opacity: 1;"/><path class="point" transform="translate(67.54,838.15)" d="M1.25,0A1.25,1.25 0 1,1 0,-1.25A1.25,1.25 0 0,1 1.25,0Z" style="opacity: 0.85; stroke-width: 0px; fill: rgb(0, 0, 0); fill-opacity: 1;"/><path class="point" transform="translate(64.25,830.14)" d="M1.25,0A1.25,1.25 0 1,1 0,-1.25A1.25,1.25 0 0,1 1.25,0Z" style="opacity: 0.85; stroke-width: 0px; fill: rgb(0, 0, 0); fill-opacity: 1;"/><path class="point" transform="translate(67.27,822.14)" d="M1.25,0A1.25,1.25 0 1,1 0,-1.25A1.25,1.25 0 0,1 1.25,0Z" style="opacity: 0.85; stroke-width: 0px; fill: rgb(0, 0, 0); fill-opacity: 1;"/><path class="point" transform="translate(65.8,806.13)" d="M1.25,0A1.25,1.25 0 1,1 0,-1.25A1.25,1.25 0 0,1 1.25,0Z" style="opacity: 0.85; stroke-width: 0px; fill: rgb(0, 0, 0); fill-opacity: 1;"/><path class="point" transform="translate(65.2,798.12)" d="M1.25,0A1.25,1.25 0 1,1 0,-1.25A1.25,1.25 0 0,1 1.25,0Z" style="opacity: 0.85; stroke-width: 0px; fill: rgb(0, 0, 0); fill-opacity: 1;"/><path class="point" transform="translate(64.14,766.1)" d="M1.25,0A1.25,1.25 0 1,1 0,-1.25A1.25,1.25 0 0,1 1.25,0Z" style="opacity: 0.85; stroke-width: 0px; fill: rgb(0, 0, 0); fill-opacity: 1;"/><path class="point" transform="translate(65.27,734.08)" d="M1.25,0A1.25,1.25 0 1,1 0,-1.25A1.25,1.25 0 0,1 1.25,0Z" style="opacity: 0.85; stroke-width: 0px; fill: rgb(0, 0, 0); fill-opacity: 1;"/><path class="point" transform="translate(67.03,702.05)" d="M1.25,0A1.25,1.25 0 1,1 0,-1.25A1.25,1.25 0 0,1 1.25,0Z" style="opacity: 0.85; stroke-width: 0px; fill: rgb(0, 0, 0); fill-opacity: 1;"/><path class="point" transform="translate(65.57,686.04)" d="M1.25,0A1.25,1.25 0 1,1 0,-1.25A1.25,1.25 0 0,1 1.25,0Z" style="opacity: 0.85; stroke-width: 0px; fill: rgb(0, 0, 0); fill-opacity: 1;"/><path class="point" transform="translate(64.68,678.03)" d="M1.25,0A1.25,1.25 0 1,1 0,-1.25A1.25,1.25 0 0,1 1.25,0Z" style="opacity: 0.85; stroke-width: 0px; fill: rgb(0, 0, 0); fill-opacity: 1;"/><path class="point" transform="translate(66.81,654.02)" d="M1.25,0A1.25,1.25 0 1,1 0,-1.25A1.25,1.25 0 0,1 1.25,0Z" style="opacity: 0.85; stroke-width: 0px; fill: rgb(0, 0, 0); fill-opacity: 1;"/><path class="point" transform="translate(64.95,630)" d="M1.25,0A1.25,1.25 0 1,1 0,-1.25A1.25,1.25 0 0,1 1.25,0Z" style="opacity: 0.85; stroke-width: 0px; fill: rgb(0, 0, 0); fill-opacity: 1;"/><path class="point" transform="translate(65.96,573.96)" d="M1.25,0A1.25,1.25 0 1,1 0,-1.25A1.25,1.25 0 0,1 1.25,0Z" style="opacity: 0.85; stroke-width: 0px; fill: rgb(0, 0, 0); fill-opacity: 1;"/><path class="point" transform="translate(66.66,565.95)" d="M1.25,0A1.25,1.25 0 1,1 0,-1.25A1.25,1.25 0 0,1 1.25,0Z" style="opacity: 0.85; stroke-width: 0px; fill: rgb(0, 0, 0); fill-opacity: 1;"/><path class="point" transform="translate(64.39,565.95)" d="M1.25,0A1.25,1.25 0 1,1 0,-1.25A1.25,1.25 0 0,1 1.25,0Z" style="opacity: 0.85; stroke-width: 0px; fill: rgb(0, 0, 0); fill-opacity: 1;"/><path class="point" transform="translate(67.48,557.95)" d="M1.25,0A1.25,1.25 0 1,1 0,-1.25A1.25,1.25 0 0,1 1.25,0Z" style="opacity: 0.85; stroke-width: 0px; fill: rgb(0, 0, 0); fill-opacity: 1;"/><path class="point" transform="translate(66.64,557.95)" d="M1.25,0A1.25,1.25 0 1,1 0,-1.25A1.25,1.25 0 0,1 1.25,0Z" style="opacity: 0.85; stroke-width: 0px; fill: rgb(0, 0, 0); fill-opacity: 1;"/><path class="point" transform="translate(64.37,517.92)" d="M1.25,0A1.25,1.25 0 1,1 0,-1.25A1.25,1.25 0 0,1 1.25,0Z" style="opacity: 0.85; stroke-width: 0px; fill: rgb(0, 0, 0); fill-opacity: 1;"/><path class="point" transform="translate(67.33,445.87)" d="M1.25,0A1.25,1.25 0 1,1 0,-1.25A1.25,1.25 0 0,1 1.25,0Z" style="opacity: 0.85; stroke-width: 0px; fill: rgb(0, 0, 0); fill-opacity: 1;"/><path class="point" transform="translate(64.81,437.86)" d="M1.25,0A1.25,1.25 0 1,1 0,-1.25A1.25,1.25 0 0,1 1.25,0Z" style="opacity: 0.85; stroke-width: 0px; fill: rgb(0, 0, 0); fill-opacity: 1;"/></g></g><g class="trace violins" style="opacity: 0.8;"><path class="violin" d="M385.31,1066.68Q385.59,1055.71 385.78,1050.23C385.97,1044.75 386.19,1039.26 386.43,1033.78C386.67,1028.29 386.96,1022.81 387.23,1017.32C387.5,1011.84 387.8,1006.35 388.04,1000.87C388.28,995.38 388.52,989.9 388.69,984.41C388.86,978.93 388.98,973.44 389.04,967.96C389.1,962.48 389.08,956.99 389.04,951.51C389,946.02 388.89,940.54 388.81,935.05C388.73,929.57 388.61,924.08 388.55,918.6C388.49,913.12 388.44,907.63 388.46,902.15C388.48,896.66 388.54,891.18 388.65,885.69C388.75,880.21 388.92,874.72 389.09,869.24C389.26,863.76 389.46,858.27 389.66,852.79C389.86,847.3 390.06,841.82 390.27,836.33C390.48,830.85 390.68,825.36 390.9,819.88C391.12,814.4 391.35,808.91 391.61,803.43C391.87,797.94 392.16,792.46 392.44,786.97C392.72,781.49 393.04,776 393.3,770.52C393.56,765.03 393.82,759.55 394.01,754.06C394.2,748.58 394.34,743.09 394.45,737.61C394.55,732.13 394.56,726.64 394.64,721.16C394.72,715.67 394.73,710.18 394.95,704.7C395.17,699.21 395.4,693.72 395.95,688.25C396.5,682.76 397.2,677.26 398.24,671.8C399.29,666.29 400.62,660.79 402.21,655.34C403.82,649.82 405.79,644.34 407.87,638.89C409.97,633.37 412.39,627.91 414.77,622.44C417.17,616.94 419.76,611.47 422.21,605.98C424.66,600.5 427.13,595.03 429.46,589.53C431.78,584.06 433.99,578.58 436.15,573.08C438.3,567.61 440.3,562.1 442.41,556.62C444.52,551.13 446.55,545.63 448.8,540.17C451.07,534.66 453.43,529.16 455.98,523.71C458.56,518.19 461.36,512.72 464.19,507.26C467.04,501.76 470.14,496.31 473,490.81C475.84,485.34 478.83,479.9 481.3,474.35C483.72,468.92 486.07,463.45 487.7,457.9C489.29,452.48 490.53,446.96 491.02,441.45C491.51,435.99 491.35,430.44 490.68,424.99C490,419.47 488.57,413.96 486.92,408.54C485.23,403 482.93,397.53 480.59,392.09C478.21,386.56 475.47,381.09 472.76,375.63C470.03,370.12 467.14,364.66 464.29,359.18C461.43,353.69 458.53,348.21 455.63,342.73C452.73,337.24 449.83,331.75 446.9,326.27C443.97,320.78 441,315.3 438.04,309.82C435.07,304.33 432.06,298.85 429.11,293.36C426.17,287.88 423.19,282.41 420.35,276.91C417.53,271.44 414.73,265.97 412.13,260.46C409.56,255 407.07,249.52 404.82,244C402.6,238.55 400.54,233.07 398.71,227.55C396.9,222.1 395.3,216.61 393.91,211.1C392.53,205.64 391.38,200.14 390.39,194.64C389.41,189.17 388.64,183.68 387.99,178.19C387.34,172.72 386.88,167.23 386.48,161.74Q386.08,156.26 385.6,145.28L383.91,145.28Q383.43,156.26 383.03,161.74C382.63,167.23 382.17,172.72 381.52,178.19C380.87,183.68 380.1,189.17 379.12,194.64C378.13,200.14 376.98,205.64 375.6,211.1C374.21,216.61 372.61,222.1 370.8,227.55C368.97,233.07 366.9,238.55 364.68,244C362.43,249.52 359.95,255 357.38,260.46C354.78,265.97 351.98,271.44 349.16,276.91C346.32,282.41 343.34,287.88 340.4,293.36C337.45,298.85 334.44,304.33 331.47,309.82C328.51,315.3 325.55,320.78 322.61,326.27C319.68,331.75 316.77,337.24 313.87,342.73C310.97,348.21 308.08,353.69 305.22,359.18C302.37,364.66 299.48,370.12 296.75,375.63C294.04,381.09 291.29,386.56 288.91,392.09C286.57,397.53 284.27,403 282.58,408.54C280.93,413.96 279.51,419.47 278.83,424.99C278.16,430.44 278,435.99 278.49,441.45C278.98,446.96 280.21,452.48 281.8,457.9C283.43,463.45 285.79,468.92 288.21,474.35C290.68,479.9 293.67,485.34 296.51,490.81C299.37,496.31 302.47,501.76 305.32,507.26C308.15,512.72 310.95,518.19 313.53,523.71C316.08,529.16 318.43,534.66 320.7,540.17C322.95,545.63 324.99,551.13 327.1,556.62C329.21,562.1 331.21,567.61 333.36,573.08C335.52,578.58 337.72,584.06 340.04,589.53C342.37,595.03 344.85,600.5 347.3,605.98C349.75,611.47 352.34,616.94 354.74,622.44C357.12,627.91 359.54,633.37 361.64,638.89C363.72,644.34 365.69,649.82 367.3,655.34C368.89,660.79 370.22,666.29 371.27,671.8C372.31,677.26 373.01,682.76 373.56,688.25C374.1,693.72 374.33,699.21 374.55,704.7C374.77,710.18 374.77,715.67 374.86,721.16C374.94,726.64 374.96,732.13 375.06,737.61C375.17,743.09 375.3,748.58 375.49,754.06C375.68,759.55 375.95,765.03 376.21,770.52C376.47,776 376.79,781.49 377.07,786.97C377.35,792.46 377.64,797.94 377.9,803.43C378.16,808.91 378.39,814.4 378.61,819.88C378.83,825.36 379.03,830.85 379.24,836.33C379.45,841.82 379.65,847.3 379.85,852.79C380.05,858.27 380.25,863.76 380.42,869.24C380.59,874.72 380.76,880.21 380.86,885.69C380.96,891.18 381.02,896.66 381.04,902.15C381.06,907.63 381.02,913.12 380.96,918.6C380.9,924.08 380.78,929.57 380.7,935.05C380.62,940.54 380.51,946.02 380.47,951.51C380.43,956.99 380.41,962.48 380.47,967.96C380.53,973.44 380.65,978.93 380.82,984.41C380.99,989.9 381.23,995.38 381.47,1000.87C381.71,1006.35 382.01,1011.84 382.28,1017.32C382.55,1022.81 382.84,1028.29 383.08,1033.78C383.32,1039.26 383.54,1044.75 383.73,1050.23Q383.91,1055.71 384.19,1066.68Z" style="vector-effect: non-scaling-stroke; stroke-width: 1.5px; stroke: rgb(255, 69, 0); stroke-opacity: 1; fill: rgb(255, 69, 0); fill-opacity: 0.5;"/><path class="box" d="M379.44,445.87H390.07M379.44,525.92H390.07V381.82H379.44ZM384.75,525.92V742.08M384.75,381.82V245.72" style="vector-effect: non-scaling-stroke; stroke-width: 1.5px; stroke: rgb(255, 69, 0); stroke-opacity: 1; fill: rgb(255, 255, 255); fill-opacity: 1;"/><path class="mean" d="M379.44,466.71H390.07" style="fill: none; vector-effect: non-scaling-stroke; stroke-width: 1.5px; stroke-dasharray: 3px, 1.5px; stroke: rgb(255, 69, 0); stroke-opacity: 1;"/><g class="points"><path class="point" transform="translate(273.75,966.24)" d="M1.25,0A1.25,1.25 0 1,1 0,-1.25A1.25,1.25 0 0,1 1.25,0Z" style="opacity: 0.85; stroke-width: 0px; fill: rgb(255, 69, 0); fill-opacity: 1;"/><path class="point" transform="translate(272.4,838.15)" d="M1.25,0A1.25,1.25 0 1,1 0,-1.25A1.25,1.25 0 0,1 1.25,0Z" style="opacity: 0.85; stroke-width: 0px; fill: rgb(255, 69, 0); fill-opacity: 1;"/><path class="point" transform="translate(274.18,742.08)" d="M1.25,0A1.25,1.25 0 1,1 0,-1.25A1.25,1.25 0 0,1 1.25,0Z" style="opacity: 0.85; stroke-width: 0px; fill: rgb(255, 69, 0); fill-opacity: 1;"/><path class="point" transform="translate(272.03,734.08)" d="M1.25,0A1.25,1.25 0 1,1 0,-1.25A1.25,1.25 0 0,1 1.25,0Z" style="opacity: 0.85; stroke-width: 0px; fill: rgb(255, 69, 0); fill-opacity: 1;"/><path class="point" transform="translate(272.82,638.01)" d="M1.25,0A1.25,1.25 0 1,1 0,-1.25A1.25,1.25 0 0,1 1.25,0Z" style="opacity: 0.85; stroke-width: 0px; fill: rgb(255, 69, 0); fill-opacity: 1;"/><path class="point" transform="translate(273.97,597.98)" d="M1.25,0A1.25,1.25 0 1,1 0,-1.25A1.25,1.25 0 0,1 1.25,0Z" style="opacity: 0.85; stroke-width: 0px; fill: rgb(255, 69, 0); fill-opacity: 1;"/><path class="point" transform="translate(273.11,597.98)" d="M1.25,0A1.25,1.25 0 1,1 0,-1.25A1.25,1.25 0 0,1 1.25,0Z" style="opacity: 0.85; stroke-width: 0px; fill: rgb(255, 69, 0); fill-opacity: 1;"/><path class="point" transform="translate(273.82,589.97)" d="M1.25,0A1.25,1.25 0 1,1 0,-1.25A1.25,1.25 0 0,1 1.25,0Z" style="opacity: 0.85; stroke-width: 0px; fill: rgb(255, 69, 0); fill-opacity: 1;"/><path class="point" transform="translate(272.49,573.96)" d="M1.25,0A1.25,1.25 0 1,1 0,-1.25A1.25,1.25 0 0,1 1.25,0Z" style="opacity: 0.85; stroke-width: 0px; fill: rgb(255, 69, 0); fill-opacity: 1;"/><path class="point" transform="translate(271.1,573.96)" d="M1.25,0A1.25,1.25 0 1,1 0,-1.25A1.25,1.25 0 0,1 1.25,0Z" style="opacity: 0.85; stroke-width: 0px; fill: rgb(255, 69, 0); fill-opacity: 1;"/><path class="point" transform="translate(274.08,573.96)" d="M1.25,0A1.25,1.25 0 1,1 0,-1.25A1.25,1.25 0 0,1 1.25,0Z" style="opacity: 0.85; stroke-width: 0px; fill: rgb(255, 69, 0); fill-opacity: 1;"/><path class="point" transform="translate(272.12,557.95)" d="M1.25,0A1.25,1.25 0 1,1 0,-1.25A1.25,1.25 0 0,1 1.25,0Z" style="opacity: 0.85; stroke-width: 0px; fill: rgb(255, 69, 0); fill-opacity: 1;"/><path class="point" transform="translate(275.12,557.95)" d="M1.25,0A1.25,1.25 0 1,1 0,-1.25A1.25,1.25 0 0,1 1.25,0Z" style="opacity: 0.85; stroke-width: 0px; fill: rgb(255, 69, 0); fill-opacity: 1;"/><path class="point" transform="translate(269.91,541.94)" d="M1.25,0A1.25,1.25 0 1,1 0,-1.25A1.25,1.25 0 0,1 1.25,0Z" style="opacity: 0.85; stroke-width: 0px; fill: rgb(255, 69, 0); fill-opacity: 1;"/><path class="point" transform="translate(271.32,525.92)" d="M1.25,0A1.25,1.25 0 1,1 0,-1.25A1.25,1.25 0 0,1 1.25,0Z" style="opacity: 0.85; stroke-width: 0px; fill: rgb(255, 69, 0); fill-opacity: 1;"/><path class="point" transform="translate(275.89,517.92)" d="M1.25,0A1.25,1.25 0 1,1 0,-1.25A1.25,1.25 0 0,1 1.25,0Z" style="opacity: 0.85; stroke-width: 0px; fill: rgb(255, 69, 0); fill-opacity: 1;"/><path class="point" transform="translate(272.33,509.91)" d="M1.25,0A1.25,1.25 0 1,1 0,-1.25A1.25,1.25 0 0,1 1.25,0Z" style="opacity: 0.85; stroke-width: 0px; fill: rgb(255, 69, 0); fill-opacity: 1;"/><path class="point" transform="translate(270.43,493.9)" d="M1.25,0A1.25,1.25 0 1,1 0,-1.25A1.25,1.25 0 0,1 1.25,0Z" style="opacity: 0.85; stroke-width: 0px; fill: rgb(255, 69, 0); fill-opacity: 1;"/><path class="point" transform="translate(272.01,493.9)" d="M1.25,0A1.25,1.25 0 1,1 0,-1.25A1.25,1.25 0 0,1 1.25,0Z" style="opacity: 0.85; stroke-width: 0px; fill: rgb(255, 69, 0); fill-opacity: 1;"/><path class="point" transform="translate(273.1,485.9)" d="M1.25,0A1.25,1.25 0 1,1 0,-1.25A1.25,1.25 0 0,1 1.25,0Z" style="opacity: 0.85; stroke-width: 0px; fill: rgb(255, 69, 0); fill-opacity: 1;"/><path class="point" transform="translate(274.98,477.89)" d="M1.25,0A1.25,1.25 0 1,1 0,-1.25A1.25,1.25 0 0,1 1.25,0Z" style="opacity: 0.85; stroke-width: 0px; fill: rgb(255, 69, 0); fill-opacity: 1;"/><path class="point" transform="translate(273.62,477.89)" d="M1.25,0A1.25,1.25 0 1,1 0,-1.25A1.25,1.25 0 0,1 1.25,0Z" style="opacity: 0.85; stroke-width: 0px; fill: rgb(255, 69, 0); fill-opacity: 1;"/><path class="point" transform="translate(271.84,469.88)" d="M1.25,0A1.25,1.25 0 1,1 0,-1.25A1.25,1.25 0 0,1 1.25,0Z" style="opacity: 0.85; stroke-width: 0px; fill: rgb(255, 69, 0); fill-opacity: 1;"/><path class="point" transform="translate(269.55,469.88)" d="M1.25,0A1.25,1.25 0 1,1 0,-1.25A1.25,1.25 0 0,1 1.25,0Z" style="opacity: 0.85; stroke-width: 0px; fill: rgb(255, 69, 0); fill-opacity: 1;"/><path class="point" transform="translate(273.16,461.88)" d="M1.25,0A1.25,1.25 0 1,1 0,-1.25A1.25,1.25 0 0,1 1.25,0Z" style="opacity: 0.85; stroke-width: 0px; fill: rgb(255, 69, 0); fill-opacity: 1;"/><path class="point" transform="translate(271.79,461.88)" d="M1.25,0A1.25,1.25 0 1,1 0,-1.25A1.25,1.25 0 0,1 1.25,0Z" style="opacity: 0.85; stroke-width: 0px; fill: rgb(255, 69, 0); fill-opacity: 1;"/><path class="point" transform="translate(275.39,453.87)" d="M1.25,0A1.25,1.25 0 1,1 0,-1.25A1.25,1.25 0 0,1 1.25,0Z" style="opacity: 0.85; stroke-width: 0px; fill: rgb(255, 69, 0); fill-opacity: 1;"/><path class="point" transform="translate(272.76,453.87)" d="M1.25,0A1.25,1.25 0 1,1 0,-1.25A1.25,1.25 0 0,1 1.25,0Z" style="opacity: 0.85; stroke-width: 0px; fill: rgb(255, 69, 0); fill-opacity: 1;"/><path class="point" transform="translate(270.07,445.87)" d="M1.25,0A1.25,1.25 0 1,1 0,-1.25A1.25,1.25 0 0,1 1.25,0Z" style="opacity: 0.85; stroke-width: 0px; fill: rgb(255, 69, 0); fill-opacity: 1;"/><path class="point" transform="translate(268.74,445.87)" d="M1.25,0A1.25,1.25 0 1,1 0,-1.25A1.25,1.25 0 0,1 1.25,0Z" style="opacity: 0.85; stroke-width: 0px; fill: rgb(255, 69, 0); fill-opacity: 1;"/><path class="point" transform="translate(275.86,437.86)" d="M1.25,0A1.25,1.25 0 1,1 0,-1.25A1.25,1.25 0 0,1 1.25,0Z" style="opacity: 0.85; stroke-width: 0px; fill: rgb(255, 69, 0); fill-opacity: 1;"/><path class="point" transform="translate(269.12,437.86)" d="M1.25,0A1.25,1.25 0 1,1 0,-1.25A1.25,1.25 0 0,1 1.25,0Z" style="opacity: 0.85; stroke-width: 0px; fill: rgb(255, 69, 0); fill-opacity: 1;"/><path class="point" transform="translate(276,429.86)" d="M1.25,0A1.25,1.25 0 1,1 0,-1.25A1.25,1.25 0 0,1 1.25,0Z" style="opacity: 0.85; stroke-width: 0px; fill: rgb(255, 69, 0); fill-opacity: 1;"/><path class="point" transform="translate(274.22,429.86)" d="M1.25,0A1.25,1.25 0 1,1 0,-1.25A1.25,1.25 0 0,1 1.25,0Z" style="opacity: 0.85; stroke-width: 0px; fill: rgb(255, 69, 0); fill-opacity: 1;"/><path class="point" transform="translate(271.76,421.85)" d="M1.25,0A1.25,1.25 0 1,1 0,-1.25A1.25,1.25 0 0,1 1.25,0Z" style="opacity: 0.85; stroke-width: 0px; fill: rgb(255, 69, 0); fill-opacity: 1;"/><path class="point" transform="translate(270.03,421.85)" d="M1.25,0A1.25,1.25 0 1,1 0,-1.25A1.25,1.25 0 0,1 1.25,0Z" style="opacity: 0.85; stroke-width: 0px; fill: rgb(255, 69, 0); fill-opacity: 1;"/><path class="point" transform="translate(275.32,413.84)" d="M1.25,0A1.25,1.25 0 1,1 0,-1.25A1.25,1.25 0 0,1 1.25,0Z" style="opacity: 0.85; stroke-width: 0px; fill: rgb(255, 69, 0); fill-opacity: 1;"/><path class="point" transform="translate(272.61,413.84)" d="M1.25,0A1.25,1.25 0 1,1 0,-1.25A1.25,1.25 0 0,1 1.25,0Z" style="opacity: 0.85; stroke-width: 0px; fill: rgb(255, 69, 0); fill-opacity: 1;"/><path class="point" transform="translate(276.16,405.84)" d="M1.25,0A1.25,1.25 0 1,1 0,-1.25A1.25,1.25 0 0,1 1.25,0Z" style="opacity: 0.85; stroke-width: 0px; fill: rgb(255, 69, 0); fill-opacity: 1;"/><path class="point" transform="translate(269.18,405.84)" d="M1.25,0A1.25,1.25 0 1,1 0,-1.25A1.25,1.25 0 0,1 1.25,0Z" style="opacity: 0.85; stroke-width: 0px; fill: rgb(255, 69, 0); fill-opacity: 1;"/><path class="point" transform="translate(275.58,405.84)" d="M1.25,0A1.25,1.25 0 1,1 0,-1.25A1.25,1.25 0 0,1 1.25,0Z" style="opacity: 0.85; stroke-width: 0px; fill: rgb(255, 69, 0); fill-opacity: 1;"/><path class="point" transform="translate(272.87,397.83)" d="M1.25,0A1.25,1.25 0 1,1 0,-1.25A1.25,1.25 0 0,1 1.25,0Z" style="opacity: 0.85; stroke-width: 0px; fill: rgb(255, 69, 0); fill-opacity: 1;"/><path class="point" transform="translate(271.7,397.83)" d="M1.25,0A1.25,1.25 0 1,1 0,-1.25A1.25,1.25 0 0,1 1.25,0Z" style="opacity: 0.85; stroke-width: 0px; fill: rgb(255, 69, 0); fill-opacity: 1;"/><path class="point" transform="translate(269.22,381.82)" d="M1.25,0A1.25,1.25 0 1,1 0,-1.25A1.25,1.25 0 0,1 1.25,0Z" style="opacity: 0.85; stroke-width: 0px; fill: rgb(255, 69, 0); fill-opacity: 1;"/><path class="point" transform="translate(271.71,381.82)" d="M1.25,0A1.25,1.25 0 1,1 0,-1.25A1.25,1.25 0 0,1 1.25,0Z" style="opacity: 0.85; stroke-width: 0px; fill: rgb(255, 69, 0); fill-opacity: 1;"/><path class="point" transform="translate(275.69,357.8)" d="M1.25,0A1.25,1.25 0 1,1 0,-1.25A1.25,1.25 0 0,1 1.25,0Z" style="opacity: 0.85; stroke-width: 0px; fill: rgb(255, 69, 0); fill-opacity: 1;"/><path class="point" transform="translate(272.33,349.8)" d="M1.25,0A1.25,1.25 0 1,1 0,-1.25A1.25,1.25 0 0,1 1.25,0Z" style="opacity: 0.85; stroke-width: 0px; fill: rgb(255, 69, 0); fill-opacity: 1;"/><path class="point" transform="translate(270.57,349.8)" d="M1.25,0A1.25,1.25 0 1,1 0,-1.25A1.25,1.25 0 0,1 1.25,0Z" style="opacity: 0.85; stroke-width: 0px; fill: rgb(255, 69, 0); fill-opacity: 1;"/><path class="point" transform="translate(274.89,349.8)" d="M1.25,0A1.25,1.25 0 1,1 0,-1.25A1.25,1.25 0 0,1 1.25,0Z" style="opacity: 0.85; stroke-width: 0px; fill: rgb(255, 69, 0); fill-opacity: 1;"/><path class="point" transform="translate(271.38,341.79)" d="M1.25,0A1.25,1.25 0 1,1 0,-1.25A1.25,1.25 0 0,1 1.25,0Z" style="opacity: 0.85; stroke-width: 0px; fill: rgb(255, 69, 0); fill-opacity: 1;"/><path class="point" transform="translate(273.18,341.79)" d="M1.25,0A1.25,1.25 0 1,1 0,-1.25A1.25,1.25 0 0,1 1.25,0Z" style="opacity: 0.85; stroke-width: 0px; fill: rgb(255, 69, 0); fill-opacity: 1;"/><path class="point" transform="translate(274.69,325.78)" d="M1.25,0A1.25,1.25 0 1,1 0,-1.25A1.25,1.25 0 0,1 1.25,0Z" style="opacity: 0.85; stroke-width: 0px; fill: rgb(255, 69, 0); fill-opacity: 1;"/><path class="point" transform="translate(270.32,317.77)" d="M1.25,0A1.25,1.25 0 1,1 0,-1.25A1.25,1.25 0 0,1 1.25,0Z" style="opacity: 0.85; stroke-width: 0px; fill: rgb(255, 69, 0); fill-opacity: 1;"/><path class="point" transform="translate(275.8,309.77)" d="M1.25,0A1.25,1.25 0 1,1 0,-1.25A1.25,1.25 0 0,1 1.25,0Z" style="opacity: 0.85; stroke-width: 0px; fill: rgb(255, 69, 0); fill-opacity: 1;"/><path class="point" transform="translate(274.32,301.76)" d="M1.25,0A1.25,1.25 0 1,1 0,-1.25A1.25,1.25 0 0,1 1.25,0Z" style="opacity: 0.85; stroke-width: 0px; fill: rgb(255, 69, 0); fill-opacity: 1;"/><path class="point" transform="translate(270.91,285.75)" d="M1.25,0A1.25,1.25 0 1,1 0,-1.25A1.25,1.25 0 0,1 1.25,0Z" style="opacity: 0.85; stroke-width: 0px; fill: rgb(255, 69, 0); fill-opacity: 1;"/><path class="point" transform="translate(275.24,277.75)" d="M1.25,0A1.25,1.25 0 1,1 0,-1.25A1.25,1.25 0 0,1 1.25,0Z" style="opacity: 0.85; stroke-width: 0px; fill: rgb(255, 69, 0); fill-opacity: 1;"/><path class="point" transform="translate(271.34,245.72)" d="M1.25,0A1.25,1.25 0 1,1 0,-1.25A1.25,1.25 0 0,1 1.25,0Z" style="opacity: 0.85; stroke-width: 0px; fill: rgb(255, 69, 0); fill-opacity: 1;"/></g></g><g class="trace violins" style="opacity: 0.8;"><path class="violin" d="M597.97,1054.86Q598.37,1040.66 598.71,1033.56C599.05,1026.46 599.44,1019.35 600,1012.25C600.56,1005.14 601.23,998.03 602.09,990.94C602.96,983.83 603.97,976.72 605.19,969.63C606.42,962.51 607.83,955.4 609.43,948.32C611.04,941.2 612.87,934.1 614.82,927.02C616.79,919.9 618.97,912.8 621.19,905.71C623.42,898.59 625.82,891.5 628.18,884.4C630.54,877.29 633.01,870.2 635.36,863.09C637.71,856 640.06,848.9 642.27,841.79C644.47,834.7 646.6,827.6 648.61,820.48C650.61,813.39 652.49,806.28 654.3,799.17C656.11,792.08 657.8,784.97 659.48,777.86C661.16,770.76 662.78,763.66 664.36,756.55C665.93,749.45 667.52,742.36 668.93,735.25C670.34,728.16 671.74,721.06 672.81,713.94C673.87,706.85 674.82,699.75 675.33,692.63C675.83,685.54 676.04,678.42 675.85,671.32C675.66,664.21 675.05,657.09 674.21,650.01C673.36,642.89 672.1,635.79 670.77,628.71C669.44,621.59 667.83,614.49 666.23,607.4C664.62,600.29 662.89,593.19 661.14,586.09C659.39,578.98 657.58,571.88 655.74,564.78C653.9,557.67 651.99,550.58 650.11,543.48C648.23,536.38 646.28,529.28 644.45,522.17C642.63,515.07 640.8,507.98 639.15,500.86C637.51,493.77 635.98,486.67 634.59,479.55C633.21,472.46 632.01,465.35 630.83,458.24C629.66,451.15 628.65,444.04 627.54,436.94C626.43,429.84 625.37,422.73 624.16,415.63C622.95,408.52 621.66,401.42 620.29,394.32C618.91,387.21 617.39,380.11 615.9,373.01C614.41,365.9 612.82,358.81 611.35,351.7C609.88,344.6 608.39,337.51 607.1,330.4C605.81,323.31 604.61,316.2 603.59,309.09C602.57,302 601.71,294.89 600.99,287.78C600.27,280.68 599.73,273.58 599.27,266.47Q598.81,259.37 598.25,245.16L596.31,245.16Q595.74,259.37 595.29,266.47C594.83,273.58 594.3,280.68 593.58,287.78C592.86,294.89 592,302 590.98,309.09C589.96,316.2 588.75,323.31 587.46,330.4C586.17,337.51 584.69,344.6 583.22,351.7C581.75,358.81 580.15,365.9 578.66,373.01C577.17,380.11 575.66,387.21 574.28,394.32C572.91,401.42 571.62,408.52 570.41,415.63C569.2,422.73 568.14,429.84 567.03,436.94C565.92,444.04 564.9,451.15 563.73,458.24C562.55,465.35 561.36,472.46 559.98,479.55C558.59,486.67 557.06,493.77 555.42,500.86C553.77,507.98 551.95,515.07 550.12,522.17C548.29,529.28 546.33,536.38 544.45,543.48C542.57,550.58 540.66,557.67 538.82,564.78C536.98,571.88 535.17,578.98 533.42,586.09C531.67,593.19 529.94,600.29 528.33,607.4C526.73,614.49 525.12,621.59 523.79,628.71C522.47,635.79 521.21,642.89 520.36,650.01C519.52,657.1 518.9,664.21 518.71,671.32C518.52,678.42 518.73,685.54 519.23,692.63C519.74,699.75 520.69,706.85 521.75,713.94C522.82,721.06 524.22,728.16 525.63,735.25C527.04,742.36 528.63,749.45 530.2,756.55C531.78,763.66 533.4,770.76 535.08,777.86C536.76,784.97 538.45,792.08 540.26,799.17C542.07,806.28 543.95,813.39 545.95,820.48C547.96,827.6 550.08,834.7 552.29,841.79C554.5,848.9 556.86,856 559.21,863.09C561.56,870.2 564.02,877.29 566.38,884.4C568.74,891.5 571.15,898.59 573.38,905.71C575.6,912.8 577.78,919.9 579.74,927.02C581.69,934.1 583.52,941.2 585.13,948.32C586.73,955.4 588.15,962.51 589.38,969.63C590.6,976.72 591.61,983.83 592.47,990.94C593.33,998.03 593.99,1005.14 594.56,1012.25C595.12,1019.35 595.52,1026.46 595.86,1033.56Q596.2,1040.66 596.59,1054.86Z" style="vector-effect: non-scaling-stroke; stroke-width: 1.5px; stroke: rgb(25, 25, 112); stroke-opacity: 1; fill: rgb(25, 25, 112); fill-opacity: 0.5;"/><path class="box" d="M591.97,666.03H602.59M591.97,758.09H602.59V557.95H591.97ZM597.28,758.09V926.21M597.28,557.95V373.81" style="vector-effect: non-scaling-stroke; stroke-width: 1.5px; stroke: rgb(25, 25, 112); stroke-opacity: 1; fill: rgb(255, 255, 255); fill-opacity: 1;"/><path class="mean" d="M591.97,658.99H602.59" style="fill: none; vector-effect: non-scaling-stroke; stroke-width: 1.5px; stroke-dasharray: 3px, 1.5px; stroke: rgb(25, 25, 112); stroke-opacity: 1;"/><g class="points"><path class="point" transform="translate(502.82,926.21)" d="M1.25,0A1.25,1.25 0 1,1 0,-1.25A1.25,1.25 0 0,1 1.25,0Z" style="opacity: 0.85; stroke-width: 0px; fill: rgb(25, 25, 112); fill-opacity: 1;"/><path class="point" transform="translate(500.24,878.18)" d="M1.25,0A1.25,1.25 0 1,1 0,-1.25A1.25,1.25 0 0,1 1.25,0Z" style="opacity: 0.85; stroke-width: 0px; fill: rgb(25, 25, 112); fill-opacity: 1;"/><path class="point" transform="translate(503.49,878.18)" d="M1.25,0A1.25,1.25 0 1,1 0,-1.25A1.25,1.25 0 0,1 1.25,0Z" style="opacity: 0.85; stroke-width: 0px; fill: rgb(25, 25, 112); fill-opacity: 1;"/><path class="point" transform="translate(499.5,870.17)" d="M1.25,0A1.25,1.25 0 1,1 0,-1.25A1.25,1.25 0 0,1 1.25,0Z" style="opacity: 0.85; stroke-width: 0px; fill: rgb(25, 25, 112); fill-opacity: 1;"/><path class="point" transform="translate(501,854.16)" d="M1.25,0A1.25,1.25 0 1,1 0,-1.25A1.25,1.25 0 0,1 1.25,0Z" style="opacity: 0.85; stroke-width: 0px; fill: rgb(25, 25, 112); fill-opacity: 1;"/><path class="point" transform="translate(503.04,838.15)" d="M1.25,0A1.25,1.25 0 1,1 0,-1.25A1.25,1.25 0 0,1 1.25,0Z" style="opacity: 0.85; stroke-width: 0px; fill: rgb(25, 25, 112); fill-opacity: 1;"/><path class="point" transform="translate(501.52,814.13)" d="M1.25,0A1.25,1.25 0 1,1 0,-1.25A1.25,1.25 0 0,1 1.25,0Z" style="opacity: 0.85; stroke-width: 0px; fill: rgb(25, 25, 112); fill-opacity: 1;"/><path class="point" transform="translate(502.53,814.13)" d="M1.25,0A1.25,1.25 0 1,1 0,-1.25A1.25,1.25 0 0,1 1.25,0Z" style="opacity: 0.85; stroke-width: 0px; fill: rgb(25, 25, 112); fill-opacity: 1;"/><path class="point" transform="translate(500.67,814.13)" d="M1.25,0A1.25,1.25 0 1,1 0,-1.25A1.25,1.25 0 0,1 1.25,0Z" style="opacity: 0.85; stroke-width: 0px; fill: rgb(25, 25, 112); fill-opacity: 1;"/><path class="point" transform="translate(499.4,806.13)" d="M1.25,0A1.25,1.25 0 1,1 0,-1.25A1.25,1.25 0 0,1 1.25,0Z" style="opacity: 0.85; stroke-width: 0px; fill: rgb(25, 25, 112); fill-opacity: 1;"/><path class="point" transform="translate(502.5,798.12)" d="M1.25,0A1.25,1.25 0 1,1 0,-1.25A1.25,1.25 0 0,1 1.25,0Z" style="opacity: 0.85; stroke-width: 0px; fill: rgb(25, 25, 112); fill-opacity: 1;"/><path class="point" transform="translate(500.41,798.12)" d="M1.25,0A1.25,1.25 0 1,1 0,-1.25A1.25,1.25 0 0,1 1.25,0Z" style="opacity: 0.85; stroke-width: 0px; fill: rgb(25, 25, 112); fill-opacity: 1;"/><path class="point" transform="translate(503.89,782.11)" d="M1.25,0A1.25,1.25 0 1,1 0,-1.25A1.25,1.25 0 0,1 1.25,0Z" style="opacity: 0.85; stroke-width: 0px; fill: rgb(25, 25, 112); fill-opacity: 1;"/><path class="point" transform="translate(498.37,774.1)" d="M1.25,0A1.25,1.25 0 1,1 0,-1.25A1.25,1.25 0 0,1 1.25,0Z" style="opacity: 0.85; stroke-width: 0px; fill: rgb(25, 25, 112); fill-opacity: 1;"/><path class="point" transform="translate(499.7,758.09)" d="M1.25,0A1.25,1.25 0 1,1 0,-1.25A1.25,1.25 0 0,1 1.25,0Z" style="opacity: 0.85; stroke-width: 0px; fill: rgb(25, 25, 112); fill-opacity: 1;"/><path class="point" transform="translate(504.36,750.09)" d="M1.25,0A1.25,1.25 0 1,1 0,-1.25A1.25,1.25 0 0,1 1.25,0Z" style="opacity: 0.85; stroke-width: 0px; fill: rgb(25, 25, 112); fill-opacity: 1;"/><path class="point" transform="translate(500.91,750.09)" d="M1.25,0A1.25,1.25 0 1,1 0,-1.25A1.25,1.25 0 0,1 1.25,0Z" style="opacity: 0.85; stroke-width: 0px; fill: rgb(25, 25, 112); fill-opacity: 1;"/><path class="point" transform="translate(498.89,742.08)" d="M1.25,0A1.25,1.25 0 1,1 0,-1.25A1.25,1.25 0 0,1 1.25,0Z" style="opacity: 0.85; stroke-width: 0px; fill: rgb(25, 25, 112); fill-opacity: 1;"/><path class="point" transform="translate(500.59,734.08)" d="M1.25,0A1.25,1.25 0 1,1 0,-1.25A1.25,1.25 0 0,1 1.25,0Z" style="opacity: 0.85; stroke-width: 0px; fill: rgb(25, 25, 112); fill-opacity: 1;"/><path class="point" transform="translate(501.57,726.07)" d="M1.25,0A1.25,1.25 0 1,1 0,-1.25A1.25,1.25 0 0,1 1.25,0Z" style="opacity: 0.85; stroke-width: 0px; fill: rgb(25, 25, 112); fill-opacity: 1;"/><path class="point" transform="translate(503.24,702.05)" d="M1.25,0A1.25,1.25 0 1,1 0,-1.25A1.25,1.25 0 0,1 1.25,0Z" style="opacity: 0.85; stroke-width: 0px; fill: rgb(25, 25, 112); fill-opacity: 1;"/><path class="point" transform="translate(502.04,694.05)" d="M1.25,0A1.25,1.25 0 1,1 0,-1.25A1.25,1.25 0 0,1 1.25,0Z" style="opacity: 0.85; stroke-width: 0px; fill: rgb(25, 25, 112); fill-opacity: 1;"/><path class="point" transform="translate(500.58,694.05)" d="M1.25,0A1.25,1.25 0 1,1 0,-1.25A1.25,1.25 0 0,1 1.25,0Z" style="opacity: 0.85; stroke-width: 0px; fill: rgb(25, 25, 112); fill-opacity: 1;"/><path class="point" transform="translate(498.5,686.04)" d="M1.25,0A1.25,1.25 0 1,1 0,-1.25A1.25,1.25 0 0,1 1.25,0Z" style="opacity: 0.85; stroke-width: 0px; fill: rgb(25, 25, 112); fill-opacity: 1;"/><path class="point" transform="translate(501.63,686.04)" d="M1.25,0A1.25,1.25 0 1,1 0,-1.25A1.25,1.25 0 0,1 1.25,0Z" style="opacity: 0.85; stroke-width: 0px; fill: rgb(25, 25, 112); fill-opacity: 1;"/><path class="point" transform="translate(500.26,678.03)" d="M1.25,0A1.25,1.25 0 1,1 0,-1.25A1.25,1.25 0 0,1 1.25,0Z" style="opacity: 0.85; stroke-width: 0px; fill: rgb(25, 25, 112); fill-opacity: 1;"/><path class="point" transform="translate(503.86,678.03)" d="M1.25,0A1.25,1.25 0 1,1 0,-1.25A1.25,1.25 0 0,1 1.25,0Z" style="opacity: 0.85; stroke-width: 0px; fill: rgb(25, 25, 112); fill-opacity: 1;"/><path class="point" transform="translate(501.22,678.03)" d="M1.25,0A1.25,1.25 0 1,1 0,-1.25A1.25,1.25 0 0,1 1.25,0Z" style="opacity: 0.85; stroke-width: 0px; fill: rgb(25, 25, 112); fill-opacity: 1;"/><path class="point" transform="translate(498.17,670.03)" d="M1.25,0A1.25,1.25 0 1,1 0,-1.25A1.25,1.25 0 0,1 1.25,0Z" style="opacity: 0.85; stroke-width: 0px; fill: rgb(25, 25, 112); fill-opacity: 1;"/><path class="point" transform="translate(496.69,662.02)" d="M1.25,0A1.25,1.25 0 1,1 0,-1.25A1.25,1.25 0 0,1 1.25,0Z" style="opacity: 0.85; stroke-width: 0px; fill: rgb(25, 25, 112); fill-opacity: 1;"/><path class="point" transform="translate(504.64,662.02)" d="M1.25,0A1.25,1.25 0 1,1 0,-1.25A1.25,1.25 0 0,1 1.25,0Z" style="opacity: 0.85; stroke-width: 0px; fill: rgb(25, 25, 112); fill-opacity: 1;"/><path class="point" transform="translate(497.58,654.02)" d="M1.25,0A1.25,1.25 0 1,1 0,-1.25A1.25,1.25 0 0,1 1.25,0Z" style="opacity: 0.85; stroke-width: 0px; fill: rgb(25, 25, 112); fill-opacity: 1;"/><path class="point" transform="translate(504.22,654.02)" d="M1.25,0A1.25,1.25 0 1,1 0,-1.25A1.25,1.25 0 0,1 1.25,0Z" style="opacity: 0.85; stroke-width: 0px; fill: rgb(25, 25, 112); fill-opacity: 1;"/><path class="point" transform="translate(502.38,654.02)" d="M1.25,0A1.25,1.25 0 1,1 0,-1.25A1.25,1.25 0 0,1 1.25,0Z" style="opacity: 0.85; stroke-width: 0px; fill: rgb(25, 25, 112); fill-opacity: 1;"/><path class="point" transform="translate(500.69,654.02)" d="M1.25,0A1.25,1.25 0 1,1 0,-1.25A1.25,1.25 0 0,1 1.25,0Z" style="opacity: 0.85; stroke-width: 0px; fill: rgb(25, 25, 112); fill-opacity: 1;"/><path class="point" transform="translate(499.75,646.01)" d="M1.25,0A1.25,1.25 0 1,1 0,-1.25A1.25,1.25 0 0,1 1.25,0Z" style="opacity: 0.85; stroke-width: 0px; fill: rgb(25, 25, 112); fill-opacity: 1;"/><path class="point" transform="translate(503.16,638.01)" d="M1.25,0A1.25,1.25 0 1,1 0,-1.25A1.25,1.25 0 0,1 1.25,0Z" style="opacity: 0.85; stroke-width: 0px; fill: rgb(25, 25, 112); fill-opacity: 1;"/><path class="point" transform="translate(501.32,630)" d="M1.25,0A1.25,1.25 0 1,1 0,-1.25A1.25,1.25 0 0,1 1.25,0Z" style="opacity: 0.85; stroke-width: 0px; fill: rgb(25, 25, 112); fill-opacity: 1;"/><path class="point" transform="translate(503.75,589.97)" d="M1.25,0A1.25,1.25 0 1,1 0,-1.25A1.25,1.25 0 0,1 1.25,0Z" style="opacity: 0.85; stroke-width: 0px; fill: rgb(25, 25, 112); fill-opacity: 1;"/><path class="point" transform="translate(499.17,573.96)" d="M1.25,0A1.25,1.25 0 1,1 0,-1.25A1.25,1.25 0 0,1 1.25,0Z" style="opacity: 0.85; stroke-width: 0px; fill: rgb(25, 25, 112); fill-opacity: 1;"/><path class="point" transform="translate(503.6,573.96)" d="M1.25,0A1.25,1.25 0 1,1 0,-1.25A1.25,1.25 0 0,1 1.25,0Z" style="opacity: 0.85; stroke-width: 0px; fill: rgb(25, 25, 112); fill-opacity: 1;"/><path class="point" transform="translate(501.38,573.96)" d="M1.25,0A1.25,1.25 0 1,1 0,-1.25A1.25,1.25 0 0,1 1.25,0Z" style="opacity: 0.85; stroke-width: 0px; fill: rgb(25, 25, 112); fill-opacity: 1;"/><path class="point" transform="translate(500.32,557.95)" d="M1.25,0A1.25,1.25 0 1,1 0,-1.25A1.25,1.25 0 0,1 1.25,0Z" style="opacity: 0.85; stroke-width: 0px; fill: rgb(25, 25, 112); fill-opacity: 1;"/><path class="point" transform="translate(497.37,557.95)" d="M1.25,0A1.25,1.25 0 1,1 0,-1.25A1.25,1.25 0 0,1 1.25,0Z" style="opacity: 0.85; stroke-width: 0px; fill: rgb(25, 25, 112); fill-opacity: 1;"/><path class="point" transform="translate(499.95,549.94)" d="M1.25,0A1.25,1.25 0 1,1 0,-1.25A1.25,1.25 0 0,1 1.25,0Z" style="opacity: 0.85; stroke-width: 0px; fill: rgb(25, 25, 112); fill-opacity: 1;"/><path class="point" transform="translate(503.61,549.94)" d="M1.25,0A1.25,1.25 0 1,1 0,-1.25A1.25,1.25 0 0,1 1.25,0Z" style="opacity: 0.85; stroke-width: 0px; fill: rgb(25, 25, 112); fill-opacity: 1;"/><path class="point" transform="translate(500.96,549.94)" d="M1.25,0A1.25,1.25 0 1,1 0,-1.25A1.25,1.25 0 0,1 1.25,0Z" style="opacity: 0.85; stroke-width: 0px; fill: rgb(25, 25, 112); fill-opacity: 1;"/><path class="point" transform="translate(499.51,549.94)" d="M1.25,0A1.25,1.25 0 1,1 0,-1.25A1.25,1.25 0 0,1 1.25,0Z" style="opacity: 0.85; stroke-width: 0px; fill: rgb(25, 25, 112); fill-opacity: 1;"/><path class="point" transform="translate(502.89,541.94)" d="M1.25,0A1.25,1.25 0 1,1 0,-1.25A1.25,1.25 0 0,1 1.25,0Z" style="opacity: 0.85; stroke-width: 0px; fill: rgb(25, 25, 112); fill-opacity: 1;"/><path class="point" transform="translate(500.22,525.92)" d="M1.25,0A1.25,1.25 0 1,1 0,-1.25A1.25,1.25 0 0,1 1.25,0Z" style="opacity: 0.85; stroke-width: 0px; fill: rgb(25, 25, 112); fill-opacity: 1;"/><path class="point" transform="translate(501.64,469.88)" d="M1.25,0A1.25,1.25 0 1,1 0,-1.25A1.25,1.25 0 0,1 1.25,0Z" style="opacity: 0.85; stroke-width: 0px; fill: rgb(25, 25, 112); fill-opacity: 1;"/><path class="point" transform="translate(502.66,461.88)" d="M1.25,0A1.25,1.25 0 1,1 0,-1.25A1.25,1.25 0 0,1 1.25,0Z" style="opacity: 0.85; stroke-width: 0px; fill: rgb(25, 25, 112); fill-opacity: 1;"/><path class="point" transform="translate(499.44,437.86)" d="M1.25,0A1.25,1.25 0 1,1 0,-1.25A1.25,1.25 0 0,1 1.25,0Z" style="opacity: 0.85; stroke-width: 0px; fill: rgb(25, 25, 112); fill-opacity: 1;"/><path class="point" transform="translate(503.71,421.85)" d="M1.25,0A1.25,1.25 0 1,1 0,-1.25A1.25,1.25 0 0,1 1.25,0Z" style="opacity: 0.85; stroke-width: 0px; fill: rgb(25, 25, 112); fill-opacity: 1;"/><path class="point" transform="translate(502.55,421.85)" d="M1.25,0A1.25,1.25 0 1,1 0,-1.25A1.25,1.25 0 0,1 1.25,0Z" style="opacity: 0.85; stroke-width: 0px; fill: rgb(25, 25, 112); fill-opacity: 1;"/><path class="point" transform="translate(499.37,421.85)" d="M1.25,0A1.25,1.25 0 1,1 0,-1.25A1.25,1.25 0 0,1 1.25,0Z" style="opacity: 0.85; stroke-width: 0px; fill: rgb(25, 25, 112); fill-opacity: 1;"/><path class="point" transform="translate(503.61,389.83)" d="M1.25,0A1.25,1.25 0 1,1 0,-1.25A1.25,1.25 0 0,1 1.25,0Z" style="opacity: 0.85; stroke-width: 0px; fill: rgb(25, 25, 112); fill-opacity: 1;"/><path class="point" transform="translate(499.69,373.81)" d="M1.25,0A1.25,1.25 0 1,1 0,-1.25A1.25,1.25 0 0,1 1.25,0Z" style="opacity: 0.85; stroke-width: 0px; fill: rgb(25, 25, 112); fill-opacity: 1;"/></g></g><g class="trace violins" style="opacity: 0.8;"><path class="violin" d="M810.82,1197Q811.39,1176 811.83,1165.5C812.27,1155 812.8,1144.5 813.48,1134C814.16,1123.5 814.96,1112.99 815.89,1102.5C816.82,1091.99 817.9,1081.5 819.04,1071C820.18,1060.5 821.47,1050 822.73,1039.5C823.99,1029 825.33,1018.5 826.6,1008C827.86,997.5 829.14,987 830.32,976.5C831.5,966 832.61,955.5 833.68,945C834.75,934.5 835.72,924 836.73,913.5C837.74,903 838.69,892.5 839.72,882C840.75,871.5 841.81,861 842.93,850.5C844.05,840 845.25,829.5 846.43,819C847.61,808.5 848.88,798 849.99,787.5C851.1,777 852.22,766.51 853.1,756C853.98,745.51 854.72,735 855.26,724.5C855.8,714 856.11,703.5 856.32,693C856.53,682.5 856.5,672 856.5,661.5C856.5,651 856.37,640.5 856.32,630C856.27,619.5 856.21,609 856.2,598.5C856.19,588 856.25,577.5 856.25,567C856.25,556.5 856.3,546 856.2,535.5C856.1,525 855.96,514.5 855.65,504C855.33,493.5 854.91,483 854.31,472.5C853.71,462 852.96,451.49 852.07,441C851.18,430.49 850.13,419.99 848.98,409.5C847.82,398.99 846.53,388.49 845.14,378C843.75,367.49 842.23,356.99 840.66,346.5C839.08,335.99 837.39,325.5 835.69,315C833.99,304.5 832.19,294 830.48,283.5C828.77,273 827.02,262.51 825.41,252C823.8,241.51 822.23,231.01 820.84,220.5C819.45,210.01 818.18,199.51 817.08,189C815.98,178.51 815.04,168.01 814.25,157.5C813.46,147.01 812.84,136.5 812.32,126C811.8,115.5 811.43,105 811.11,94.5Q810.8,84 810.43,63L809.19,63Q808.82,84 808.51,94.5C808.19,105 807.82,115.5 807.3,126C806.77,136.5 806.15,147.01 805.36,157.5C804.57,168.01 803.64,178.51 802.54,189C801.44,199.51 800.16,210.01 798.77,220.5C797.38,231.01 795.82,241.51 794.21,252C792.6,262.51 790.84,273 789.13,283.5C787.42,294 785.63,304.5 783.93,315C782.24,325.5 780.54,335.99 778.96,346.5C777.39,356.99 775.87,367.49 774.48,378C773.09,388.49 771.8,398.99 770.64,409.5C769.49,419.99 768.44,430.49 767.55,441C766.66,451.49 765.91,462 765.31,472.5C764.71,483 764.29,493.5 763.97,504C763.66,514.5 763.52,525 763.42,535.5C763.32,546 763.37,556.5 763.37,567C763.37,577.5 763.42,588 763.41,598.5C763.4,609 763.35,619.5 763.3,630C763.25,640.5 763.12,651 763.12,661.5C763.12,672 763.1,682.5 763.3,693C763.5,703.5 763.81,714 764.35,724.5C764.89,735 765.64,745.51 766.52,756C767.4,766.51 768.52,777 769.63,787.5C770.74,798 772.01,808.5 773.19,819C774.37,829.5 775.57,840 776.69,850.5C777.81,861 778.87,871.5 779.9,882C780.93,892.5 781.88,903 782.89,913.5C783.9,924 784.87,934.5 785.94,945C787.01,955.5 788.12,966 789.3,976.5C790.48,987 791.75,997.5 793.01,1008C794.28,1018.5 795.63,1029 796.89,1039.5C798.15,1050 799.43,1060.5 800.57,1071C801.71,1081.5 802.79,1091.99 803.72,1102.5C804.65,1112.99 805.45,1123.5 806.13,1134C806.81,1144.5 807.34,1155 807.78,1165.5Q808.22,1176 808.79,1197Z" style="vector-effect: non-scaling-stroke; stroke-width: 1.5px; stroke: rgb(85, 107, 47); stroke-opacity: 1; fill: rgb(85, 107, 47); fill-opacity: 0.5;"/><path class="box" d="M804.5,634H815.12M804.5,758.09H815.12V461.88H804.5ZM809.81,758.09V1006.27M809.81,461.88V253.73" style="vector-effect: non-scaling-stroke; stroke-width: 1.5px; stroke: rgb(85, 107, 47); stroke-opacity: 1; fill: rgb(255, 255, 255); fill-opacity: 1;"/><path class="mean" d="M804.5,627.52H815.12" style="fill: none; vector-effect: non-scaling-stroke; stroke-width: 1.5px; stroke-dasharray: 3px, 1.5px; stroke: rgb(85, 107, 47); stroke-opacity: 1;"/><g class="points"><path class="point" transform="translate(731.93,1006.27)" d="M1.25,0A1.25,1.25 0 1,1 0,-1.25A1.25,1.25 0 0,1 1.25,0Z" style="opacity: 0.85; stroke-width: 0px; fill: rgb(85, 107, 47); fill-opacity: 1;"/><path class="point" transform="translate(728.02,1006.27)" d="M1.25,0A1.25,1.25 0 1,1 0,-1.25A1.25,1.25 0 0,1 1.25,0Z" style="opacity: 0.85; stroke-width: 0px; fill: rgb(85, 107, 47); fill-opacity: 1;"/><path class="point" transform="translate(732.32,974.25)" d="M1.25,0A1.25,1.25 0 1,1 0,-1.25A1.25,1.25 0 0,1 1.25,0Z" style="opacity: 0.85; stroke-width: 0px; fill: rgb(85, 107, 47); fill-opacity: 1;"/><path class="point" transform="translate(727.53,958.24)" d="M1.25,0A1.25,1.25 0 1,1 0,-1.25A1.25,1.25 0 0,1 1.25,0Z" style="opacity: 0.85; stroke-width: 0px; fill: rgb(85, 107, 47); fill-opacity: 1;"/><path class="point" transform="translate(729.36,950.23)" d="M1.25,0A1.25,1.25 0 1,1 0,-1.25A1.25,1.25 0 0,1 1.25,0Z" style="opacity: 0.85; stroke-width: 0px; fill: rgb(85, 107, 47); fill-opacity: 1;"/><path class="point" transform="translate(731.72,942.23)" d="M1.25,0A1.25,1.25 0 1,1 0,-1.25A1.25,1.25 0 0,1 1.25,0Z" style="opacity: 0.85; stroke-width: 0px; fill: rgb(85, 107, 47); fill-opacity: 1;"/><path class="point" transform="translate(730,918.21)" d="M1.25,0A1.25,1.25 0 1,1 0,-1.25A1.25,1.25 0 0,1 1.25,0Z" style="opacity: 0.85; stroke-width: 0px; fill: rgb(85, 107, 47); fill-opacity: 1;"/><path class="point" transform="translate(730.93,870.17)" d="M1.25,0A1.25,1.25 0 1,1 0,-1.25A1.25,1.25 0 0,1 1.25,0Z" style="opacity: 0.85; stroke-width: 0px; fill: rgb(85, 107, 47); fill-opacity: 1;"/><path class="point" transform="translate(729.2,870.17)" d="M1.25,0A1.25,1.25 0 1,1 0,-1.25A1.25,1.25 0 0,1 1.25,0Z" style="opacity: 0.85; stroke-width: 0px; fill: rgb(85, 107, 47); fill-opacity: 1;"/><path class="point" transform="translate(728.01,854.16)" d="M1.25,0A1.25,1.25 0 1,1 0,-1.25A1.25,1.25 0 0,1 1.25,0Z" style="opacity: 0.85; stroke-width: 0px; fill: rgb(85, 107, 47); fill-opacity: 1;"/><path class="point" transform="translate(730.86,838.15)" d="M1.25,0A1.25,1.25 0 1,1 0,-1.25A1.25,1.25 0 0,1 1.25,0Z" style="opacity: 0.85; stroke-width: 0px; fill: rgb(85, 107, 47); fill-opacity: 1;"/><path class="point" transform="translate(729.12,838.15)" d="M1.25,0A1.25,1.25 0 1,1 0,-1.25A1.25,1.25 0 0,1 1.25,0Z" style="opacity: 0.85; stroke-width: 0px; fill: rgb(85, 107, 47); fill-opacity: 1;"/><path class="point" transform="translate(732.27,774.1)" d="M1.25,0A1.25,1.25 0 1,1 0,-1.25A1.25,1.25 0 0,1 1.25,0Z" style="opacity: 0.85; stroke-width: 0px; fill: rgb(85, 107, 47); fill-opacity: 1;"/><path class="point" transform="translate(726.89,766.1)" d="M1.25,0A1.25,1.25 0 1,1 0,-1.25A1.25,1.25 0 0,1 1.25,0Z" style="opacity: 0.85; stroke-width: 0px; fill: rgb(85, 107, 47); fill-opacity: 1;"/><path class="point" transform="translate(728.08,758.09)" d="M1.25,0A1.25,1.25 0 1,1 0,-1.25A1.25,1.25 0 0,1 1.25,0Z" style="opacity: 0.85; stroke-width: 0px; fill: rgb(85, 107, 47); fill-opacity: 1;"/><path class="point" transform="translate(733.43,742.08)" d="M1.25,0A1.25,1.25 0 1,1 0,-1.25A1.25,1.25 0 0,1 1.25,0Z" style="opacity: 0.85; stroke-width: 0px; fill: rgb(85, 107, 47); fill-opacity: 1;"/><path class="point" transform="translate(729.23,742.08)" d="M1.25,0A1.25,1.25 0 1,1 0,-1.25A1.25,1.25 0 0,1 1.25,0Z" style="opacity: 0.85; stroke-width: 0px; fill: rgb(85, 107, 47); fill-opacity: 1;"/><path class="point" transform="translate(726.09,734.08)" d="M1.25,0A1.25,1.25 0 1,1 0,-1.25A1.25,1.25 0 0,1 1.25,0Z" style="opacity: 0.85; stroke-width: 0px; fill: rgb(85, 107, 47); fill-opacity: 1;"/><path class="point" transform="translate(728.47,726.07)" d="M1.25,0A1.25,1.25 0 1,1 0,-1.25A1.25,1.25 0 0,1 1.25,0Z" style="opacity: 0.85; stroke-width: 0px; fill: rgb(85, 107, 47); fill-opacity: 1;"/><path class="point" transform="translate(730.01,726.07)" d="M1.25,0A1.25,1.25 0 1,1 0,-1.25A1.25,1.25 0 0,1 1.25,0Z" style="opacity: 0.85; stroke-width: 0px; fill: rgb(85, 107, 47); fill-opacity: 1;"/><path class="point" transform="translate(732.5,726.07)" d="M1.25,0A1.25,1.25 0 1,1 0,-1.25A1.25,1.25 0 0,1 1.25,0Z" style="opacity: 0.85; stroke-width: 0px; fill: rgb(85, 107, 47); fill-opacity: 1;"/><path class="point" transform="translate(730.66,710.06)" d="M1.25,0A1.25,1.25 0 1,1 0,-1.25A1.25,1.25 0 0,1 1.25,0Z" style="opacity: 0.85; stroke-width: 0px; fill: rgb(85, 107, 47); fill-opacity: 1;"/><path class="point" transform="translate(728.92,702.05)" d="M1.25,0A1.25,1.25 0 1,1 0,-1.25A1.25,1.25 0 0,1 1.25,0Z" style="opacity: 0.85; stroke-width: 0px; fill: rgb(85, 107, 47); fill-opacity: 1;"/><path class="point" transform="translate(726.4,702.05)" d="M1.25,0A1.25,1.25 0 1,1 0,-1.25A1.25,1.25 0 0,1 1.25,0Z" style="opacity: 0.85; stroke-width: 0px; fill: rgb(85, 107, 47); fill-opacity: 1;"/><path class="point" transform="translate(730.1,694.05)" d="M1.25,0A1.25,1.25 0 1,1 0,-1.25A1.25,1.25 0 0,1 1.25,0Z" style="opacity: 0.85; stroke-width: 0px; fill: rgb(85, 107, 47); fill-opacity: 1;"/><path class="point" transform="translate(729.08,686.04)" d="M1.25,0A1.25,1.25 0 1,1 0,-1.25A1.25,1.25 0 0,1 1.25,0Z" style="opacity: 0.85; stroke-width: 0px; fill: rgb(85, 107, 47); fill-opacity: 1;"/><path class="point" transform="translate(731.65,678.03)" d="M1.25,0A1.25,1.25 0 1,1 0,-1.25A1.25,1.25 0 0,1 1.25,0Z" style="opacity: 0.85; stroke-width: 0px; fill: rgb(85, 107, 47); fill-opacity: 1;"/><path class="point" transform="translate(729.82,646.01)" d="M1.25,0A1.25,1.25 0 1,1 0,-1.25A1.25,1.25 0 0,1 1.25,0Z" style="opacity: 0.85; stroke-width: 0px; fill: rgb(85, 107, 47); fill-opacity: 1;"/><path class="point" transform="translate(728.05,646.01)" d="M1.25,0A1.25,1.25 0 1,1 0,-1.25A1.25,1.25 0 0,1 1.25,0Z" style="opacity: 0.85; stroke-width: 0px; fill: rgb(85, 107, 47); fill-opacity: 1;"/><path class="point" transform="translate(727.1,621.99)" d="M1.25,0A1.25,1.25 0 1,1 0,-1.25A1.25,1.25 0 0,1 1.25,0Z" style="opacity: 0.85; stroke-width: 0px; fill: rgb(85, 107, 47); fill-opacity: 1;"/><path class="point" transform="translate(731.98,597.98)" d="M1.25,0A1.25,1.25 0 1,1 0,-1.25A1.25,1.25 0 0,1 1.25,0Z" style="opacity: 0.85; stroke-width: 0px; fill: rgb(85, 107, 47); fill-opacity: 1;"/><path class="point" transform="translate(727.28,565.95)" d="M1.25,0A1.25,1.25 0 1,1 0,-1.25A1.25,1.25 0 0,1 1.25,0Z" style="opacity: 0.85; stroke-width: 0px; fill: rgb(85, 107, 47); fill-opacity: 1;"/><path class="point" transform="translate(732.34,557.95)" d="M1.25,0A1.25,1.25 0 1,1 0,-1.25A1.25,1.25 0 0,1 1.25,0Z" style="opacity: 0.85; stroke-width: 0px; fill: rgb(85, 107, 47); fill-opacity: 1;"/><path class="point" transform="translate(730.9,541.94)" d="M1.25,0A1.25,1.25 0 1,1 0,-1.25A1.25,1.25 0 0,1 1.25,0Z" style="opacity: 0.85; stroke-width: 0px; fill: rgb(85, 107, 47); fill-opacity: 1;"/><path class="point" transform="translate(728.9,541.94)" d="M1.25,0A1.25,1.25 0 1,1 0,-1.25A1.25,1.25 0 0,1 1.25,0Z" style="opacity: 0.85; stroke-width: 0px; fill: rgb(85, 107, 47); fill-opacity: 1;"/><path class="point" transform="translate(727.48,541.94)" d="M1.25,0A1.25,1.25 0 1,1 0,-1.25A1.25,1.25 0 0,1 1.25,0Z" style="opacity: 0.85; stroke-width: 0px; fill: rgb(85, 107, 47); fill-opacity: 1;"/><path class="point" transform="translate(732.23,533.93)" d="M1.25,0A1.25,1.25 0 1,1 0,-1.25A1.25,1.25 0 0,1 1.25,0Z" style="opacity: 0.85; stroke-width: 0px; fill: rgb(85, 107, 47); fill-opacity: 1;"/><path class="point" transform="translate(729.66,533.93)" d="M1.25,0A1.25,1.25 0 1,1 0,-1.25A1.25,1.25 0 0,1 1.25,0Z" style="opacity: 0.85; stroke-width: 0px; fill: rgb(85, 107, 47); fill-opacity: 1;"/><path class="point" transform="translate(733.16,525.92)" d="M1.25,0A1.25,1.25 0 1,1 0,-1.25A1.25,1.25 0 0,1 1.25,0Z" style="opacity: 0.85; stroke-width: 0px; fill: rgb(85, 107, 47); fill-opacity: 1;"/><path class="point" transform="translate(726.37,525.92)" d="M1.25,0A1.25,1.25 0 1,1 0,-1.25A1.25,1.25 0 0,1 1.25,0Z" style="opacity: 0.85; stroke-width: 0px; fill: rgb(85, 107, 47); fill-opacity: 1;"/><path class="point" transform="translate(732.7,517.92)" d="M1.25,0A1.25,1.25 0 1,1 0,-1.25A1.25,1.25 0 0,1 1.25,0Z" style="opacity: 0.85; stroke-width: 0px; fill: rgb(85, 107, 47); fill-opacity: 1;"/><path class="point" transform="translate(729.79,493.9)" d="M1.25,0A1.25,1.25 0 1,1 0,-1.25A1.25,1.25 0 0,1 1.25,0Z" style="opacity: 0.85; stroke-width: 0px; fill: rgb(85, 107, 47); fill-opacity: 1;"/><path class="point" transform="translate(728.64,469.88)" d="M1.25,0A1.25,1.25 0 1,1 0,-1.25A1.25,1.25 0 0,1 1.25,0Z" style="opacity: 0.85; stroke-width: 0px; fill: rgb(85, 107, 47); fill-opacity: 1;"/><path class="point" transform="translate(726.54,461.88)" d="M1.25,0A1.25,1.25 0 1,1 0,-1.25A1.25,1.25 0 0,1 1.25,0Z" style="opacity: 0.85; stroke-width: 0px; fill: rgb(85, 107, 47); fill-opacity: 1;"/><path class="point" transform="translate(728.69,461.88)" d="M1.25,0A1.25,1.25 0 1,1 0,-1.25A1.25,1.25 0 0,1 1.25,0Z" style="opacity: 0.85; stroke-width: 0px; fill: rgb(85, 107, 47); fill-opacity: 1;"/><path class="point" transform="translate(732.21,445.87)" d="M1.25,0A1.25,1.25 0 1,1 0,-1.25A1.25,1.25 0 0,1 1.25,0Z" style="opacity: 0.85; stroke-width: 0px; fill: rgb(85, 107, 47); fill-opacity: 1;"/><path class="point" transform="translate(729.3,429.86)" d="M1.25,0A1.25,1.25 0 1,1 0,-1.25A1.25,1.25 0 0,1 1.25,0Z" style="opacity: 0.85; stroke-width: 0px; fill: rgb(85, 107, 47); fill-opacity: 1;"/><path class="point" transform="translate(727.29,421.85)" d="M1.25,0A1.25,1.25 0 1,1 0,-1.25A1.25,1.25 0 0,1 1.25,0Z" style="opacity: 0.85; stroke-width: 0px; fill: rgb(85, 107, 47); fill-opacity: 1;"/><path class="point" transform="translate(731.87,405.84)" d="M1.25,0A1.25,1.25 0 1,1 0,-1.25A1.25,1.25 0 0,1 1.25,0Z" style="opacity: 0.85; stroke-width: 0px; fill: rgb(85, 107, 47); fill-opacity: 1;"/><path class="point" transform="translate(728.17,405.84)" d="M1.25,0A1.25,1.25 0 1,1 0,-1.25A1.25,1.25 0 0,1 1.25,0Z" style="opacity: 0.85; stroke-width: 0px; fill: rgb(85, 107, 47); fill-opacity: 1;"/><path class="point" transform="translate(730.11,357.8)" d="M1.25,0A1.25,1.25 0 1,1 0,-1.25A1.25,1.25 0 0,1 1.25,0Z" style="opacity: 0.85; stroke-width: 0px; fill: rgb(85, 107, 47); fill-opacity: 1;"/><path class="point" transform="translate(731.57,357.8)" d="M1.25,0A1.25,1.25 0 1,1 0,-1.25A1.25,1.25 0 0,1 1.25,0Z" style="opacity: 0.85; stroke-width: 0px; fill: rgb(85, 107, 47); fill-opacity: 1;"/><path class="point" transform="translate(727.13,349.8)" d="M1.25,0A1.25,1.25 0 1,1 0,-1.25A1.25,1.25 0 0,1 1.25,0Z" style="opacity: 0.85; stroke-width: 0px; fill: rgb(85, 107, 47); fill-opacity: 1;"/><path class="point" transform="translate(732.98,341.79)" d="M1.25,0A1.25,1.25 0 1,1 0,-1.25A1.25,1.25 0 0,1 1.25,0Z" style="opacity: 0.85; stroke-width: 0px; fill: rgb(85, 107, 47); fill-opacity: 1;"/><path class="point" transform="translate(731.31,341.79)" d="M1.25,0A1.25,1.25 0 1,1 0,-1.25A1.25,1.25 0 0,1 1.25,0Z" style="opacity: 0.85; stroke-width: 0px; fill: rgb(85, 107, 47); fill-opacity: 1;"/><path class="point" transform="translate(727.23,309.77)" d="M1.25,0A1.25,1.25 0 1,1 0,-1.25A1.25,1.25 0 0,1 1.25,0Z" style="opacity: 0.85; stroke-width: 0px; fill: rgb(85, 107, 47); fill-opacity: 1;"/><path class="point" transform="translate(732.5,293.76)" d="M1.25,0A1.25,1.25 0 1,1 0,-1.25A1.25,1.25 0 0,1 1.25,0Z" style="opacity: 0.85; stroke-width: 0px; fill: rgb(85, 107, 47); fill-opacity: 1;"/><path class="point" transform="translate(728,253.73)" d="M1.25,0A1.25,1.25 0 1,1 0,-1.25A1.25,1.25 0 0,1 1.25,0Z" style="opacity: 0.85; stroke-width: 0px; fill: rgb(85, 107, 47); fill-opacity: 1;"/></g></g><g class="trace violins" style="opacity: 0.8;"><path class="violin" d="M1025.87,1159.36Q1027.87,1143.56 1029.42,1135.71C1030.98,1127.79 1032.87,1119.88 1035.22,1112.06C1037.6,1104.12 1040.47,1096.23 1043.65,1088.42C1046.88,1080.47 1050.66,1072.61 1054.49,1064.77C1058.36,1056.84 1062.7,1049.01 1066.76,1041.12C1070.81,1033.24 1075.11,1025.42 1078.82,1017.47C1082.47,1009.65 1086.06,1001.8 1088.89,993.83C1091.66,986.03 1094.03,978.12 1095.71,970.18C1097.36,962.36 1098.36,954.43 1098.93,946.53C1099.5,938.66 1099.4,930.76 1099.14,922.88C1098.88,914.99 1098.14,907.11 1097.39,899.24C1096.64,891.35 1095.63,883.47 1094.62,875.59C1093.61,867.7 1092.51,859.82 1091.32,851.94C1090.13,844.05 1088.89,836.16 1087.5,828.29C1086.1,820.4 1084.61,812.52 1082.94,804.65C1081.27,796.75 1079.42,788.87 1077.47,781C1075.51,773.1 1073.35,765.22 1071.19,757.35C1069.03,749.46 1066.7,741.6 1064.51,733.71C1062.32,725.83 1060.07,717.96 1058.06,710.06C1056.06,702.19 1054.12,694.32 1052.48,686.41C1050.85,678.55 1049.4,670.66 1048.22,662.76C1047.05,654.9 1046.15,647.01 1045.43,639.12C1044.71,631.25 1044.28,623.36 1043.92,615.47C1043.56,607.59 1043.43,599.7 1043.29,591.82C1043.15,583.94 1043.14,576.05 1043.06,568.17C1042.98,560.29 1042.93,552.41 1042.79,544.53C1042.64,536.65 1042.47,528.76 1042.19,520.88C1041.91,513 1041.56,505.11 1041.12,497.23C1040.68,489.34 1040.14,481.46 1039.54,473.58C1038.94,465.7 1038.26,457.82 1037.54,449.94C1036.82,442.06 1036.02,434.17 1035.23,426.29C1034.43,418.41 1033.59,410.52 1032.77,402.64C1031.95,394.76 1031.1,386.88 1030.32,379C1029.54,371.12 1028.76,363.24 1028.07,355.35C1027.38,347.47 1026.72,339.59 1026.16,331.7C1025.6,323.82 1025.12,315.93 1024.7,308.05C1024.29,300.17 1023.95,292.29 1023.67,284.41Q1023.39,276.53 1023.02,260.76L1021.65,260.76Q1021.28,276.53 1021,284.41C1020.72,292.29 1020.39,300.17 1019.98,308.05C1019.56,315.93 1019.07,323.82 1018.51,331.7C1017.95,339.59 1017.29,347.47 1016.6,355.35C1015.91,363.24 1015.13,371.12 1014.35,379C1013.57,386.88 1012.73,394.76 1011.91,402.64C1011.09,410.52 1010.24,418.41 1009.44,426.29C1008.64,434.17 1007.85,442.06 1007.13,449.94C1006.41,457.82 1005.73,465.7 1005.13,473.58C1004.54,481.46 1004,489.34 1003.56,497.23C1003.12,505.11 1002.76,513 1002.48,520.88C1002.2,528.76 1002.03,536.65 1001.88,544.53C1001.74,552.41 1001.69,560.29 1001.61,568.17C1001.53,576.05 1001.52,583.94 1001.38,591.82C1001.24,599.7 1001.11,607.59 1000.75,615.47C1000.39,623.36 999.96,631.25 999.24,639.12C998.52,647.01 997.62,654.9 996.45,662.76C995.27,670.66 993.82,678.55 992.19,686.41C990.55,694.32 988.61,702.19 986.61,710.06C984.6,717.96 982.35,725.83 980.16,733.71C977.97,741.6 975.64,749.46 973.48,757.35C971.32,765.22 969.16,773.1 967.2,781C965.25,788.87 963.4,796.75 961.73,804.65C960.06,812.52 958.57,820.4 957.17,828.29C955.78,836.16 954.54,844.05 953.35,851.94C952.16,859.82 951.06,867.7 950.05,875.59C949.04,883.47 948.03,891.35 947.28,899.24C946.53,907.11 945.79,914.99 945.53,922.88C945.27,930.76 945.17,938.66 945.74,946.53C946.31,954.43 947.32,962.36 948.97,970.18C950.65,978.12 953.01,986.03 955.78,993.83C958.61,1001.8 962.2,1009.65 965.85,1017.47C969.56,1025.42 973.86,1033.24 977.91,1041.12C981.97,1049.01 986.31,1056.84 990.18,1064.77C994.01,1072.61 997.8,1080.47 1001.03,1088.42C1004.21,1096.23 1007.07,1104.12 1009.45,1112.06C1011.8,1119.88 1013.69,1127.79 1015.25,1135.71Q1016.8,1143.56 1018.8,1159.36Z" style="vector-effect: non-scaling-stroke; stroke-width: 1.5px; stroke: rgb(128, 0, 128); stroke-opacity: 1; fill: rgb(128, 0, 128); fill-opacity: 0.5;"/><path class="box" d="M1017.02,854.16H1027.65M1017.02,958.24H1027.65V750.09H1017.02ZM1022.34,958.24V1014.28M1022.34,750.09V477.89" style="vector-effect: non-scaling-stroke; stroke-width: 1.5px; stroke: rgb(128, 0, 128); stroke-opacity: 1; fill: rgb(255, 255, 255); fill-opacity: 1;"/><path class="mean" d="M1017.02,824.62H1027.65" style="fill: none; vector-effect: non-scaling-stroke; stroke-width: 1.5px; stroke-dasharray: 3px, 1.5px; stroke: rgb(128, 0, 128); stroke-opacity: 1;"/><g class="points"><path class="point" transform="translate(918.4,1014.28)" d="M1.25,0A1.25,1.25 0 1,1 0,-1.25A1.25,1.25 0 0,1 1.25,0Z" style="opacity: 0.85; stroke-width: 0px; fill: rgb(128, 0, 128); fill-opacity: 1;"/><path class="point" transform="translate(912.94,1006.27)" d="M1.25,0A1.25,1.25 0 1,1 0,-1.25A1.25,1.25 0 0,1 1.25,0Z" style="opacity: 0.85; stroke-width: 0px; fill: rgb(128, 0, 128); fill-opacity: 1;"/><path class="point" transform="translate(920.19,1006.27)" d="M1.25,0A1.25,1.25 0 1,1 0,-1.25A1.25,1.25 0 0,1 1.25,0Z" style="opacity: 0.85; stroke-width: 0px; fill: rgb(128, 0, 128); fill-opacity: 1;"/><path class="point" transform="translate(912.15,1006.27)" d="M1.25,0A1.25,1.25 0 1,1 0,-1.25A1.25,1.25 0 0,1 1.25,0Z" style="opacity: 0.85; stroke-width: 0px; fill: rgb(128, 0, 128); fill-opacity: 1;"/><path class="point" transform="translate(915.02,1006.27)" d="M1.25,0A1.25,1.25 0 1,1 0,-1.25A1.25,1.25 0 0,1 1.25,0Z" style="opacity: 0.85; stroke-width: 0px; fill: rgb(128, 0, 128); fill-opacity: 1;"/><path class="point" transform="translate(918.43,998.27)" d="M1.25,0A1.25,1.25 0 1,1 0,-1.25A1.25,1.25 0 0,1 1.25,0Z" style="opacity: 0.85; stroke-width: 0px; fill: rgb(128, 0, 128); fill-opacity: 1;"/><path class="point" transform="translate(915.88,998.27)" d="M1.25,0A1.25,1.25 0 1,1 0,-1.25A1.25,1.25 0 0,1 1.25,0Z" style="opacity: 0.85; stroke-width: 0px; fill: rgb(128, 0, 128); fill-opacity: 1;"/><path class="point" transform="translate(917.37,998.27)" d="M1.25,0A1.25,1.25 0 1,1 0,-1.25A1.25,1.25 0 0,1 1.25,0Z" style="opacity: 0.85; stroke-width: 0px; fill: rgb(128, 0, 128); fill-opacity: 1;"/><path class="point" transform="translate(914.64,990.26)" d="M1.25,0A1.25,1.25 0 1,1 0,-1.25A1.25,1.25 0 0,1 1.25,0Z" style="opacity: 0.85; stroke-width: 0px; fill: rgb(128, 0, 128); fill-opacity: 1;"/><path class="point" transform="translate(913.39,982.25)" d="M1.25,0A1.25,1.25 0 1,1 0,-1.25A1.25,1.25 0 0,1 1.25,0Z" style="opacity: 0.85; stroke-width: 0px; fill: rgb(128, 0, 128); fill-opacity: 1;"/><path class="point" transform="translate(917.15,982.25)" d="M1.25,0A1.25,1.25 0 1,1 0,-1.25A1.25,1.25 0 0,1 1.25,0Z" style="opacity: 0.85; stroke-width: 0px; fill: rgb(128, 0, 128); fill-opacity: 1;"/><path class="point" transform="translate(914.87,982.25)" d="M1.25,0A1.25,1.25 0 1,1 0,-1.25A1.25,1.25 0 0,1 1.25,0Z" style="opacity: 0.85; stroke-width: 0px; fill: rgb(128, 0, 128); fill-opacity: 1;"/><path class="point" transform="translate(918.4,974.25)" d="M1.25,0A1.25,1.25 0 1,1 0,-1.25A1.25,1.25 0 0,1 1.25,0Z" style="opacity: 0.85; stroke-width: 0px; fill: rgb(128, 0, 128); fill-opacity: 1;"/><path class="point" transform="translate(912.5,974.25)" d="M1.25,0A1.25,1.25 0 1,1 0,-1.25A1.25,1.25 0 0,1 1.25,0Z" style="opacity: 0.85; stroke-width: 0px; fill: rgb(128, 0, 128); fill-opacity: 1;"/><path class="point" transform="translate(913.75,958.24)" d="M1.25,0A1.25,1.25 0 1,1 0,-1.25A1.25,1.25 0 0,1 1.25,0Z" style="opacity: 0.85; stroke-width: 0px; fill: rgb(128, 0, 128); fill-opacity: 1;"/><path class="point" transform="translate(919.32,958.24)" d="M1.25,0A1.25,1.25 0 1,1 0,-1.25A1.25,1.25 0 0,1 1.25,0Z" style="opacity: 0.85; stroke-width: 0px; fill: rgb(128, 0, 128); fill-opacity: 1;"/><path class="point" transform="translate(915.28,950.23)" d="M1.25,0A1.25,1.25 0 1,1 0,-1.25A1.25,1.25 0 0,1 1.25,0Z" style="opacity: 0.85; stroke-width: 0px; fill: rgb(128, 0, 128); fill-opacity: 1;"/><path class="point" transform="translate(913.35,950.23)" d="M1.25,0A1.25,1.25 0 1,1 0,-1.25A1.25,1.25 0 0,1 1.25,0Z" style="opacity: 0.85; stroke-width: 0px; fill: rgb(128, 0, 128); fill-opacity: 1;"/><path class="point" transform="translate(915.02,942.23)" d="M1.25,0A1.25,1.25 0 1,1 0,-1.25A1.25,1.25 0 0,1 1.25,0Z" style="opacity: 0.85; stroke-width: 0px; fill: rgb(128, 0, 128); fill-opacity: 1;"/><path class="point" transform="translate(916,942.23)" d="M1.25,0A1.25,1.25 0 1,1 0,-1.25A1.25,1.25 0 0,1 1.25,0Z" style="opacity: 0.85; stroke-width: 0px; fill: rgb(128, 0, 128); fill-opacity: 1;"/><path class="point" transform="translate(917.35,934.22)" d="M1.25,0A1.25,1.25 0 1,1 0,-1.25A1.25,1.25 0 0,1 1.25,0Z" style="opacity: 0.85; stroke-width: 0px; fill: rgb(128, 0, 128); fill-opacity: 1;"/><path class="point" transform="translate(916.39,918.21)" d="M1.25,0A1.25,1.25 0 1,1 0,-1.25A1.25,1.25 0 0,1 1.25,0Z" style="opacity: 0.85; stroke-width: 0px; fill: rgb(128, 0, 128); fill-opacity: 1;"/><path class="point" transform="translate(915.27,910.2)" d="M1.25,0A1.25,1.25 0 1,1 0,-1.25A1.25,1.25 0 0,1 1.25,0Z" style="opacity: 0.85; stroke-width: 0px; fill: rgb(128, 0, 128); fill-opacity: 1;"/><path class="point" transform="translate(913.81,910.2)" d="M1.25,0A1.25,1.25 0 1,1 0,-1.25A1.25,1.25 0 0,1 1.25,0Z" style="opacity: 0.85; stroke-width: 0px; fill: rgb(128, 0, 128); fill-opacity: 1;"/><path class="point" transform="translate(916.06,894.19)" d="M1.25,0A1.25,1.25 0 1,1 0,-1.25A1.25,1.25 0 0,1 1.25,0Z" style="opacity: 0.85; stroke-width: 0px; fill: rgb(128, 0, 128); fill-opacity: 1;"/><path class="point" transform="translate(915.28,878.18)" d="M1.25,0A1.25,1.25 0 1,1 0,-1.25A1.25,1.25 0 0,1 1.25,0Z" style="opacity: 0.85; stroke-width: 0px; fill: rgb(128, 0, 128); fill-opacity: 1;"/><path class="point" transform="translate(917.47,870.17)" d="M1.25,0A1.25,1.25 0 1,1 0,-1.25A1.25,1.25 0 0,1 1.25,0Z" style="opacity: 0.85; stroke-width: 0px; fill: rgb(128, 0, 128); fill-opacity: 1;"/><path class="point" transform="translate(915.81,870.17)" d="M1.25,0A1.25,1.25 0 1,1 0,-1.25A1.25,1.25 0 0,1 1.25,0Z" style="opacity: 0.85; stroke-width: 0px; fill: rgb(128, 0, 128); fill-opacity: 1;"/><path class="point" transform="translate(914.21,854.16)" d="M1.25,0A1.25,1.25 0 1,1 0,-1.25A1.25,1.25 0 0,1 1.25,0Z" style="opacity: 0.85; stroke-width: 0px; fill: rgb(128, 0, 128); fill-opacity: 1;"/><path class="point" transform="translate(913.11,854.16)" d="M1.25,0A1.25,1.25 0 1,1 0,-1.25A1.25,1.25 0 0,1 1.25,0Z" style="opacity: 0.85; stroke-width: 0px; fill: rgb(128, 0, 128); fill-opacity: 1;"/><path class="point" transform="translate(917.99,846.16)" d="M1.25,0A1.25,1.25 0 1,1 0,-1.25A1.25,1.25 0 0,1 1.25,0Z" style="opacity: 0.85; stroke-width: 0px; fill: rgb(128, 0, 128); fill-opacity: 1;"/><path class="point" transform="translate(913.52,846.16)" d="M1.25,0A1.25,1.25 0 1,1 0,-1.25A1.25,1.25 0 0,1 1.25,0Z" style="opacity: 0.85; stroke-width: 0px; fill: rgb(128, 0, 128); fill-opacity: 1;"/><path class="point" transform="translate(917.76,838.15)" d="M1.25,0A1.25,1.25 0 1,1 0,-1.25A1.25,1.25 0 0,1 1.25,0Z" style="opacity: 0.85; stroke-width: 0px; fill: rgb(128, 0, 128); fill-opacity: 1;"/><path class="point" transform="translate(916.77,830.14)" d="M1.25,0A1.25,1.25 0 1,1 0,-1.25A1.25,1.25 0 0,1 1.25,0Z" style="opacity: 0.85; stroke-width: 0px; fill: rgb(128, 0, 128); fill-opacity: 1;"/><path class="point" transform="translate(915.18,830.14)" d="M1.25,0A1.25,1.25 0 1,1 0,-1.25A1.25,1.25 0 0,1 1.25,0Z" style="opacity: 0.85; stroke-width: 0px; fill: rgb(128, 0, 128); fill-opacity: 1;"/><path class="point" transform="translate(914.3,822.14)" d="M1.25,0A1.25,1.25 0 1,1 0,-1.25A1.25,1.25 0 0,1 1.25,0Z" style="opacity: 0.85; stroke-width: 0px; fill: rgb(128, 0, 128); fill-opacity: 1;"/><path class="point" transform="translate(917.35,798.12)" d="M1.25,0A1.25,1.25 0 1,1 0,-1.25A1.25,1.25 0 0,1 1.25,0Z" style="opacity: 0.85; stroke-width: 0px; fill: rgb(128, 0, 128); fill-opacity: 1;"/><path class="point" transform="translate(915.77,790.12)" d="M1.25,0A1.25,1.25 0 1,1 0,-1.25A1.25,1.25 0 0,1 1.25,0Z" style="opacity: 0.85; stroke-width: 0px; fill: rgb(128, 0, 128); fill-opacity: 1;"/><path class="point" transform="translate(918.02,790.12)" d="M1.25,0A1.25,1.25 0 1,1 0,-1.25A1.25,1.25 0 0,1 1.25,0Z" style="opacity: 0.85; stroke-width: 0px; fill: rgb(128, 0, 128); fill-opacity: 1;"/><path class="point" transform="translate(913.8,782.11)" d="M1.25,0A1.25,1.25 0 1,1 0,-1.25A1.25,1.25 0 0,1 1.25,0Z" style="opacity: 0.85; stroke-width: 0px; fill: rgb(128, 0, 128); fill-opacity: 1;"/><path class="point" transform="translate(917.73,774.1)" d="M1.25,0A1.25,1.25 0 1,1 0,-1.25A1.25,1.25 0 0,1 1.25,0Z" style="opacity: 0.85; stroke-width: 0px; fill: rgb(128, 0, 128); fill-opacity: 1;"/><path class="point" transform="translate(915.86,766.1)" d="M1.25,0A1.25,1.25 0 1,1 0,-1.25A1.25,1.25 0 0,1 1.25,0Z" style="opacity: 0.85; stroke-width: 0px; fill: rgb(128, 0, 128); fill-opacity: 1;"/><path class="point" transform="translate(915.09,758.09)" d="M1.25,0A1.25,1.25 0 1,1 0,-1.25A1.25,1.25 0 0,1 1.25,0Z" style="opacity: 0.85; stroke-width: 0px; fill: rgb(128, 0, 128); fill-opacity: 1;"/><path class="point" transform="translate(914.14,750.09)" d="M1.25,0A1.25,1.25 0 1,1 0,-1.25A1.25,1.25 0 0,1 1.25,0Z" style="opacity: 0.85; stroke-width: 0px; fill: rgb(128, 0, 128); fill-opacity: 1;"/><path class="point" transform="translate(915.31,742.08)" d="M1.25,0A1.25,1.25 0 1,1 0,-1.25A1.25,1.25 0 0,1 1.25,0Z" style="opacity: 0.85; stroke-width: 0px; fill: rgb(128, 0, 128); fill-opacity: 1;"/><path class="point" transform="translate(917.32,726.07)" d="M1.25,0A1.25,1.25 0 1,1 0,-1.25A1.25,1.25 0 0,1 1.25,0Z" style="opacity: 0.85; stroke-width: 0px; fill: rgb(128, 0, 128); fill-opacity: 1;"/><path class="point" transform="translate(915.65,702.05)" d="M1.25,0A1.25,1.25 0 1,1 0,-1.25A1.25,1.25 0 0,1 1.25,0Z" style="opacity: 0.85; stroke-width: 0px; fill: rgb(128, 0, 128); fill-opacity: 1;"/><path class="point" transform="translate(914.75,686.04)" d="M1.25,0A1.25,1.25 0 1,1 0,-1.25A1.25,1.25 0 0,1 1.25,0Z" style="opacity: 0.85; stroke-width: 0px; fill: rgb(128, 0, 128); fill-opacity: 1;"/><path class="point" transform="translate(916.88,621.99)" d="M1.25,0A1.25,1.25 0 1,1 0,-1.25A1.25,1.25 0 0,1 1.25,0Z" style="opacity: 0.85; stroke-width: 0px; fill: rgb(128, 0, 128); fill-opacity: 1;"/><path class="point" transform="translate(915.21,613.99)" d="M1.25,0A1.25,1.25 0 1,1 0,-1.25A1.25,1.25 0 0,1 1.25,0Z" style="opacity: 0.85; stroke-width: 0px; fill: rgb(128, 0, 128); fill-opacity: 1;"/><path class="point" transform="translate(916.07,589.97)" d="M1.25,0A1.25,1.25 0 1,1 0,-1.25A1.25,1.25 0 0,1 1.25,0Z" style="opacity: 0.85; stroke-width: 0px; fill: rgb(128, 0, 128); fill-opacity: 1;"/><path class="point" transform="translate(916.72,557.95)" d="M1.25,0A1.25,1.25 0 1,1 0,-1.25A1.25,1.25 0 0,1 1.25,0Z" style="opacity: 0.85; stroke-width: 0px; fill: rgb(128, 0, 128); fill-opacity: 1;"/><path class="point" transform="translate(914.6,533.93)" d="M1.25,0A1.25,1.25 0 1,1 0,-1.25A1.25,1.25 0 0,1 1.25,0Z" style="opacity: 0.85; stroke-width: 0px; fill: rgb(128, 0, 128); fill-opacity: 1;"/><path class="point" transform="translate(917.61,517.92)" d="M1.25,0A1.25,1.25 0 1,1 0,-1.25A1.25,1.25 0 0,1 1.25,0Z" style="opacity: 0.85; stroke-width: 0px; fill: rgb(128, 0, 128); fill-opacity: 1;"/><path class="point" transform="translate(916.73,493.9)" d="M1.25,0A1.25,1.25 0 1,1 0,-1.25A1.25,1.25 0 0,1 1.25,0Z" style="opacity: 0.85; stroke-width: 0px; fill: rgb(128, 0, 128); fill-opacity: 1;"/><path class="point" transform="translate(914.69,477.89)" d="M1.25,0A1.25,1.25 0 1,1 0,-1.25A1.25,1.25 0 0,1 1.25,0Z" style="opacity: 0.85; stroke-width: 0px; fill: rgb(128, 0, 128); fill-opacity: 1;"/><path class="point" transform="translate(917.34,421.85)" d="M1.25,0A1.25,1.25 0 1,1 0,-1.25A1.25,1.25 0 0,1 1.25,0Z" style="opacity: 0.85; stroke-width: 0px; fill: rgb(128, 0, 128); fill-opacity: 1;"/><path class="point" transform="translate(914.91,405.84)" d="M1.25,0A1.25,1.25 0 1,1 0,-1.25A1.25,1.25 0 0,1 1.25,0Z" style="opacity: 0.85; stroke-width: 0px; fill: rgb(128, 0, 128); fill-opacity: 1;"/></g></g></g></g><g class="overplot"/><path class="xlines-above crisp" d="M0,0" style="fill: none;"/><path class="ylines-above crisp" d="M0,0" style="fill: none;"/><g class="overlines-above"/><g class="xaxislayer-above"><g class="xtick"><text text-anchor="middle" x="0" y="1375" transform="translate(252.23,0)" style="font-family: Arial, Bahnschrift; font-size: 14px; fill: rgb(42, 63, 95); fill-opacity: 1; white-space: pre; opacity: 1;">Tom</text></g><g class="xtick"><text text-anchor="middle" x="0" y="1375" transform="translate(464.75,0)" style="font-family: Arial, Bahnschrift; font-size: 14px; fill: rgb(42, 63, 95); fill-opacity: 1; white-space: pre; opacity: 1;">Gleb</text></g><g class="xtick"><text text-anchor="middle" x="0" y="1375" transform="translate(677.28,0)" style="font-family: Arial, Bahnschrift; font-size: 14px; fill: rgb(42, 63, 95); fill-opacity: 1; white-space: pre; opacity: 1;">Whats goin on</text></g><g class="xtick"><text text-anchor="middle" x="0" y="1375" transform="translate(889.81,0)" style="font-family: Arial, Bahnschrift; font-size: 14px; fill: rgb(42, 63, 95); fill-opacity: 1; white-space: pre; opacity: 1;">Deeplive.exe</text></g><g class="xtick"><text text-anchor="middle" x="0" y="1375" transform="translate(1102.3400000000001,0)" style="font-family: Arial, Bahnschrift; font-size: 14px; fill: rgb(42, 63, 95); fill-opacity: 1; white-space: pre; opacity: 1;">Deepflash2</text></g></g><g class="yaxislayer-above"><g class="ytick"><text text-anchor="end" x="79" y="4.8999999999999995" transform="translate(0,1034.22)" style="font-family: Arial, Bahnschrift; font-size: 14px; fill: rgb(42, 63, 95); fill-opacity: 1; white-space: pre; opacity: 1;">0.1</text></g><g class="ytick"><text text-anchor="end" x="79" y="4.8999999999999995" style="font-family: Arial, Bahnschrift; font-size: 14px; fill: rgb(42, 63, 95); fill-opacity: 1; white-space: pre; opacity: 1;" transform="translate(0,954.16)">0.2</text></g><g class="ytick"><text text-anchor="end" x="79" y="4.8999999999999995" style="font-family: Arial, Bahnschrift; font-size: 14px; fill: rgb(42, 63, 95); fill-opacity: 1; white-space: pre; opacity: 1;" transform="translate(0,874.1)">0.3</text></g><g class="ytick"><text text-anchor="end" x="79" y="4.8999999999999995" style="font-family: Arial, Bahnschrift; font-size: 14px; fill: rgb(42, 63, 95); fill-opacity: 1; white-space: pre; opacity: 1;" transform="translate(0,794.05)">0.4</text></g><g class="ytick"><text text-anchor="end" x="79" y="4.8999999999999995" style="font-family: Arial, Bahnschrift; font-size: 14px; fill: rgb(42, 63, 95); fill-opacity: 1; white-space: pre; opacity: 1;" transform="translate(0,713.99)">0.5</text></g><g class="ytick"><text text-anchor="end" x="79" y="4.8999999999999995" style="font-family: Arial, Bahnschrift; font-size: 14px; fill: rgb(42, 63, 95); fill-opacity: 1; white-space: pre; opacity: 1;" transform="translate(0,633.93)">0.6</text></g><g class="ytick"><text text-anchor="end" x="79" y="4.8999999999999995" style="font-family: Arial, Bahnschrift; font-size: 14px; fill: rgb(42, 63, 95); fill-opacity: 1; white-space: pre; opacity: 1;" transform="translate(0,553.87)">0.7</text></g><g class="ytick"><text text-anchor="end" x="79" y="4.8999999999999995" style="font-family: Arial, Bahnschrift; font-size: 14px; fill: rgb(42, 63, 95); fill-opacity: 1; white-space: pre; opacity: 1;" transform="translate(0,473.81)">0.8</text></g><g class="ytick"><text text-anchor="end" x="79" y="4.8999999999999995" style="font-family: Arial, Bahnschrift; font-size: 14px; fill: rgb(42, 63, 95); fill-opacity: 1; white-space: pre; opacity: 1;" transform="translate(0,393.76)">0.9</text></g><g class="ytick"><text text-anchor="end" x="79" y="4.8999999999999995" style="font-family: Arial, Bahnschrift; font-size: 14px; fill: rgb(42, 63, 95); fill-opacity: 1; white-space: pre; opacity: 1;" transform="translate(0,377.75)">0.92</text></g><g class="ytick"><text text-anchor="end" x="79" y="4.8999999999999995" style="font-family: Arial, Bahnschrift; font-size: 14px; fill: rgb(42, 63, 95); fill-opacity: 1; white-space: pre; opacity: 1;" transform="translate(0,361.73)">0.94</text></g><g class="ytick"><text text-anchor="end" x="79" y="4.8999999999999995" style="font-family: Arial, Bahnschrift; font-size: 14px; fill: rgb(42, 63, 95); fill-opacity: 1; white-space: pre; opacity: 1;" transform="translate(0,345.72)">0.96</text></g><g class="ytick"><text text-anchor="end" x="79" y="4.8999999999999995" style="font-family: Arial, Bahnschrift; font-size: 14px; fill: rgb(42, 63, 95); fill-opacity: 1; white-space: pre; opacity: 1;" transform="translate(0,329.71000000000004)">0.98</text></g><g class="ytick"><text text-anchor="end" x="79" y="4.8999999999999995" style="font-family: Arial, Bahnschrift; font-size: 14px; fill: rgb(42, 63, 95); fill-opacity: 1; white-space: pre; opacity: 1;" transform="translate(0,313.7)">1</text></g></g><g class="overaxes-above"/></g></g><g class="polarlayer"/><g class="ternarylayer"/><g class="geolayer"/><g class="funnelarealayer"/><g class="pielayer"/><g class="iciclelayer"/><g class="treemaplayer"/><g class="sunburstlayer"/><g class="glimages"/><defs id="topdefs-b34730"><g class="clips"/><clipPath id="legendb34730"><rect width="136" height="116" x="0" y="0"/></clipPath></defs><g class="layer-above"><g class="imagelayer"/><g class="shapelayer"/></g><g class="infolayer"><g class="legend" pointer-events="all" transform="translate(1291.76,100)"><rect class="bg" shape-rendering="crispEdges" style="stroke: rgb(68, 68, 68); stroke-opacity: 1; fill: rgb(255, 255, 255); fill-opacity: 1; stroke-width: 0px;" width="136" height="116" x="0" y="0"/><g class="scrollbox" transform="" clip-path="url(#legendb34730)"><g class="groups"><g class="traces" transform="translate(0,15.6)" style="opacity: 1;"><text class="legendtext" text-anchor="start" x="40" y="5.46" style="font-family: Arial, Bahnschrift; font-size: 14px; fill: rgb(42, 63, 95); fill-opacity: 1; white-space: pre;">Tom</text><g class="layers" style="opacity: 0.8;"><g class="legendfill"/><g class="legendlines"/><g class="legendsymbols"><g class="legendpoints"><path class="legendbox" d="M6,6H-6V-6H6Z" transform="translate(20,0)" style="stroke-width: 1.5px; fill: rgb(0, 0, 0); fill-opacity: 0.5; stroke: rgb(0, 0, 0); stroke-opacity: 1;"/></g></g></g><rect class="legendtoggle" x="0" y="-10.6" width="130.71875" height="21.2" style="fill: rgb(0, 0, 0); fill-opacity: 0;"/></g><g class="traces" transform="translate(0,36.8)" style="opacity: 1;"><text class="legendtext" text-anchor="start" x="40" y="5.46" style="font-family: Arial, Bahnschrift; font-size: 14px; fill: rgb(42, 63, 95); fill-opacity: 1; white-space: pre;">Gleb</text><g class="layers" style="opacity: 0.8;"><g class="legendfill"/><g class="legendlines"/><g class="legendsymbols"><g class="legendpoints"><path class="legendbox" d="M6,6H-6V-6H6Z" transform="translate(20,0)" style="stroke-width: 1.5px; fill: rgb(255, 69, 0); fill-opacity: 0.5; stroke: rgb(255, 69, 0); stroke-opacity: 1;"/></g></g></g><rect class="legendtoggle" x="0" y="-10.6" width="130.71875" height="21.2" style="fill: rgb(0, 0, 0); fill-opacity: 0;"/></g><g class="traces" transform="translate(0,58)" style="opacity: 1;"><text class="legendtext" text-anchor="start" x="40" y="5.46" style="font-family: Arial, Bahnschrift; font-size: 14px; fill: rgb(42, 63, 95); fill-opacity: 1; white-space: pre;">Whats goin on</text><g class="layers" style="opacity: 0.8;"><g class="legendfill"/><g class="legendlines"/><g class="legendsymbols"><g class="legendpoints"><path class="legendbox" d="M6,6H-6V-6H6Z" transform="translate(20,0)" style="stroke-width: 1.5px; fill: rgb(25, 25, 112); fill-opacity: 0.5; stroke: rgb(25, 25, 112); stroke-opacity: 1;"/></g></g></g><rect class="legendtoggle" x="0" y="-10.6" width="130.71875" height="21.2" style="fill: rgb(0, 0, 0); fill-opacity: 0;"/></g><g class="traces" transform="translate(0,79.19999999999999)" style="opacity: 1;"><text class="legendtext" text-anchor="start" x="40" y="5.46" style="font-family: Arial, Bahnschrift; font-size: 14px; fill: rgb(42, 63, 95); fill-opacity: 1; white-space: pre;">Deeplive.exe</text><g class="layers" style="opacity: 0.8;"><g class="legendfill"/><g class="legendlines"/><g class="legendsymbols"><g class="legendpoints"><path class="legendbox" d="M6,6H-6V-6H6Z" transform="translate(20,0)" style="stroke-width: 1.5px; fill: rgb(85, 107, 47); fill-opacity: 0.5; stroke: rgb(85, 107, 47); stroke-opacity: 1;"/></g></g></g><rect class="legendtoggle" x="0" y="-10.6" width="130.71875" height="21.2" style="fill: rgb(0, 0, 0); fill-opacity: 0;"/></g><g class="traces" transform="translate(0,100.39999999999999)" style="opacity: 1;"><text class="legendtext" text-anchor="start" x="40" y="5.46" style="font-family: Arial, Bahnschrift; font-size: 14px; fill: rgb(42, 63, 95); fill-opacity: 1; white-space: pre;">Deepflash2</text><g class="layers" style="opacity: 0.8;"><g class="legendfill"/><g class="legendlines"/><g class="legendsymbols"><g class="legendpoints"><path class="legendbox" d="M6,6H-6V-6H6Z" transform="translate(20,0)" style="stroke-width: 1.5px; fill: rgb(128, 0, 128); fill-opacity: 0.5; stroke: rgb(128, 0, 128); stroke-opacity: 1;"/></g></g></g><rect class="legendtoggle" x="0" y="-10.6" width="130.71875" height="21.2" style="fill: rgb(0, 0, 0); fill-opacity: 0;"/></g></g></g><rect class="scrollbar" rx="20" ry="3" width="0" height="0" style="fill: rgb(128, 139, 164); fill-opacity: 1;" x="0" y="0"/></g><g class="g-gtitle"><text class="gtitle" x="720" y="144" text-anchor="middle" dy="0.7em" style="font-family: Arial, Bahnschrift; font-size: 20px; fill: rgb(42, 63, 95); opacity: 1; font-weight: normal; white-space: pre;">HPA-largeintestine</text></g><g class="g-xtitle"/><g class="g-ytitle"/></g></svg>