<svg class="main-svg" xmlns="http://www.w3.org/2000/svg" xmlns:xlink="http://www.w3.org/1999/xlink" width="1440" height="1440" style="" viewBox="0 0 1440 1440"><rect x="0" y="0" width="1440" height="1440" style="fill: rgb(255, 255, 255); fill-opacity: 1;"/><defs id="defs-26f0d9"><g class="clips"><clipPath id="clip26f0d9xyplot" class="plotclip"><rect width="1126" height="1260"/></clipPath><clipPath class="axesclip" id="clip26f0d9x"><rect x="80" y="0" width="1126" height="1440"/></clipPath><clipPath class="axesclip" id="clip26f0d9y"><rect x="0" y="100" width="1440" height="1260"/></clipPath><clipPath class="axesclip" id="clip26f0d9xy"><rect x="80" y="100" width="1126" height="1260"/></clipPath></g><g class="gradients"/><g class="patterns"/></defs><g class="bglayer"><rect class="bg" x="80" y="100" width="1126" height="1260" style="fill: rgb(229, 236, 246); fill-opacity: 1; stroke-width: 0;"/></g><g class="layer-below"><g class="imagelayer"/><g class="shapelayer"/></g><g class="cartesianlayer"><g class="subplot xy"><g class="layer-subplot"><g class="shapelayer"/><g class="imagelayer"/></g><g class="gridlayer"><g class="x"/><g class="y"><path class="ygrid crisp" transform="translate(0,1034.22)" d="M80,0h1126" style="stroke: rgb(255, 255, 255); stroke-opacity: 1; stroke-width: 1px;"/><path class="ygrid crisp" transform="translate(0,954.16)" d="M80,0h1126" style="stroke: rgb(255, 255, 255); stroke-opacity: 1; stroke-width: 1px;"/><path class="ygrid crisp" transform="translate(0,874.1)" d="M80,0h1126" style="stroke: rgb(255, 255, 255); stroke-opacity: 1; stroke-width: 1px;"/><path class="ygrid crisp" transform="translate(0,794.05)" d="M80,0h1126" style="stroke: rgb(255, 255, 255); stroke-opacity: 1; stroke-width: 1px;"/><path class="ygrid crisp" transform="translate(0,713.99)" d="M80,0h1126" style="stroke: rgb(255, 255, 255); stroke-opacity: 1; stroke-width: 1px;"/><path class="ygrid crisp" transform="translate(0,633.93)" d="M80,0h1126" style="stroke: rgb(255, 255, 255); stroke-opacity: 1; stroke-width: 1px;"/><path class="ygrid crisp" transform="translate(0,553.87)" d="M80,0h1126" style="stroke: rgb(255, 255, 255); stroke-opacity: 1; stroke-width: 1px;"/><path class="ygrid crisp" transform="translate(0,473.81)" d="M80,0h1126" style="stroke: rgb(255, 255, 255); stroke-opacity: 1; stroke-width: 1px;"/><path class="ygrid crisp" transform="translate(0,393.76)" d="M80,0h1126" style="stroke: rgb(255, 255, 255); stroke-opacity: 1; stroke-width: 1px;"/><path class="ygrid crisp" transform="translate(0,313.7)" d="M80,0h1126" style="stroke: rgb(255, 255, 255); stroke-opacity: 1; stroke-width: 1px;"/></g></g><g class="zerolinelayer"/><path class="xlines-below"/><path class="ylines-below"/><g class="overlines-below"/><g class="xaxislayer-below"/><g class="yaxislayer-below"/><g class="overaxes-below"/><g class="plot" transform="translate(80,100)" clip-path="url(#clip26f0d9xyplot)"><g class="violinlayer mlayer"><g class="trace violins" style="opacity: 0.8;"><path class="violin" d="M168.08,1168.99Q170.68,1152.07 172.61,1143.68C174.56,1135.19 176.93,1126.73 179.77,1118.37C182.66,1109.86 186.1,1101.42 189.82,1093.06C193.61,1084.55 197.99,1076.15 202.33,1067.75C206.71,1059.27 211.56,1050.9 216.01,1042.44C220.43,1034.03 225.06,1025.66 228.94,1017.13C232.74,1008.78 236.41,1000.36 239.1,991.82C241.72,983.48 243.84,975 244.98,966.51C246.11,958.13 246.39,949.62 245.98,941.2C245.57,932.75 244.22,924.27 242.52,915.89C240.8,907.4 238.26,898.97 235.68,890.58C233.07,882.1 229.93,873.69 226.92,865.27C223.9,856.82 220.61,848.41 217.59,839.96C214.58,831.54 211.53,823.12 208.8,814.65C206.09,806.24 203.53,797.81 201.29,789.34C199.07,780.94 197.09,772.49 195.41,764.03C193.74,755.62 192.38,747.17 191.25,738.72C190.12,730.3 189.29,721.85 188.62,713.41C187.95,704.98 187.55,696.55 187.22,688.11C186.89,679.68 186.76,671.24 186.64,662.8C186.52,654.36 186.53,645.93 186.49,637.49C186.45,629.05 186.48,620.62 186.4,612.18C186.32,603.74 186.23,595.31 186,586.87C185.77,578.43 185.46,569.99 185.02,561.56C184.58,553.12 184.02,544.68 183.37,536.25C182.72,527.81 181.93,519.37 181.12,510.94C180.31,502.5 179.4,494.07 178.51,485.63C177.62,477.19 176.68,468.76 175.79,460.32C174.9,451.88 173.99,443.45 173.15,435.01C172.31,426.58 171.49,418.14 170.73,409.7C169.98,401.27 169.26,392.83 168.62,384.39C167.98,375.96 167.39,367.52 166.87,359.08C166.35,350.65 165.9,342.21 165.52,333.77C165.14,325.33 164.83,316.9 164.57,308.46Q164.31,300.02 163.96,283.15L162.63,283.15Q162.28,300.02 162.02,308.46C161.76,316.9 161.45,325.33 161.07,333.77C160.69,342.21 160.24,350.65 159.72,359.08C159.2,367.52 158.61,375.96 157.97,384.39C157.33,392.83 156.61,401.27 155.86,409.7C155.1,418.14 154.28,426.58 153.44,435.01C152.6,443.45 151.7,451.88 150.81,460.32C149.92,468.76 148.97,477.19 148.08,485.63C147.19,494.07 146.28,502.5 145.47,510.94C144.66,519.37 143.87,527.81 143.22,536.25C142.57,544.68 142.01,553.12 141.57,561.56C141.13,569.99 140.83,578.43 140.6,586.87C140.37,595.31 140.28,603.74 140.2,612.18C140.12,620.62 140.14,629.05 140.1,637.49C140.06,645.93 140.08,654.36 139.96,662.8C139.84,671.24 139.71,679.68 139.38,688.11C139.05,696.55 138.64,704.98 137.97,713.41C137.3,721.85 136.47,730.3 135.34,738.72C134.21,747.17 132.84,755.62 131.18,764.03C129.5,772.49 127.53,780.94 125.31,789.34C123.07,797.81 120.5,806.24 117.79,814.65C115.06,823.12 112.01,831.54 109,839.96C105.98,848.41 102.7,856.82 99.68,865.27C96.67,873.69 93.52,882.1 90.91,890.58C88.33,898.97 85.8,907.4 84.08,915.89C82.38,924.27 81.02,932.75 80.61,941.2C80.2,949.62 80.49,958.13 81.62,966.51C82.77,975 84.88,983.48 87.5,991.82C90.19,1000.36 93.85,1008.78 97.65,1017.13C101.53,1025.66 106.16,1034.03 110.58,1042.44C115.03,1050.9 119.88,1059.27 124.26,1067.75C128.6,1076.15 132.98,1084.55 136.77,1093.06C140.49,1101.42 143.93,1109.86 146.82,1118.37C149.66,1126.73 152.03,1135.19 153.98,1143.68Q155.91,1152.07 158.51,1168.99Z" style="vector-effect: non-scaling-stroke; stroke-width: 1.5px; stroke: rgb(0, 0, 0); stroke-opacity: 1; fill: rgb(0, 0, 0); fill-opacity: 0.5;"/><path class="box" d="M158.26,914.21H168.33M158.26,990.26H168.33V766.1H158.26ZM163.3,990.26V1014.28M163.3,766.1V437.86" style="vector-effect: non-scaling-stroke; stroke-width: 1.5px; stroke: rgb(0, 0, 0); stroke-opacity: 1; fill: rgb(255, 255, 255); fill-opacity: 1;"/><path class="mean" d="M158.26,851.26H168.33" style="fill: none; vector-effect: non-scaling-stroke; stroke-width: 1.5px; stroke-dasharray: 3px, 1.5px; stroke: rgb(0, 0, 0); stroke-opacity: 1;"/><g class="points"><path class="point" transform="translate(65.2,1014.28)" d="M1.25,0A1.25,1.25 0 1,1 0,-1.25A1.25,1.25 0 0,1 1.25,0Z" style="opacity: 0.85; stroke-width: 0px; fill: rgb(0, 0, 0); fill-opacity: 1;"/><path class="point" transform="translate(59.38,1014.28)" d="M1.25,0A1.25,1.25 0 1,1 0,-1.25A1.25,1.25 0 0,1 1.25,0Z" style="opacity: 0.85; stroke-width: 0px; fill: rgb(0, 0, 0); fill-opacity: 1;"/><path class="point" transform="translate(66.49,1014.28)" d="M1.25,0A1.25,1.25 0 1,1 0,-1.25A1.25,1.25 0 0,1 1.25,0Z" style="opacity: 0.85; stroke-width: 0px; fill: rgb(0, 0, 0); fill-opacity: 1;"/><path class="point" transform="translate(58.33,1014.28)" d="M1.25,0A1.25,1.25 0 1,1 0,-1.25A1.25,1.25 0 0,1 1.25,0Z" style="opacity: 0.85; stroke-width: 0px; fill: rgb(0, 0, 0); fill-opacity: 1;"/><path class="point" transform="translate(61.35,1014.28)" d="M1.25,0A1.25,1.25 0 1,1 0,-1.25A1.25,1.25 0 0,1 1.25,0Z" style="opacity: 0.85; stroke-width: 0px; fill: rgb(0, 0, 0); fill-opacity: 1;"/><path class="point" transform="translate(65.23,1006.27)" d="M1.25,0A1.25,1.25 0 1,1 0,-1.25A1.25,1.25 0 0,1 1.25,0Z" style="opacity: 0.85; stroke-width: 0px; fill: rgb(0, 0, 0); fill-opacity: 1;"/><path class="point" transform="translate(62.4,1006.27)" d="M1.25,0A1.25,1.25 0 1,1 0,-1.25A1.25,1.25 0 0,1 1.25,0Z" style="opacity: 0.85; stroke-width: 0px; fill: rgb(0, 0, 0); fill-opacity: 1;"/><path class="point" transform="translate(64.05,1006.27)" d="M1.25,0A1.25,1.25 0 1,1 0,-1.25A1.25,1.25 0 0,1 1.25,0Z" style="opacity: 0.85; stroke-width: 0px; fill: rgb(0, 0, 0); fill-opacity: 1;"/><path class="point" transform="translate(60.98,1006.27)" d="M1.25,0A1.25,1.25 0 1,1 0,-1.25A1.25,1.25 0 0,1 1.25,0Z" style="opacity: 0.85; stroke-width: 0px; fill: rgb(0, 0, 0); fill-opacity: 1;"/><path class="point" transform="translate(59.02,1006.27)" d="M1.25,0A1.25,1.25 0 1,1 0,-1.25A1.25,1.25 0 0,1 1.25,0Z" style="opacity: 0.85; stroke-width: 0px; fill: rgb(0, 0, 0); fill-opacity: 1;"/><path class="point" transform="translate(63.71,998.27)" d="M1.25,0A1.25,1.25 0 1,1 0,-1.25A1.25,1.25 0 0,1 1.25,0Z" style="opacity: 0.85; stroke-width: 0px; fill: rgb(0, 0, 0); fill-opacity: 1;"/><path class="point" transform="translate(61.35,998.27)" d="M1.25,0A1.25,1.25 0 1,1 0,-1.25A1.25,1.25 0 0,1 1.25,0Z" style="opacity: 0.85; stroke-width: 0px; fill: rgb(0, 0, 0); fill-opacity: 1;"/><path class="point" transform="translate(64.97,998.27)" d="M1.25,0A1.25,1.25 0 1,1 0,-1.25A1.25,1.25 0 0,1 1.25,0Z" style="opacity: 0.85; stroke-width: 0px; fill: rgb(0, 0, 0); fill-opacity: 1;"/><path class="point" transform="translate(59.49,998.27)" d="M1.25,0A1.25,1.25 0 1,1 0,-1.25A1.25,1.25 0 0,1 1.25,0Z" style="opacity: 0.85; stroke-width: 0px; fill: rgb(0, 0, 0); fill-opacity: 1;"/><path class="point" transform="translate(60.86,990.26)" d="M1.25,0A1.25,1.25 0 1,1 0,-1.25A1.25,1.25 0 0,1 1.25,0Z" style="opacity: 0.85; stroke-width: 0px; fill: rgb(0, 0, 0); fill-opacity: 1;"/><path class="point" transform="translate(65.4,974.25)" d="M1.25,0A1.25,1.25 0 1,1 0,-1.25A1.25,1.25 0 0,1 1.25,0Z" style="opacity: 0.85; stroke-width: 0px; fill: rgb(0, 0, 0); fill-opacity: 1;"/><path class="point" transform="translate(61.79,966.24)" d="M1.25,0A1.25,1.25 0 1,1 0,-1.25A1.25,1.25 0 0,1 1.25,0Z" style="opacity: 0.85; stroke-width: 0px; fill: rgb(0, 0, 0); fill-opacity: 1;"/><path class="point" transform="translate(60.03,966.24)" d="M1.25,0A1.25,1.25 0 1,1 0,-1.25A1.25,1.25 0 0,1 1.25,0Z" style="opacity: 0.85; stroke-width: 0px; fill: rgb(0, 0, 0); fill-opacity: 1;"/><path class="point" transform="translate(61.6,950.23)" d="M1.25,0A1.25,1.25 0 1,1 0,-1.25A1.25,1.25 0 0,1 1.25,0Z" style="opacity: 0.85; stroke-width: 0px; fill: rgb(0, 0, 0); fill-opacity: 1;"/><path class="point" transform="translate(62.52,942.23)" d="M1.25,0A1.25,1.25 0 1,1 0,-1.25A1.25,1.25 0 0,1 1.25,0Z" style="opacity: 0.85; stroke-width: 0px; fill: rgb(0, 0, 0); fill-opacity: 1;"/><path class="point" transform="translate(64.13,942.23)" d="M1.25,0A1.25,1.25 0 1,1 0,-1.25A1.25,1.25 0 0,1 1.25,0Z" style="opacity: 0.85; stroke-width: 0px; fill: rgb(0, 0, 0); fill-opacity: 1;"/><path class="point" transform="translate(63,942.23)" d="M1.25,0A1.25,1.25 0 1,1 0,-1.25A1.25,1.25 0 0,1 1.25,0Z" style="opacity: 0.85; stroke-width: 0px; fill: rgb(0, 0, 0); fill-opacity: 1;"/><path class="point" transform="translate(61.52,934.22)" d="M1.25,0A1.25,1.25 0 1,1 0,-1.25A1.25,1.25 0 0,1 1.25,0Z" style="opacity: 0.85; stroke-width: 0px; fill: rgb(0, 0, 0); fill-opacity: 1;"/><path class="point" transform="translate(59.06,934.22)" d="M1.25,0A1.25,1.25 0 1,1 0,-1.25A1.25,1.25 0 0,1 1.25,0Z" style="opacity: 0.85; stroke-width: 0px; fill: rgb(0, 0, 0); fill-opacity: 1;"/><path class="point" transform="translate(62.57,926.21)" d="M1.25,0A1.25,1.25 0 1,1 0,-1.25A1.25,1.25 0 0,1 1.25,0Z" style="opacity: 0.85; stroke-width: 0px; fill: rgb(0, 0, 0); fill-opacity: 1;"/><path class="point" transform="translate(61.35,926.21)" d="M1.25,0A1.25,1.25 0 1,1 0,-1.25A1.25,1.25 0 0,1 1.25,0Z" style="opacity: 0.85; stroke-width: 0px; fill: rgb(0, 0, 0); fill-opacity: 1;"/><path class="point" transform="translate(64.34,926.21)" d="M1.25,0A1.25,1.25 0 1,1 0,-1.25A1.25,1.25 0 0,1 1.25,0Z" style="opacity: 0.85; stroke-width: 0px; fill: rgb(0, 0, 0); fill-opacity: 1;"/><path class="point" transform="translate(62.21,926.21)" d="M1.25,0A1.25,1.25 0 1,1 0,-1.25A1.25,1.25 0 0,1 1.25,0Z" style="opacity: 0.85; stroke-width: 0px; fill: rgb(0, 0, 0); fill-opacity: 1;"/><path class="point" transform="translate(60.33,918.21)" d="M1.25,0A1.25,1.25 0 1,1 0,-1.25A1.25,1.25 0 0,1 1.25,0Z" style="opacity: 0.85; stroke-width: 0px; fill: rgb(0, 0, 0); fill-opacity: 1;"/><path class="point" transform="translate(59.07,910.2)" d="M1.25,0A1.25,1.25 0 1,1 0,-1.25A1.25,1.25 0 0,1 1.25,0Z" style="opacity: 0.85; stroke-width: 0px; fill: rgb(0, 0, 0); fill-opacity: 1;"/><path class="point" transform="translate(64.17,910.2)" d="M1.25,0A1.25,1.25 0 1,1 0,-1.25A1.25,1.25 0 0,1 1.25,0Z" style="opacity: 0.85; stroke-width: 0px; fill: rgb(0, 0, 0); fill-opacity: 1;"/><path class="point" transform="translate(60.31,902.2)" d="M1.25,0A1.25,1.25 0 1,1 0,-1.25A1.25,1.25 0 0,1 1.25,0Z" style="opacity: 0.85; stroke-width: 0px; fill: rgb(0, 0, 0); fill-opacity: 1;"/><path class="point" transform="translate(64.17,902.2)" d="M1.25,0A1.25,1.25 0 1,1 0,-1.25A1.25,1.25 0 0,1 1.25,0Z" style="opacity: 0.85; stroke-width: 0px; fill: rgb(0, 0, 0); fill-opacity: 1;"/><path class="point" transform="translate(63.17,886.19)" d="M1.25,0A1.25,1.25 0 1,1 0,-1.25A1.25,1.25 0 0,1 1.25,0Z" style="opacity: 0.85; stroke-width: 0px; fill: rgb(0, 0, 0); fill-opacity: 1;"/><path class="point" transform="translate(61.79,886.19)" d="M1.25,0A1.25,1.25 0 1,1 0,-1.25A1.25,1.25 0 0,1 1.25,0Z" style="opacity: 0.85; stroke-width: 0px; fill: rgb(0, 0, 0); fill-opacity: 1;"/><path class="point" transform="translate(61.08,854.16)" d="M1.25,0A1.25,1.25 0 1,1 0,-1.25A1.25,1.25 0 0,1 1.25,0Z" style="opacity: 0.85; stroke-width: 0px; fill: rgb(0, 0, 0); fill-opacity: 1;"/><path class="point" transform="translate(63.68,846.16)" d="M1.25,0A1.25,1.25 0 1,1 0,-1.25A1.25,1.25 0 0,1 1.25,0Z" style="opacity: 0.85; stroke-width: 0px; fill: rgb(0, 0, 0); fill-opacity: 1;"/><path class="point" transform="translate(62.33,846.16)" d="M1.25,0A1.25,1.25 0 1,1 0,-1.25A1.25,1.25 0 0,1 1.25,0Z" style="opacity: 0.85; stroke-width: 0px; fill: rgb(0, 0, 0); fill-opacity: 1;"/><path class="point" transform="translate(64.08,838.15)" d="M1.25,0A1.25,1.25 0 1,1 0,-1.25A1.25,1.25 0 0,1 1.25,0Z" style="opacity: 0.85; stroke-width: 0px; fill: rgb(0, 0, 0); fill-opacity: 1;"/><path class="point" transform="translate(60.96,830.14)" d="M1.25,0A1.25,1.25 0 1,1 0,-1.25A1.25,1.25 0 0,1 1.25,0Z" style="opacity: 0.85; stroke-width: 0px; fill: rgb(0, 0, 0); fill-opacity: 1;"/><path class="point" transform="translate(63.82,822.14)" d="M1.25,0A1.25,1.25 0 1,1 0,-1.25A1.25,1.25 0 0,1 1.25,0Z" style="opacity: 0.85; stroke-width: 0px; fill: rgb(0, 0, 0); fill-opacity: 1;"/><path class="point" transform="translate(62.43,806.13)" d="M1.25,0A1.25,1.25 0 1,1 0,-1.25A1.25,1.25 0 0,1 1.25,0Z" style="opacity: 0.85; stroke-width: 0px; fill: rgb(0, 0, 0); fill-opacity: 1;"/><path class="point" transform="translate(61.86,798.12)" d="M1.25,0A1.25,1.25 0 1,1 0,-1.25A1.25,1.25 0 0,1 1.25,0Z" style="opacity: 0.85; stroke-width: 0px; fill: rgb(0, 0, 0); fill-opacity: 1;"/><path class="point" transform="translate(60.86,766.1)" d="M1.25,0A1.25,1.25 0 1,1 0,-1.25A1.25,1.25 0 0,1 1.25,0Z" style="opacity: 0.85; stroke-width: 0px; fill: rgb(0, 0, 0); fill-opacity: 1;"/><path class="point" transform="translate(61.93,734.08)" d="M1.25,0A1.25,1.25 0 1,1 0,-1.25A1.25,1.25 0 0,1 1.25,0Z" style="opacity: 0.85; stroke-width: 0px; fill: rgb(0, 0, 0); fill-opacity: 1;"/><path class="point" transform="translate(63.6,702.05)" d="M1.25,0A1.25,1.25 0 1,1 0,-1.25A1.25,1.25 0 0,1 1.25,0Z" style="opacity: 0.85; stroke-width: 0px; fill: rgb(0, 0, 0); fill-opacity: 1;"/><path class="point" transform="translate(62.22,686.04)" d="M1.25,0A1.25,1.25 0 1,1 0,-1.25A1.25,1.25 0 0,1 1.25,0Z" style="opacity: 0.85; stroke-width: 0px; fill: rgb(0, 0, 0); fill-opacity: 1;"/><path class="point" transform="translate(61.37,678.03)" d="M1.25,0A1.25,1.25 0 1,1 0,-1.25A1.25,1.25 0 0,1 1.25,0Z" style="opacity: 0.85; stroke-width: 0px; fill: rgb(0, 0, 0); fill-opacity: 1;"/><path class="point" transform="translate(63.38,654.02)" d="M1.25,0A1.25,1.25 0 1,1 0,-1.25A1.25,1.25 0 0,1 1.25,0Z" style="opacity: 0.85; stroke-width: 0px; fill: rgb(0, 0, 0); fill-opacity: 1;"/><path class="point" transform="translate(61.62,630)" d="M1.25,0A1.25,1.25 0 1,1 0,-1.25A1.25,1.25 0 0,1 1.25,0Z" style="opacity: 0.85; stroke-width: 0px; fill: rgb(0, 0, 0); fill-opacity: 1;"/><path class="point" transform="translate(62.59,573.96)" d="M1.25,0A1.25,1.25 0 1,1 0,-1.25A1.25,1.25 0 0,1 1.25,0Z" style="opacity: 0.85; stroke-width: 0px; fill: rgb(0, 0, 0); fill-opacity: 1;"/><path class="point" transform="translate(63.24,565.95)" d="M1.25,0A1.25,1.25 0 1,1 0,-1.25A1.25,1.25 0 0,1 1.25,0Z" style="opacity: 0.85; stroke-width: 0px; fill: rgb(0, 0, 0); fill-opacity: 1;"/><path class="point" transform="translate(61.09,565.95)" d="M1.25,0A1.25,1.25 0 1,1 0,-1.25A1.25,1.25 0 0,1 1.25,0Z" style="opacity: 0.85; stroke-width: 0px; fill: rgb(0, 0, 0); fill-opacity: 1;"/><path class="point" transform="translate(64.03,557.95)" d="M1.25,0A1.25,1.25 0 1,1 0,-1.25A1.25,1.25 0 0,1 1.25,0Z" style="opacity: 0.85; stroke-width: 0px; fill: rgb(0, 0, 0); fill-opacity: 1;"/><path class="point" transform="translate(63.22,557.95)" d="M1.25,0A1.25,1.25 0 1,1 0,-1.25A1.25,1.25 0 0,1 1.25,0Z" style="opacity: 0.85; stroke-width: 0px; fill: rgb(0, 0, 0); fill-opacity: 1;"/><path class="point" transform="translate(61.07,517.92)" d="M1.25,0A1.25,1.25 0 1,1 0,-1.25A1.25,1.25 0 0,1 1.25,0Z" style="opacity: 0.85; stroke-width: 0px; fill: rgb(0, 0, 0); fill-opacity: 1;"/><path class="point" transform="translate(63.88,445.87)" d="M1.25,0A1.25,1.25 0 1,1 0,-1.25A1.25,1.25 0 0,1 1.25,0Z" style="opacity: 0.85; stroke-width: 0px; fill: rgb(0, 0, 0); fill-opacity: 1;"/><path class="point" transform="translate(61.49,437.86)" d="M1.25,0A1.25,1.25 0 1,1 0,-1.25A1.25,1.25 0 0,1 1.25,0Z" style="opacity: 0.85; stroke-width: 0px; fill: rgb(0, 0, 0); fill-opacity: 1;"/></g></g><g class="trace violins" style="opacity: 0.8;"><path class="violin" d="M365.25,1066.68Q365.51,1055.71 365.69,1050.23C365.87,1044.75 366.08,1039.26 366.31,1033.78C366.54,1028.29 366.81,1022.81 367.06,1017.32C367.31,1011.84 367.6,1006.35 367.83,1000.87C368.06,995.38 368.29,989.9 368.45,984.41C368.61,978.93 368.73,973.44 368.78,967.96C368.83,962.48 368.81,956.99 368.78,951.51C368.75,946.02 368.65,940.54 368.57,935.05C368.49,929.57 368.37,924.08 368.32,918.6C368.27,913.12 368.22,907.63 368.24,902.15C368.26,896.66 368.32,891.18 368.42,885.69C368.52,880.21 368.67,874.72 368.83,869.24C368.99,863.76 369.18,858.27 369.37,852.79C369.56,847.3 369.75,841.82 369.95,836.33C370.14,830.85 370.33,825.36 370.54,819.88C370.75,814.4 370.98,808.91 371.22,803.43C371.46,797.94 371.73,792.46 372,786.97C372.26,781.49 372.56,776 372.81,770.52C373.06,765.03 373.32,759.55 373.5,754.06C373.68,748.58 373.81,743.09 373.91,737.61C374.01,732.13 374.01,726.64 374.09,721.16C374.17,715.67 374.18,710.18 374.39,704.7C374.6,699.21 374.81,693.72 375.33,688.25C375.85,682.76 376.52,677.26 377.5,671.8C378.49,666.29 379.76,660.79 381.27,655.34C382.8,649.82 384.65,644.34 386.62,638.89C388.61,633.37 390.91,627.91 393.17,622.44C395.44,616.94 397.9,611.47 400.22,605.98C402.54,600.5 404.88,595.03 407.09,589.53C409.29,584.06 411.38,578.58 413.43,573.08C415.47,567.61 417.36,562.1 419.36,556.62C421.36,551.13 423.28,545.63 425.42,540.17C427.57,534.66 429.81,529.17 432.23,523.71C434.67,518.2 437.33,512.73 440.01,507.26C442.71,501.76 445.64,496.31 448.35,490.81C451.04,485.34 453.88,479.89 456.22,474.35C458.51,468.92 460.75,463.45 462.29,457.9C463.8,452.48 464.96,446.96 465.43,441.45C465.89,435.99 465.75,430.45 465.11,424.99C464.47,419.47 463.12,413.97 461.55,408.54C459.95,403 457.77,397.53 455.55,392.09C453.3,386.56 450.7,381.1 448.13,375.63C445.55,370.13 442.8,364.66 440.1,359.18C437.39,353.69 434.64,348.21 431.9,342.73C429.15,337.24 426.4,331.75 423.62,326.27C420.84,320.78 418.03,315.3 415.22,309.82C412.41,304.33 409.56,298.85 406.76,293.36C403.97,287.88 401.15,282.41 398.46,276.91C395.79,271.44 393.13,265.97 390.67,260.46C388.23,255 385.87,249.52 383.74,244C381.63,238.55 379.68,233.06 377.95,227.55C376.24,222.1 374.72,216.61 373.4,211.1C372.09,205.64 371,200.14 370.06,194.64C369.13,189.17 368.41,183.68 367.79,178.19C367.17,172.71 366.73,167.23 366.35,161.74Q365.97,156.26 365.52,145.28L363.92,145.28Q363.47,156.26 363.09,161.74C362.71,167.23 362.27,172.71 361.65,178.19C361.03,183.68 360.31,189.17 359.38,194.64C358.44,200.14 357.35,205.64 356.04,211.1C354.72,216.61 353.2,222.1 351.49,227.55C349.76,233.06 347.81,238.55 345.7,244C343.57,249.52 341.21,255 338.77,260.46C336.31,265.97 333.65,271.44 330.98,276.91C328.29,282.41 325.47,287.88 322.68,293.36C319.88,298.85 317.03,304.33 314.22,309.82C311.41,315.3 308.6,320.78 305.82,326.27C303.04,331.75 300.29,337.24 297.54,342.73C294.8,348.21 292.05,353.69 289.34,359.18C286.64,364.66 283.89,370.13 281.31,375.63C278.74,381.1 276.14,386.56 273.89,392.09C271.67,397.53 269.49,403 267.89,408.54C266.32,413.97 264.97,419.47 264.33,424.99C263.69,430.45 263.55,435.99 264.01,441.45C264.48,446.96 265.64,452.48 267.15,457.9C268.69,463.45 270.93,468.92 273.22,474.35C275.56,479.89 278.4,485.34 281.09,490.81C283.8,496.31 286.73,501.76 289.43,507.26C292.11,512.73 294.77,518.2 297.21,523.71C299.63,529.17 301.87,534.66 304.02,540.17C306.16,545.63 308.08,551.13 310.08,556.62C312.08,562.1 313.97,567.61 316.01,573.08C318.06,578.58 320.15,584.06 322.35,589.53C324.56,595.03 326.9,600.5 329.22,605.98C331.54,611.47 334,616.94 336.27,622.44C338.53,627.91 340.83,633.37 342.82,638.89C344.79,644.34 346.64,649.82 348.17,655.34C349.68,660.79 350.95,666.29 351.94,671.8C352.92,677.26 353.59,682.76 354.11,688.25C354.63,693.72 354.84,699.21 355.05,704.7C355.26,710.18 355.27,715.67 355.35,721.16C355.43,726.64 355.43,732.13 355.53,737.61C355.63,743.09 355.76,748.58 355.94,754.06C356.12,759.55 356.38,765.03 356.63,770.52C356.88,776 357.18,781.49 357.44,786.97C357.71,792.46 357.98,797.94 358.22,803.43C358.46,808.91 358.69,814.4 358.9,819.88C359.11,825.36 359.3,830.85 359.49,836.33C359.69,841.82 359.88,847.3 360.07,852.79C360.26,858.27 360.45,863.76 360.61,869.24C360.77,874.72 360.92,880.21 361.02,885.69C361.12,891.18 361.18,896.66 361.2,902.15C361.22,907.63 361.17,913.12 361.12,918.6C361.07,924.08 360.95,929.57 360.87,935.05C360.79,940.54 360.69,946.02 360.66,951.51C360.63,956.99 360.61,962.48 360.66,967.96C360.71,973.44 360.83,978.93 360.99,984.41C361.15,989.9 361.38,995.38 361.61,1000.87C361.84,1006.35 362.13,1011.84 362.38,1017.32C362.63,1022.81 362.9,1028.29 363.13,1033.78C363.36,1039.26 363.57,1044.75 363.75,1050.23Q363.93,1055.71 364.19,1066.68Z" style="vector-effect: non-scaling-stroke; stroke-width: 1.5px; stroke: rgb(255, 69, 0); stroke-opacity: 1; fill: rgb(255, 69, 0); fill-opacity: 0.5;"/><path class="box" d="M359.68,445.87H369.76M359.68,525.92H369.76V381.82H359.68ZM364.72,525.92V742.08M364.72,381.82V245.72" style="vector-effect: non-scaling-stroke; stroke-width: 1.5px; stroke: rgb(255, 69, 0); stroke-opacity: 1; fill: rgb(255, 255, 255); fill-opacity: 1;"/><path class="mean" d="M359.68,466.71H369.76" style="fill: none; vector-effect: non-scaling-stroke; stroke-width: 1.5px; stroke-dasharray: 3px, 1.5px; stroke: rgb(255, 69, 0); stroke-opacity: 1;"/><g class="points"><path class="point" transform="translate(259.52,966.24)" d="M1.25,0A1.25,1.25 0 1,1 0,-1.25A1.25,1.25 0 0,1 1.25,0Z" style="opacity: 0.85; stroke-width: 0px; fill: rgb(255, 69, 0); fill-opacity: 1;"/><path class="point" transform="translate(258.24,838.15)" d="M1.25,0A1.25,1.25 0 1,1 0,-1.25A1.25,1.25 0 0,1 1.25,0Z" style="opacity: 0.85; stroke-width: 0px; fill: rgb(255, 69, 0); fill-opacity: 1;"/><path class="point" transform="translate(259.93,742.08)" d="M1.25,0A1.25,1.25 0 1,1 0,-1.25A1.25,1.25 0 0,1 1.25,0Z" style="opacity: 0.85; stroke-width: 0px; fill: rgb(255, 69, 0); fill-opacity: 1;"/><path class="point" transform="translate(257.88,734.08)" d="M1.25,0A1.25,1.25 0 1,1 0,-1.25A1.25,1.25 0 0,1 1.25,0Z" style="opacity: 0.85; stroke-width: 0px; fill: rgb(255, 69, 0); fill-opacity: 1;"/><path class="point" transform="translate(258.64,638.01)" d="M1.25,0A1.25,1.25 0 1,1 0,-1.25A1.25,1.25 0 0,1 1.25,0Z" style="opacity: 0.85; stroke-width: 0px; fill: rgb(255, 69, 0); fill-opacity: 1;"/><path class="point" transform="translate(259.73,597.98)" d="M1.25,0A1.25,1.25 0 1,1 0,-1.25A1.25,1.25 0 0,1 1.25,0Z" style="opacity: 0.85; stroke-width: 0px; fill: rgb(255, 69, 0); fill-opacity: 1;"/><path class="point" transform="translate(258.91,597.98)" d="M1.25,0A1.25,1.25 0 1,1 0,-1.25A1.25,1.25 0 0,1 1.25,0Z" style="opacity: 0.85; stroke-width: 0px; fill: rgb(255, 69, 0); fill-opacity: 1;"/><path class="point" transform="translate(259.58,589.97)" d="M1.25,0A1.25,1.25 0 1,1 0,-1.25A1.25,1.25 0 0,1 1.25,0Z" style="opacity: 0.85; stroke-width: 0px; fill: rgb(255, 69, 0); fill-opacity: 1;"/><path class="point" transform="translate(258.32,573.96)" d="M1.25,0A1.25,1.25 0 1,1 0,-1.25A1.25,1.25 0 0,1 1.25,0Z" style="opacity: 0.85; stroke-width: 0px; fill: rgb(255, 69, 0); fill-opacity: 1;"/><path class="point" transform="translate(257,573.96)" d="M1.25,0A1.25,1.25 0 1,1 0,-1.25A1.25,1.25 0 0,1 1.25,0Z" style="opacity: 0.85; stroke-width: 0px; fill: rgb(255, 69, 0); fill-opacity: 1;"/><path class="point" transform="translate(259.82,573.96)" d="M1.25,0A1.25,1.25 0 1,1 0,-1.25A1.25,1.25 0 0,1 1.25,0Z" style="opacity: 0.85; stroke-width: 0px; fill: rgb(255, 69, 0); fill-opacity: 1;"/><path class="point" transform="translate(257.97,557.95)" d="M1.25,0A1.25,1.25 0 1,1 0,-1.25A1.25,1.25 0 0,1 1.25,0Z" style="opacity: 0.85; stroke-width: 0px; fill: rgb(255, 69, 0); fill-opacity: 1;"/><path class="point" transform="translate(260.82,557.95)" d="M1.25,0A1.25,1.25 0 1,1 0,-1.25A1.25,1.25 0 0,1 1.25,0Z" style="opacity: 0.85; stroke-width: 0px; fill: rgb(255, 69, 0); fill-opacity: 1;"/><path class="point" transform="translate(255.87,541.94)" d="M1.25,0A1.25,1.25 0 1,1 0,-1.25A1.25,1.25 0 0,1 1.25,0Z" style="opacity: 0.85; stroke-width: 0px; fill: rgb(255, 69, 0); fill-opacity: 1;"/><path class="point" transform="translate(257.22,525.92)" d="M1.25,0A1.25,1.25 0 1,1 0,-1.25A1.25,1.25 0 0,1 1.25,0Z" style="opacity: 0.85; stroke-width: 0px; fill: rgb(255, 69, 0); fill-opacity: 1;"/><path class="point" transform="translate(261.54,517.92)" d="M1.25,0A1.25,1.25 0 1,1 0,-1.25A1.25,1.25 0 0,1 1.25,0Z" style="opacity: 0.85; stroke-width: 0px; fill: rgb(255, 69, 0); fill-opacity: 1;"/><path class="point" transform="translate(258.17,509.91)" d="M1.25,0A1.25,1.25 0 1,1 0,-1.25A1.25,1.25 0 0,1 1.25,0Z" style="opacity: 0.85; stroke-width: 0px; fill: rgb(255, 69, 0); fill-opacity: 1;"/><path class="point" transform="translate(256.37,493.9)" d="M1.25,0A1.25,1.25 0 1,1 0,-1.25A1.25,1.25 0 0,1 1.25,0Z" style="opacity: 0.85; stroke-width: 0px; fill: rgb(255, 69, 0); fill-opacity: 1;"/><path class="point" transform="translate(257.86,493.9)" d="M1.25,0A1.25,1.25 0 1,1 0,-1.25A1.25,1.25 0 0,1 1.25,0Z" style="opacity: 0.85; stroke-width: 0px; fill: rgb(255, 69, 0); fill-opacity: 1;"/><path class="point" transform="translate(258.9,485.9)" d="M1.25,0A1.25,1.25 0 1,1 0,-1.25A1.25,1.25 0 0,1 1.25,0Z" style="opacity: 0.85; stroke-width: 0px; fill: rgb(255, 69, 0); fill-opacity: 1;"/><path class="point" transform="translate(260.68,477.89)" d="M1.25,0A1.25,1.25 0 1,1 0,-1.25A1.25,1.25 0 0,1 1.25,0Z" style="opacity: 0.85; stroke-width: 0px; fill: rgb(255, 69, 0); fill-opacity: 1;"/><path class="point" transform="translate(259.4,477.89)" d="M1.25,0A1.25,1.25 0 1,1 0,-1.25A1.25,1.25 0 0,1 1.25,0Z" style="opacity: 0.85; stroke-width: 0px; fill: rgb(255, 69, 0); fill-opacity: 1;"/><path class="point" transform="translate(257.7,469.88)" d="M1.25,0A1.25,1.25 0 1,1 0,-1.25A1.25,1.25 0 0,1 1.25,0Z" style="opacity: 0.85; stroke-width: 0px; fill: rgb(255, 69, 0); fill-opacity: 1;"/><path class="point" transform="translate(255.54,469.88)" d="M1.25,0A1.25,1.25 0 1,1 0,-1.25A1.25,1.25 0 0,1 1.25,0Z" style="opacity: 0.85; stroke-width: 0px; fill: rgb(255, 69, 0); fill-opacity: 1;"/><path class="point" transform="translate(258.96,461.88)" d="M1.25,0A1.25,1.25 0 1,1 0,-1.25A1.25,1.25 0 0,1 1.25,0Z" style="opacity: 0.85; stroke-width: 0px; fill: rgb(255, 69, 0); fill-opacity: 1;"/><path class="point" transform="translate(257.66,461.88)" d="M1.25,0A1.25,1.25 0 1,1 0,-1.25A1.25,1.25 0 0,1 1.25,0Z" style="opacity: 0.85; stroke-width: 0px; fill: rgb(255, 69, 0); fill-opacity: 1;"/><path class="point" transform="translate(261.07,453.87)" d="M1.25,0A1.25,1.25 0 1,1 0,-1.25A1.25,1.25 0 0,1 1.25,0Z" style="opacity: 0.85; stroke-width: 0px; fill: rgb(255, 69, 0); fill-opacity: 1;"/><path class="point" transform="translate(258.57,453.87)" d="M1.25,0A1.25,1.25 0 1,1 0,-1.25A1.25,1.25 0 0,1 1.25,0Z" style="opacity: 0.85; stroke-width: 0px; fill: rgb(255, 69, 0); fill-opacity: 1;"/><path class="point" transform="translate(256.03,445.87)" d="M1.25,0A1.25,1.25 0 1,1 0,-1.25A1.25,1.25 0 0,1 1.25,0Z" style="opacity: 0.85; stroke-width: 0px; fill: rgb(255, 69, 0); fill-opacity: 1;"/><path class="point" transform="translate(254.77,445.87)" d="M1.25,0A1.25,1.25 0 1,1 0,-1.25A1.25,1.25 0 0,1 1.25,0Z" style="opacity: 0.85; stroke-width: 0px; fill: rgb(255, 69, 0); fill-opacity: 1;"/><path class="point" transform="translate(261.51,437.86)" d="M1.25,0A1.25,1.25 0 1,1 0,-1.25A1.25,1.25 0 0,1 1.25,0Z" style="opacity: 0.85; stroke-width: 0px; fill: rgb(255, 69, 0); fill-opacity: 1;"/><path class="point" transform="translate(255.13,437.86)" d="M1.25,0A1.25,1.25 0 1,1 0,-1.25A1.25,1.25 0 0,1 1.25,0Z" style="opacity: 0.85; stroke-width: 0px; fill: rgb(255, 69, 0); fill-opacity: 1;"/><path class="point" transform="translate(261.65,429.86)" d="M1.25,0A1.25,1.25 0 1,1 0,-1.25A1.25,1.25 0 0,1 1.25,0Z" style="opacity: 0.85; stroke-width: 0px; fill: rgb(255, 69, 0); fill-opacity: 1;"/><path class="point" transform="translate(259.96,429.86)" d="M1.25,0A1.25,1.25 0 1,1 0,-1.25A1.25,1.25 0 0,1 1.25,0Z" style="opacity: 0.85; stroke-width: 0px; fill: rgb(255, 69, 0); fill-opacity: 1;"/><path class="point" transform="translate(257.63,421.85)" d="M1.25,0A1.25,1.25 0 1,1 0,-1.25A1.25,1.25 0 0,1 1.25,0Z" style="opacity: 0.85; stroke-width: 0px; fill: rgb(255, 69, 0); fill-opacity: 1;"/><path class="point" transform="translate(255.99,421.85)" d="M1.25,0A1.25,1.25 0 1,1 0,-1.25A1.25,1.25 0 0,1 1.25,0Z" style="opacity: 0.85; stroke-width: 0px; fill: rgb(255, 69, 0); fill-opacity: 1;"/><path class="point" transform="translate(261.01,413.84)" d="M1.25,0A1.25,1.25 0 1,1 0,-1.25A1.25,1.25 0 0,1 1.25,0Z" style="opacity: 0.85; stroke-width: 0px; fill: rgb(255, 69, 0); fill-opacity: 1;"/><path class="point" transform="translate(258.43,413.84)" d="M1.25,0A1.25,1.25 0 1,1 0,-1.25A1.25,1.25 0 0,1 1.25,0Z" style="opacity: 0.85; stroke-width: 0px; fill: rgb(255, 69, 0); fill-opacity: 1;"/><path class="point" transform="translate(261.8,405.84)" d="M1.25,0A1.25,1.25 0 1,1 0,-1.25A1.25,1.25 0 0,1 1.25,0Z" style="opacity: 0.85; stroke-width: 0px; fill: rgb(255, 69, 0); fill-opacity: 1;"/><path class="point" transform="translate(255.19,405.84)" d="M1.25,0A1.25,1.25 0 1,1 0,-1.25A1.25,1.25 0 0,1 1.25,0Z" style="opacity: 0.85; stroke-width: 0px; fill: rgb(255, 69, 0); fill-opacity: 1;"/><path class="point" transform="translate(261.25,405.84)" d="M1.25,0A1.25,1.25 0 1,1 0,-1.25A1.25,1.25 0 0,1 1.25,0Z" style="opacity: 0.85; stroke-width: 0px; fill: rgb(255, 69, 0); fill-opacity: 1;"/><path class="point" transform="translate(258.68,397.83)" d="M1.25,0A1.25,1.25 0 1,1 0,-1.25A1.25,1.25 0 0,1 1.25,0Z" style="opacity: 0.85; stroke-width: 0px; fill: rgb(255, 69, 0); fill-opacity: 1;"/><path class="point" transform="translate(257.57,397.83)" d="M1.25,0A1.25,1.25 0 1,1 0,-1.25A1.25,1.25 0 0,1 1.25,0Z" style="opacity: 0.85; stroke-width: 0px; fill: rgb(255, 69, 0); fill-opacity: 1;"/><path class="point" transform="translate(255.23,381.82)" d="M1.25,0A1.25,1.25 0 1,1 0,-1.25A1.25,1.25 0 0,1 1.25,0Z" style="opacity: 0.85; stroke-width: 0px; fill: rgb(255, 69, 0); fill-opacity: 1;"/><path class="point" transform="translate(257.58,381.82)" d="M1.25,0A1.25,1.25 0 1,1 0,-1.25A1.25,1.25 0 0,1 1.25,0Z" style="opacity: 0.85; stroke-width: 0px; fill: rgb(255, 69, 0); fill-opacity: 1;"/><path class="point" transform="translate(261.35,357.8)" d="M1.25,0A1.25,1.25 0 1,1 0,-1.25A1.25,1.25 0 0,1 1.25,0Z" style="opacity: 0.85; stroke-width: 0px; fill: rgb(255, 69, 0); fill-opacity: 1;"/><path class="point" transform="translate(258.17,349.8)" d="M1.25,0A1.25,1.25 0 1,1 0,-1.25A1.25,1.25 0 0,1 1.25,0Z" style="opacity: 0.85; stroke-width: 0px; fill: rgb(255, 69, 0); fill-opacity: 1;"/><path class="point" transform="translate(256.5,349.8)" d="M1.25,0A1.25,1.25 0 1,1 0,-1.25A1.25,1.25 0 0,1 1.25,0Z" style="opacity: 0.85; stroke-width: 0px; fill: rgb(255, 69, 0); fill-opacity: 1;"/><path class="point" transform="translate(260.6,349.8)" d="M1.25,0A1.25,1.25 0 1,1 0,-1.25A1.25,1.25 0 0,1 1.25,0Z" style="opacity: 0.85; stroke-width: 0px; fill: rgb(255, 69, 0); fill-opacity: 1;"/><path class="point" transform="translate(257.27,341.79)" d="M1.25,0A1.25,1.25 0 1,1 0,-1.25A1.25,1.25 0 0,1 1.25,0Z" style="opacity: 0.85; stroke-width: 0px; fill: rgb(255, 69, 0); fill-opacity: 1;"/><path class="point" transform="translate(258.97,341.79)" d="M1.25,0A1.25,1.25 0 1,1 0,-1.25A1.25,1.25 0 0,1 1.25,0Z" style="opacity: 0.85; stroke-width: 0px; fill: rgb(255, 69, 0); fill-opacity: 1;"/><path class="point" transform="translate(260.41,325.78)" d="M1.25,0A1.25,1.25 0 1,1 0,-1.25A1.25,1.25 0 0,1 1.25,0Z" style="opacity: 0.85; stroke-width: 0px; fill: rgb(255, 69, 0); fill-opacity: 1;"/><path class="point" transform="translate(256.26,317.77)" d="M1.25,0A1.25,1.25 0 1,1 0,-1.25A1.25,1.25 0 0,1 1.25,0Z" style="opacity: 0.85; stroke-width: 0px; fill: rgb(255, 69, 0); fill-opacity: 1;"/><path class="point" transform="translate(261.46,309.77)" d="M1.25,0A1.25,1.25 0 1,1 0,-1.25A1.25,1.25 0 0,1 1.25,0Z" style="opacity: 0.85; stroke-width: 0px; fill: rgb(255, 69, 0); fill-opacity: 1;"/><path class="point" transform="translate(260.05,301.76)" d="M1.25,0A1.25,1.25 0 1,1 0,-1.25A1.25,1.25 0 0,1 1.25,0Z" style="opacity: 0.85; stroke-width: 0px; fill: rgb(255, 69, 0); fill-opacity: 1;"/><path class="point" transform="translate(256.82,285.75)" d="M1.25,0A1.25,1.25 0 1,1 0,-1.25A1.25,1.25 0 0,1 1.25,0Z" style="opacity: 0.85; stroke-width: 0px; fill: rgb(255, 69, 0); fill-opacity: 1;"/><path class="point" transform="translate(260.93,277.75)" d="M1.25,0A1.25,1.25 0 1,1 0,-1.25A1.25,1.25 0 0,1 1.25,0Z" style="opacity: 0.85; stroke-width: 0px; fill: rgb(255, 69, 0); fill-opacity: 1;"/><path class="point" transform="translate(257.23,245.72)" d="M1.25,0A1.25,1.25 0 1,1 0,-1.25A1.25,1.25 0 0,1 1.25,0Z" style="opacity: 0.85; stroke-width: 0px; fill: rgb(255, 69, 0); fill-opacity: 1;"/></g></g><g class="trace violins" style="opacity: 0.8;"><path class="violin" d="M566.79,1054.86Q567.17,1040.66 567.49,1033.56C567.81,1026.46 568.19,1019.35 568.72,1012.25C569.26,1005.14 569.88,998.03 570.7,990.94C571.52,983.83 572.48,976.72 573.64,969.63C574.8,962.51 576.14,955.4 577.66,948.32C579.18,941.2 580.92,934.1 582.77,927.02C584.63,919.9 586.69,912.8 588.8,905.71C590.91,898.59 593.19,891.5 595.43,884.4C597.67,877.29 600,870.2 602.23,863.09C604.45,856 606.68,848.9 608.78,841.79C610.87,834.7 612.89,827.6 614.79,820.48C616.69,813.39 618.46,806.28 620.18,799.17C621.89,792.08 623.5,784.97 625.09,777.86C626.68,770.76 628.23,763.66 629.72,756.55C631.21,749.45 632.71,742.36 634.05,735.25C635.38,728.16 636.72,721.06 637.73,713.94C638.74,706.85 639.63,699.74 640.11,692.63C640.59,685.54 640.79,678.42 640.61,671.32C640.43,664.21 639.85,657.1 639.05,650.01C638.25,642.89 637.06,635.8 635.8,628.71C634.54,621.59 633.01,614.49 631.49,607.4C629.97,600.29 628.33,593.19 626.67,586.09C625.01,578.98 623.29,571.88 621.55,564.78C619.81,557.67 617.99,550.58 616.21,543.48C614.42,536.38 612.57,529.28 610.84,522.17C609.11,515.07 607.38,507.98 605.82,500.86C604.27,493.77 602.82,486.66 601.5,479.55C600.19,472.46 599.05,465.35 597.94,458.24C596.83,451.14 595.87,444.04 594.82,436.94C593.76,429.84 592.75,422.73 591.61,415.63C590.46,408.52 589.25,401.42 587.95,394.32C586.65,387.21 585.2,380.11 583.79,373.01C582.38,365.9 580.86,358.81 579.47,351.7C578.08,344.6 576.68,337.51 575.45,330.4C574.23,323.31 573.09,316.2 572.12,309.09C571.16,302 570.34,294.89 569.66,287.78C568.98,280.68 568.46,273.58 568.03,266.47Q567.6,259.37 567.06,245.16L565.22,245.16Q564.69,259.37 564.26,266.47C563.83,273.58 563.31,280.68 562.63,287.78C561.95,294.89 561.13,302 560.17,309.09C559.2,316.2 558.06,323.31 556.84,330.4C555.61,337.51 554.2,344.6 552.81,351.7C551.42,358.81 549.9,365.9 548.49,373.01C547.08,380.11 545.64,387.21 544.34,394.32C543.04,401.42 541.82,408.52 540.67,415.63C539.53,422.73 538.53,429.84 537.47,436.94C536.42,444.04 535.45,451.14 534.34,458.24C533.23,465.35 532.1,472.46 530.79,479.55C529.47,486.66 528.02,493.77 526.46,500.86C524.9,507.98 523.17,515.07 521.44,522.17C519.71,529.28 517.85,536.38 516.07,543.48C514.29,550.58 512.48,557.68 510.74,564.78C509,571.88 507.28,578.98 505.62,586.09C503.96,593.19 502.31,600.29 500.79,607.4C499.27,614.49 497.75,621.59 496.49,628.71C495.24,635.8 494.04,642.89 493.24,650.01C492.44,657.1 491.86,664.21 491.68,671.32C491.5,678.42 491.69,685.54 492.17,692.63C492.65,699.74 493.55,706.85 494.56,713.94C495.57,721.06 496.91,728.16 498.24,735.25C499.58,742.36 501.08,749.45 502.57,756.55C504.06,763.66 505.6,770.76 507.19,777.86C508.78,784.97 510.39,792.08 512.1,799.17C513.82,806.28 515.59,813.39 517.49,820.48C519.39,827.6 521.41,834.7 523.5,841.79C525.6,848.9 527.84,855.99 530.06,863.09C532.29,870.2 534.62,877.29 536.86,884.4C539.1,891.5 541.38,898.59 543.49,905.71C545.6,912.8 547.66,919.9 549.52,927.02C551.37,934.1 553.11,941.2 554.63,948.32C556.15,955.4 557.49,962.51 558.65,969.63C559.81,976.72 560.77,983.83 561.59,990.94C562.41,998.03 563.03,1005.14 563.56,1012.25C564.09,1019.35 564.47,1026.46 564.79,1033.56Q565.11,1040.66 565.49,1054.86Z" style="vector-effect: non-scaling-stroke; stroke-width: 1.5px; stroke: rgb(25, 25, 112); stroke-opacity: 1; fill: rgb(25, 25, 112); fill-opacity: 0.5;"/><path class="box" d="M561.11,666.03H571.18M561.11,758.09H571.18V557.95H561.11ZM566.14,758.09V926.21M566.14,557.95V373.81" style="vector-effect: non-scaling-stroke; stroke-width: 1.5px; stroke: rgb(25, 25, 112); stroke-opacity: 1; fill: rgb(255, 255, 255); fill-opacity: 1;"/><path class="mean" d="M561.11,658.99H571.18" style="fill: none; vector-effect: non-scaling-stroke; stroke-width: 1.5px; stroke-dasharray: 3px, 1.5px; stroke: rgb(25, 25, 112); stroke-opacity: 1;"/><g class="points"><path class="point" transform="translate(476.62,926.21)" d="M1.25,0A1.25,1.25 0 1,1 0,-1.25A1.25,1.25 0 0,1 1.25,0Z" style="opacity: 0.85; stroke-width: 0px; fill: rgb(25, 25, 112); fill-opacity: 1;"/><path class="point" transform="translate(474.17,878.18)" d="M1.25,0A1.25,1.25 0 1,1 0,-1.25A1.25,1.25 0 0,1 1.25,0Z" style="opacity: 0.85; stroke-width: 0px; fill: rgb(25, 25, 112); fill-opacity: 1;"/><path class="point" transform="translate(477.25,878.18)" d="M1.25,0A1.25,1.25 0 1,1 0,-1.25A1.25,1.25 0 0,1 1.25,0Z" style="opacity: 0.85; stroke-width: 0px; fill: rgb(25, 25, 112); fill-opacity: 1;"/><path class="point" transform="translate(473.47,870.17)" d="M1.25,0A1.25,1.25 0 1,1 0,-1.25A1.25,1.25 0 0,1 1.25,0Z" style="opacity: 0.85; stroke-width: 0px; fill: rgb(25, 25, 112); fill-opacity: 1;"/><path class="point" transform="translate(474.89,854.16)" d="M1.25,0A1.25,1.25 0 1,1 0,-1.25A1.25,1.25 0 0,1 1.25,0Z" style="opacity: 0.85; stroke-width: 0px; fill: rgb(25, 25, 112); fill-opacity: 1;"/><path class="point" transform="translate(476.82,838.15)" d="M1.25,0A1.25,1.25 0 1,1 0,-1.25A1.25,1.25 0 0,1 1.25,0Z" style="opacity: 0.85; stroke-width: 0px; fill: rgb(25, 25, 112); fill-opacity: 1;"/><path class="point" transform="translate(475.38,814.13)" d="M1.25,0A1.25,1.25 0 1,1 0,-1.25A1.25,1.25 0 0,1 1.25,0Z" style="opacity: 0.85; stroke-width: 0px; fill: rgb(25, 25, 112); fill-opacity: 1;"/><path class="point" transform="translate(476.35,814.13)" d="M1.25,0A1.25,1.25 0 1,1 0,-1.25A1.25,1.25 0 0,1 1.25,0Z" style="opacity: 0.85; stroke-width: 0px; fill: rgb(25, 25, 112); fill-opacity: 1;"/><path class="point" transform="translate(474.57,814.13)" d="M1.25,0A1.25,1.25 0 1,1 0,-1.25A1.25,1.25 0 0,1 1.25,0Z" style="opacity: 0.85; stroke-width: 0px; fill: rgb(25, 25, 112); fill-opacity: 1;"/><path class="point" transform="translate(473.37,806.13)" d="M1.25,0A1.25,1.25 0 1,1 0,-1.25A1.25,1.25 0 0,1 1.25,0Z" style="opacity: 0.85; stroke-width: 0px; fill: rgb(25, 25, 112); fill-opacity: 1;"/><path class="point" transform="translate(476.31,798.12)" d="M1.25,0A1.25,1.25 0 1,1 0,-1.25A1.25,1.25 0 0,1 1.25,0Z" style="opacity: 0.85; stroke-width: 0px; fill: rgb(25, 25, 112); fill-opacity: 1;"/><path class="point" transform="translate(474.33,798.12)" d="M1.25,0A1.25,1.25 0 1,1 0,-1.25A1.25,1.25 0 0,1 1.25,0Z" style="opacity: 0.85; stroke-width: 0px; fill: rgb(25, 25, 112); fill-opacity: 1;"/><path class="point" transform="translate(477.63,782.11)" d="M1.25,0A1.25,1.25 0 1,1 0,-1.25A1.25,1.25 0 0,1 1.25,0Z" style="opacity: 0.85; stroke-width: 0px; fill: rgb(25, 25, 112); fill-opacity: 1;"/><path class="point" transform="translate(472.4,774.1)" d="M1.25,0A1.25,1.25 0 1,1 0,-1.25A1.25,1.25 0 0,1 1.25,0Z" style="opacity: 0.85; stroke-width: 0px; fill: rgb(25, 25, 112); fill-opacity: 1;"/><path class="point" transform="translate(473.66,758.09)" d="M1.25,0A1.25,1.25 0 1,1 0,-1.25A1.25,1.25 0 0,1 1.25,0Z" style="opacity: 0.85; stroke-width: 0px; fill: rgb(25, 25, 112); fill-opacity: 1;"/><path class="point" transform="translate(478.07,750.09)" d="M1.25,0A1.25,1.25 0 1,1 0,-1.25A1.25,1.25 0 0,1 1.25,0Z" style="opacity: 0.85; stroke-width: 0px; fill: rgb(25, 25, 112); fill-opacity: 1;"/><path class="point" transform="translate(474.8,750.09)" d="M1.25,0A1.25,1.25 0 1,1 0,-1.25A1.25,1.25 0 0,1 1.25,0Z" style="opacity: 0.85; stroke-width: 0px; fill: rgb(25, 25, 112); fill-opacity: 1;"/><path class="point" transform="translate(472.9,742.08)" d="M1.25,0A1.25,1.25 0 1,1 0,-1.25A1.25,1.25 0 0,1 1.25,0Z" style="opacity: 0.85; stroke-width: 0px; fill: rgb(25, 25, 112); fill-opacity: 1;"/><path class="point" transform="translate(474.5,734.08)" d="M1.25,0A1.25,1.25 0 1,1 0,-1.25A1.25,1.25 0 0,1 1.25,0Z" style="opacity: 0.85; stroke-width: 0px; fill: rgb(25, 25, 112); fill-opacity: 1;"/><path class="point" transform="translate(475.43,726.07)" d="M1.25,0A1.25,1.25 0 1,1 0,-1.25A1.25,1.25 0 0,1 1.25,0Z" style="opacity: 0.85; stroke-width: 0px; fill: rgb(25, 25, 112); fill-opacity: 1;"/><path class="point" transform="translate(477.01,702.05)" d="M1.25,0A1.25,1.25 0 1,1 0,-1.25A1.25,1.25 0 0,1 1.25,0Z" style="opacity: 0.85; stroke-width: 0px; fill: rgb(25, 25, 112); fill-opacity: 1;"/><path class="point" transform="translate(475.88,694.05)" d="M1.25,0A1.25,1.25 0 1,1 0,-1.25A1.25,1.25 0 0,1 1.25,0Z" style="opacity: 0.85; stroke-width: 0px; fill: rgb(25, 25, 112); fill-opacity: 1;"/><path class="point" transform="translate(474.5,694.05)" d="M1.25,0A1.25,1.25 0 1,1 0,-1.25A1.25,1.25 0 0,1 1.25,0Z" style="opacity: 0.85; stroke-width: 0px; fill: rgb(25, 25, 112); fill-opacity: 1;"/><path class="point" transform="translate(472.53,686.04)" d="M1.25,0A1.25,1.25 0 1,1 0,-1.25A1.25,1.25 0 0,1 1.25,0Z" style="opacity: 0.85; stroke-width: 0px; fill: rgb(25, 25, 112); fill-opacity: 1;"/><path class="point" transform="translate(475.49,686.04)" d="M1.25,0A1.25,1.25 0 1,1 0,-1.25A1.25,1.25 0 0,1 1.25,0Z" style="opacity: 0.85; stroke-width: 0px; fill: rgb(25, 25, 112); fill-opacity: 1;"/><path class="point" transform="translate(474.19,678.03)" d="M1.25,0A1.25,1.25 0 1,1 0,-1.25A1.25,1.25 0 0,1 1.25,0Z" style="opacity: 0.85; stroke-width: 0px; fill: rgb(25, 25, 112); fill-opacity: 1;"/><path class="point" transform="translate(477.6,678.03)" d="M1.25,0A1.25,1.25 0 1,1 0,-1.25A1.25,1.25 0 0,1 1.25,0Z" style="opacity: 0.85; stroke-width: 0px; fill: rgb(25, 25, 112); fill-opacity: 1;"/><path class="point" transform="translate(475.1,678.03)" d="M1.25,0A1.25,1.25 0 1,1 0,-1.25A1.25,1.25 0 0,1 1.25,0Z" style="opacity: 0.85; stroke-width: 0px; fill: rgb(25, 25, 112); fill-opacity: 1;"/><path class="point" transform="translate(472.21,670.03)" d="M1.25,0A1.25,1.25 0 1,1 0,-1.25A1.25,1.25 0 0,1 1.25,0Z" style="opacity: 0.85; stroke-width: 0px; fill: rgb(25, 25, 112); fill-opacity: 1;"/><path class="point" transform="translate(470.8,662.02)" d="M1.25,0A1.25,1.25 0 1,1 0,-1.25A1.25,1.25 0 0,1 1.25,0Z" style="opacity: 0.85; stroke-width: 0px; fill: rgb(25, 25, 112); fill-opacity: 1;"/><path class="point" transform="translate(478.34,662.02)" d="M1.25,0A1.25,1.25 0 1,1 0,-1.25A1.25,1.25 0 0,1 1.25,0Z" style="opacity: 0.85; stroke-width: 0px; fill: rgb(25, 25, 112); fill-opacity: 1;"/><path class="point" transform="translate(471.65,654.02)" d="M1.25,0A1.25,1.25 0 1,1 0,-1.25A1.25,1.25 0 0,1 1.25,0Z" style="opacity: 0.85; stroke-width: 0px; fill: rgb(25, 25, 112); fill-opacity: 1;"/><path class="point" transform="translate(477.95,654.02)" d="M1.25,0A1.25,1.25 0 1,1 0,-1.25A1.25,1.25 0 0,1 1.25,0Z" style="opacity: 0.85; stroke-width: 0px; fill: rgb(25, 25, 112); fill-opacity: 1;"/><path class="point" transform="translate(476.2,654.02)" d="M1.25,0A1.25,1.25 0 1,1 0,-1.25A1.25,1.25 0 0,1 1.25,0Z" style="opacity: 0.85; stroke-width: 0px; fill: rgb(25, 25, 112); fill-opacity: 1;"/><path class="point" transform="translate(474.6,654.02)" d="M1.25,0A1.25,1.25 0 1,1 0,-1.25A1.25,1.25 0 0,1 1.25,0Z" style="opacity: 0.85; stroke-width: 0px; fill: rgb(25, 25, 112); fill-opacity: 1;"/><path class="point" transform="translate(473.7,646.01)" d="M1.25,0A1.25,1.25 0 1,1 0,-1.25A1.25,1.25 0 0,1 1.25,0Z" style="opacity: 0.85; stroke-width: 0px; fill: rgb(25, 25, 112); fill-opacity: 1;"/><path class="point" transform="translate(476.94,638.01)" d="M1.25,0A1.25,1.25 0 1,1 0,-1.25A1.25,1.25 0 0,1 1.25,0Z" style="opacity: 0.85; stroke-width: 0px; fill: rgb(25, 25, 112); fill-opacity: 1;"/><path class="point" transform="translate(475.19,630)" d="M1.25,0A1.25,1.25 0 1,1 0,-1.25A1.25,1.25 0 0,1 1.25,0Z" style="opacity: 0.85; stroke-width: 0px; fill: rgb(25, 25, 112); fill-opacity: 1;"/><path class="point" transform="translate(477.5,589.97)" d="M1.25,0A1.25,1.25 0 1,1 0,-1.25A1.25,1.25 0 0,1 1.25,0Z" style="opacity: 0.85; stroke-width: 0px; fill: rgb(25, 25, 112); fill-opacity: 1;"/><path class="point" transform="translate(473.15,573.96)" d="M1.25,0A1.25,1.25 0 1,1 0,-1.25A1.25,1.25 0 0,1 1.25,0Z" style="opacity: 0.85; stroke-width: 0px; fill: rgb(25, 25, 112); fill-opacity: 1;"/><path class="point" transform="translate(477.36,573.96)" d="M1.25,0A1.25,1.25 0 1,1 0,-1.25A1.25,1.25 0 0,1 1.25,0Z" style="opacity: 0.85; stroke-width: 0px; fill: rgb(25, 25, 112); fill-opacity: 1;"/><path class="point" transform="translate(475.25,573.96)" d="M1.25,0A1.25,1.25 0 1,1 0,-1.25A1.25,1.25 0 0,1 1.25,0Z" style="opacity: 0.85; stroke-width: 0px; fill: rgb(25, 25, 112); fill-opacity: 1;"/><path class="point" transform="translate(474.25,557.95)" d="M1.25,0A1.25,1.25 0 1,1 0,-1.25A1.25,1.25 0 0,1 1.25,0Z" style="opacity: 0.85; stroke-width: 0px; fill: rgb(25, 25, 112); fill-opacity: 1;"/><path class="point" transform="translate(471.45,557.95)" d="M1.25,0A1.25,1.25 0 1,1 0,-1.25A1.25,1.25 0 0,1 1.25,0Z" style="opacity: 0.85; stroke-width: 0px; fill: rgb(25, 25, 112); fill-opacity: 1;"/><path class="point" transform="translate(473.89,549.94)" d="M1.25,0A1.25,1.25 0 1,1 0,-1.25A1.25,1.25 0 0,1 1.25,0Z" style="opacity: 0.85; stroke-width: 0px; fill: rgb(25, 25, 112); fill-opacity: 1;"/><path class="point" transform="translate(477.37,549.94)" d="M1.25,0A1.25,1.25 0 1,1 0,-1.25A1.25,1.25 0 0,1 1.25,0Z" style="opacity: 0.85; stroke-width: 0px; fill: rgb(25, 25, 112); fill-opacity: 1;"/><path class="point" transform="translate(474.86,549.94)" d="M1.25,0A1.25,1.25 0 1,1 0,-1.25A1.25,1.25 0 0,1 1.25,0Z" style="opacity: 0.85; stroke-width: 0px; fill: rgb(25, 25, 112); fill-opacity: 1;"/><path class="point" transform="translate(473.48,549.94)" d="M1.25,0A1.25,1.25 0 1,1 0,-1.25A1.25,1.25 0 0,1 1.25,0Z" style="opacity: 0.85; stroke-width: 0px; fill: rgb(25, 25, 112); fill-opacity: 1;"/><path class="point" transform="translate(476.68,541.94)" d="M1.25,0A1.25,1.25 0 1,1 0,-1.25A1.25,1.25 0 0,1 1.25,0Z" style="opacity: 0.85; stroke-width: 0px; fill: rgb(25, 25, 112); fill-opacity: 1;"/><path class="point" transform="translate(474.15,525.92)" d="M1.25,0A1.25,1.25 0 1,1 0,-1.25A1.25,1.25 0 0,1 1.25,0Z" style="opacity: 0.85; stroke-width: 0px; fill: rgb(25, 25, 112); fill-opacity: 1;"/><path class="point" transform="translate(475.5,469.88)" d="M1.25,0A1.25,1.25 0 1,1 0,-1.25A1.25,1.25 0 0,1 1.25,0Z" style="opacity: 0.85; stroke-width: 0px; fill: rgb(25, 25, 112); fill-opacity: 1;"/><path class="point" transform="translate(476.47,461.88)" d="M1.25,0A1.25,1.25 0 1,1 0,-1.25A1.25,1.25 0 0,1 1.25,0Z" style="opacity: 0.85; stroke-width: 0px; fill: rgb(25, 25, 112); fill-opacity: 1;"/><path class="point" transform="translate(473.42,437.86)" d="M1.25,0A1.25,1.25 0 1,1 0,-1.25A1.25,1.25 0 0,1 1.25,0Z" style="opacity: 0.85; stroke-width: 0px; fill: rgb(25, 25, 112); fill-opacity: 1;"/><path class="point" transform="translate(477.46,421.85)" d="M1.25,0A1.25,1.25 0 1,1 0,-1.25A1.25,1.25 0 0,1 1.25,0Z" style="opacity: 0.85; stroke-width: 0px; fill: rgb(25, 25, 112); fill-opacity: 1;"/><path class="point" transform="translate(476.36,421.85)" d="M1.25,0A1.25,1.25 0 1,1 0,-1.25A1.25,1.25 0 0,1 1.25,0Z" style="opacity: 0.85; stroke-width: 0px; fill: rgb(25, 25, 112); fill-opacity: 1;"/><path class="point" transform="translate(473.35,421.85)" d="M1.25,0A1.25,1.25 0 1,1 0,-1.25A1.25,1.25 0 0,1 1.25,0Z" style="opacity: 0.85; stroke-width: 0px; fill: rgb(25, 25, 112); fill-opacity: 1;"/><path class="point" transform="translate(477.37,389.83)" d="M1.25,0A1.25,1.25 0 1,1 0,-1.25A1.25,1.25 0 0,1 1.25,0Z" style="opacity: 0.85; stroke-width: 0px; fill: rgb(25, 25, 112); fill-opacity: 1;"/><path class="point" transform="translate(473.65,373.81)" d="M1.25,0A1.25,1.25 0 1,1 0,-1.25A1.25,1.25 0 0,1 1.25,0Z" style="opacity: 0.85; stroke-width: 0px; fill: rgb(25, 25, 112); fill-opacity: 1;"/></g></g><g class="trace violins" style="opacity: 0.8;"><path class="violin" d="M768.53,1197Q769.06,1176 769.48,1165.5C769.9,1155 770.41,1144.5 771.05,1134C771.69,1123.5 772.45,1113 773.33,1102.5C774.21,1092 775.24,1081.5 776.32,1071C777.4,1060.5 778.62,1050 779.81,1039.5C781,1029 782.28,1018.5 783.48,1008C784.68,997.5 785.89,987 787.01,976.5C788.13,966 789.18,955.5 790.19,945C791.2,934.5 792.13,924 793.08,913.5C794.03,903 794.93,892.5 795.91,882C796.89,871.5 797.89,861 798.95,850.5C800.01,840 801.16,829.5 802.28,819C803.4,808.5 804.6,798 805.65,787.5C806.7,777 807.76,766.51 808.59,756C809.42,745.51 810.14,735 810.65,724.5C811.16,714 811.45,703.5 811.64,693C811.83,682.5 811.82,672 811.82,661.5C811.82,651 811.69,640.5 811.64,630C811.59,619.5 811.55,609 811.54,598.5C811.53,588 811.58,577.5 811.58,567C811.58,556.5 811.62,546 811.53,535.5C811.44,525 811.31,514.5 811.01,504C810.71,493.5 810.31,483 809.74,472.5C809.17,462 808.45,451.49 807.61,441C806.77,430.49 805.78,419.99 804.69,409.5C803.6,398.99 802.36,388.49 801.05,378C799.73,367.49 798.29,356.99 796.8,346.5C795.31,335.99 793.7,325.5 792.09,315C790.48,304.5 788.78,294 787.16,283.5C785.54,273 783.87,262.51 782.35,252C780.83,241.51 779.34,231.01 778.02,220.5C776.71,210.01 775.5,199.51 774.46,189C773.42,178.51 772.53,168.01 771.78,157.5C771.03,147 770.44,136.5 769.94,126C769.44,115.5 769.1,105 768.8,94.5Q768.5,84 768.15,63L766.98,63Q766.63,84 766.33,94.5C766.03,105 765.69,115.5 765.19,126C764.69,136.5 764.1,147 763.35,157.5C762.6,168.01 761.71,178.51 760.67,189C759.63,199.51 758.42,210.01 757.11,220.5C755.79,231.01 754.3,241.51 752.78,252C751.26,262.51 749.59,273 747.97,283.5C746.35,294 744.65,304.5 743.04,315C741.43,325.5 739.82,335.99 738.33,346.5C736.84,356.99 735.4,367.49 734.08,378C732.77,388.49 731.53,398.99 730.44,409.5C729.35,419.99 728.36,430.49 727.52,441C726.68,451.49 725.96,462 725.39,472.5C724.82,483 724.42,493.5 724.12,504C723.82,514.5 723.69,525 723.6,535.5C723.51,546 723.55,556.5 723.55,567C723.55,577.5 723.61,588 723.6,598.5C723.59,609 723.54,619.5 723.49,630C723.44,640.5 723.32,651 723.32,661.5C723.32,672 723.3,682.5 723.49,693C723.68,703.5 723.97,714 724.48,724.5C724.99,735 725.71,745.51 726.54,756C727.38,766.51 728.44,777 729.49,787.5C730.54,798 731.74,808.5 732.86,819C733.97,829.5 735.12,840 736.18,850.5C737.24,861 738.24,871.5 739.22,882C740.2,892.5 741.1,903 742.05,913.5C743,924 743.93,934.5 744.94,945C745.95,955.5 747.01,966 748.13,976.5C749.25,987 750.45,997.5 751.65,1008C752.85,1018.5 754.13,1029 755.32,1039.5C756.51,1050 757.73,1060.5 758.81,1071C759.89,1081.5 760.92,1092 761.8,1102.5C762.68,1113 763.44,1123.5 764.08,1134C764.72,1144.5 765.23,1155 765.65,1165.5Q766.07,1176 766.6,1197Z" style="vector-effect: non-scaling-stroke; stroke-width: 1.5px; stroke: rgb(85, 107, 47); stroke-opacity: 1; fill: rgb(85, 107, 47); fill-opacity: 0.5;"/><path class="box" d="M762.53,634H772.6M762.53,758.09H772.6V461.88H762.53ZM767.57,758.09V1006.27M767.57,461.88V253.73" style="vector-effect: non-scaling-stroke; stroke-width: 1.5px; stroke: rgb(85, 107, 47); stroke-opacity: 1; fill: rgb(255, 255, 255); fill-opacity: 1;"/><path class="mean" d="M762.53,627.52H772.6" style="fill: none; vector-effect: non-scaling-stroke; stroke-width: 1.5px; stroke-dasharray: 3px, 1.5px; stroke: rgb(85, 107, 47); stroke-opacity: 1;"/><g class="points"><path class="point" transform="translate(693.76,1006.27)" d="M1.25,0A1.25,1.25 0 1,1 0,-1.25A1.25,1.25 0 0,1 1.25,0Z" style="opacity: 0.85; stroke-width: 0px; fill: rgb(85, 107, 47); fill-opacity: 1;"/><path class="point" transform="translate(690.05,1006.27)" d="M1.25,0A1.25,1.25 0 1,1 0,-1.25A1.25,1.25 0 0,1 1.25,0Z" style="opacity: 0.85; stroke-width: 0px; fill: rgb(85, 107, 47); fill-opacity: 1;"/><path class="point" transform="translate(694.13,974.25)" d="M1.25,0A1.25,1.25 0 1,1 0,-1.25A1.25,1.25 0 0,1 1.25,0Z" style="opacity: 0.85; stroke-width: 0px; fill: rgb(85, 107, 47); fill-opacity: 1;"/><path class="point" transform="translate(689.59,958.24)" d="M1.25,0A1.25,1.25 0 1,1 0,-1.25A1.25,1.25 0 0,1 1.25,0Z" style="opacity: 0.85; stroke-width: 0px; fill: rgb(85, 107, 47); fill-opacity: 1;"/><path class="point" transform="translate(691.32,950.23)" d="M1.25,0A1.25,1.25 0 1,1 0,-1.25A1.25,1.25 0 0,1 1.25,0Z" style="opacity: 0.85; stroke-width: 0px; fill: rgb(85, 107, 47); fill-opacity: 1;"/><path class="point" transform="translate(693.56,942.23)" d="M1.25,0A1.25,1.25 0 1,1 0,-1.25A1.25,1.25 0 0,1 1.25,0Z" style="opacity: 0.85; stroke-width: 0px; fill: rgb(85, 107, 47); fill-opacity: 1;"/><path class="point" transform="translate(691.92,918.21)" d="M1.25,0A1.25,1.25 0 1,1 0,-1.25A1.25,1.25 0 0,1 1.25,0Z" style="opacity: 0.85; stroke-width: 0px; fill: rgb(85, 107, 47); fill-opacity: 1;"/><path class="point" transform="translate(692.8,870.17)" d="M1.25,0A1.25,1.25 0 1,1 0,-1.25A1.25,1.25 0 0,1 1.25,0Z" style="opacity: 0.85; stroke-width: 0px; fill: rgb(85, 107, 47); fill-opacity: 1;"/><path class="point" transform="translate(691.16,870.17)" d="M1.25,0A1.25,1.25 0 1,1 0,-1.25A1.25,1.25 0 0,1 1.25,0Z" style="opacity: 0.85; stroke-width: 0px; fill: rgb(85, 107, 47); fill-opacity: 1;"/><path class="point" transform="translate(690.04,854.16)" d="M1.25,0A1.25,1.25 0 1,1 0,-1.25A1.25,1.25 0 0,1 1.25,0Z" style="opacity: 0.85; stroke-width: 0px; fill: rgb(85, 107, 47); fill-opacity: 1;"/><path class="point" transform="translate(692.74,838.15)" d="M1.25,0A1.25,1.25 0 1,1 0,-1.25A1.25,1.25 0 0,1 1.25,0Z" style="opacity: 0.85; stroke-width: 0px; fill: rgb(85, 107, 47); fill-opacity: 1;"/><path class="point" transform="translate(691.1,838.15)" d="M1.25,0A1.25,1.25 0 1,1 0,-1.25A1.25,1.25 0 0,1 1.25,0Z" style="opacity: 0.85; stroke-width: 0px; fill: rgb(85, 107, 47); fill-opacity: 1;"/><path class="point" transform="translate(694.08,774.1)" d="M1.25,0A1.25,1.25 0 1,1 0,-1.25A1.25,1.25 0 0,1 1.25,0Z" style="opacity: 0.85; stroke-width: 0px; fill: rgb(85, 107, 47); fill-opacity: 1;"/><path class="point" transform="translate(688.98,766.1)" d="M1.25,0A1.25,1.25 0 1,1 0,-1.25A1.25,1.25 0 0,1 1.25,0Z" style="opacity: 0.85; stroke-width: 0px; fill: rgb(85, 107, 47); fill-opacity: 1;"/><path class="point" transform="translate(690.11,758.09)" d="M1.25,0A1.25,1.25 0 1,1 0,-1.25A1.25,1.25 0 0,1 1.25,0Z" style="opacity: 0.85; stroke-width: 0px; fill: rgb(85, 107, 47); fill-opacity: 1;"/><path class="point" transform="translate(695.18,742.08)" d="M1.25,0A1.25,1.25 0 1,1 0,-1.25A1.25,1.25 0 0,1 1.25,0Z" style="opacity: 0.85; stroke-width: 0px; fill: rgb(85, 107, 47); fill-opacity: 1;"/><path class="point" transform="translate(691.2,742.08)" d="M1.25,0A1.25,1.25 0 1,1 0,-1.25A1.25,1.25 0 0,1 1.25,0Z" style="opacity: 0.85; stroke-width: 0px; fill: rgb(85, 107, 47); fill-opacity: 1;"/><path class="point" transform="translate(688.22,734.08)" d="M1.25,0A1.25,1.25 0 1,1 0,-1.25A1.25,1.25 0 0,1 1.25,0Z" style="opacity: 0.85; stroke-width: 0px; fill: rgb(85, 107, 47); fill-opacity: 1;"/><path class="point" transform="translate(690.48,726.07)" d="M1.25,0A1.25,1.25 0 1,1 0,-1.25A1.25,1.25 0 0,1 1.25,0Z" style="opacity: 0.85; stroke-width: 0px; fill: rgb(85, 107, 47); fill-opacity: 1;"/><path class="point" transform="translate(691.93,726.07)" d="M1.25,0A1.25,1.25 0 1,1 0,-1.25A1.25,1.25 0 0,1 1.25,0Z" style="opacity: 0.85; stroke-width: 0px; fill: rgb(85, 107, 47); fill-opacity: 1;"/><path class="point" transform="translate(694.3,726.07)" d="M1.25,0A1.25,1.25 0 1,1 0,-1.25A1.25,1.25 0 0,1 1.25,0Z" style="opacity: 0.85; stroke-width: 0px; fill: rgb(85, 107, 47); fill-opacity: 1;"/><path class="point" transform="translate(692.56,710.06)" d="M1.25,0A1.25,1.25 0 1,1 0,-1.25A1.25,1.25 0 0,1 1.25,0Z" style="opacity: 0.85; stroke-width: 0px; fill: rgb(85, 107, 47); fill-opacity: 1;"/><path class="point" transform="translate(690.9,702.05)" d="M1.25,0A1.25,1.25 0 1,1 0,-1.25A1.25,1.25 0 0,1 1.25,0Z" style="opacity: 0.85; stroke-width: 0px; fill: rgb(85, 107, 47); fill-opacity: 1;"/><path class="point" transform="translate(688.51,702.05)" d="M1.25,0A1.25,1.25 0 1,1 0,-1.25A1.25,1.25 0 0,1 1.25,0Z" style="opacity: 0.85; stroke-width: 0px; fill: rgb(85, 107, 47); fill-opacity: 1;"/><path class="point" transform="translate(692.02,694.05)" d="M1.25,0A1.25,1.25 0 1,1 0,-1.25A1.25,1.25 0 0,1 1.25,0Z" style="opacity: 0.85; stroke-width: 0px; fill: rgb(85, 107, 47); fill-opacity: 1;"/><path class="point" transform="translate(691.06,686.04)" d="M1.25,0A1.25,1.25 0 1,1 0,-1.25A1.25,1.25 0 0,1 1.25,0Z" style="opacity: 0.85; stroke-width: 0px; fill: rgb(85, 107, 47); fill-opacity: 1;"/><path class="point" transform="translate(693.49,678.03)" d="M1.25,0A1.25,1.25 0 1,1 0,-1.25A1.25,1.25 0 0,1 1.25,0Z" style="opacity: 0.85; stroke-width: 0px; fill: rgb(85, 107, 47); fill-opacity: 1;"/><path class="point" transform="translate(691.75,646.01)" d="M1.25,0A1.25,1.25 0 1,1 0,-1.25A1.25,1.25 0 0,1 1.25,0Z" style="opacity: 0.85; stroke-width: 0px; fill: rgb(85, 107, 47); fill-opacity: 1;"/><path class="point" transform="translate(690.08,646.01)" d="M1.25,0A1.25,1.25 0 1,1 0,-1.25A1.25,1.25 0 0,1 1.25,0Z" style="opacity: 0.85; stroke-width: 0px; fill: rgb(85, 107, 47); fill-opacity: 1;"/><path class="point" transform="translate(689.18,621.99)" d="M1.25,0A1.25,1.25 0 1,1 0,-1.25A1.25,1.25 0 0,1 1.25,0Z" style="opacity: 0.85; stroke-width: 0px; fill: rgb(85, 107, 47); fill-opacity: 1;"/><path class="point" transform="translate(693.8,597.98)" d="M1.25,0A1.25,1.25 0 1,1 0,-1.25A1.25,1.25 0 0,1 1.25,0Z" style="opacity: 0.85; stroke-width: 0px; fill: rgb(85, 107, 47); fill-opacity: 1;"/><path class="point" transform="translate(689.35,565.95)" d="M1.25,0A1.25,1.25 0 1,1 0,-1.25A1.25,1.25 0 0,1 1.25,0Z" style="opacity: 0.85; stroke-width: 0px; fill: rgb(85, 107, 47); fill-opacity: 1;"/><path class="point" transform="translate(694.15,557.95)" d="M1.25,0A1.25,1.25 0 1,1 0,-1.25A1.25,1.25 0 0,1 1.25,0Z" style="opacity: 0.85; stroke-width: 0px; fill: rgb(85, 107, 47); fill-opacity: 1;"/><path class="point" transform="translate(692.78,541.94)" d="M1.25,0A1.25,1.25 0 1,1 0,-1.25A1.25,1.25 0 0,1 1.25,0Z" style="opacity: 0.85; stroke-width: 0px; fill: rgb(85, 107, 47); fill-opacity: 1;"/><path class="point" transform="translate(690.88,541.94)" d="M1.25,0A1.25,1.25 0 1,1 0,-1.25A1.25,1.25 0 0,1 1.25,0Z" style="opacity: 0.85; stroke-width: 0px; fill: rgb(85, 107, 47); fill-opacity: 1;"/><path class="point" transform="translate(689.54,541.94)" d="M1.25,0A1.25,1.25 0 1,1 0,-1.25A1.25,1.25 0 0,1 1.25,0Z" style="opacity: 0.85; stroke-width: 0px; fill: rgb(85, 107, 47); fill-opacity: 1;"/><path class="point" transform="translate(694.04,533.93)" d="M1.25,0A1.25,1.25 0 1,1 0,-1.25A1.25,1.25 0 0,1 1.25,0Z" style="opacity: 0.85; stroke-width: 0px; fill: rgb(85, 107, 47); fill-opacity: 1;"/><path class="point" transform="translate(691.6,533.93)" d="M1.25,0A1.25,1.25 0 1,1 0,-1.25A1.25,1.25 0 0,1 1.25,0Z" style="opacity: 0.85; stroke-width: 0px; fill: rgb(85, 107, 47); fill-opacity: 1;"/><path class="point" transform="translate(694.93,525.92)" d="M1.25,0A1.25,1.25 0 1,1 0,-1.25A1.25,1.25 0 0,1 1.25,0Z" style="opacity: 0.85; stroke-width: 0px; fill: rgb(85, 107, 47); fill-opacity: 1;"/><path class="point" transform="translate(688.49,525.92)" d="M1.25,0A1.25,1.25 0 1,1 0,-1.25A1.25,1.25 0 0,1 1.25,0Z" style="opacity: 0.85; stroke-width: 0px; fill: rgb(85, 107, 47); fill-opacity: 1;"/><path class="point" transform="translate(694.49,517.92)" d="M1.25,0A1.25,1.25 0 1,1 0,-1.25A1.25,1.25 0 0,1 1.25,0Z" style="opacity: 0.85; stroke-width: 0px; fill: rgb(85, 107, 47); fill-opacity: 1;"/><path class="point" transform="translate(691.73,493.9)" d="M1.25,0A1.25,1.25 0 1,1 0,-1.25A1.25,1.25 0 0,1 1.25,0Z" style="opacity: 0.85; stroke-width: 0px; fill: rgb(85, 107, 47); fill-opacity: 1;"/><path class="point" transform="translate(690.63,469.88)" d="M1.25,0A1.25,1.25 0 1,1 0,-1.25A1.25,1.25 0 0,1 1.25,0Z" style="opacity: 0.85; stroke-width: 0px; fill: rgb(85, 107, 47); fill-opacity: 1;"/><path class="point" transform="translate(688.65,461.88)" d="M1.25,0A1.25,1.25 0 1,1 0,-1.25A1.25,1.25 0 0,1 1.25,0Z" style="opacity: 0.85; stroke-width: 0px; fill: rgb(85, 107, 47); fill-opacity: 1;"/><path class="point" transform="translate(690.69,461.88)" d="M1.25,0A1.25,1.25 0 1,1 0,-1.25A1.25,1.25 0 0,1 1.25,0Z" style="opacity: 0.85; stroke-width: 0px; fill: rgb(85, 107, 47); fill-opacity: 1;"/><path class="point" transform="translate(694.02,445.87)" d="M1.25,0A1.25,1.25 0 1,1 0,-1.25A1.25,1.25 0 0,1 1.25,0Z" style="opacity: 0.85; stroke-width: 0px; fill: rgb(85, 107, 47); fill-opacity: 1;"/><path class="point" transform="translate(691.26,429.86)" d="M1.25,0A1.25,1.25 0 1,1 0,-1.25A1.25,1.25 0 0,1 1.25,0Z" style="opacity: 0.85; stroke-width: 0px; fill: rgb(85, 107, 47); fill-opacity: 1;"/><path class="point" transform="translate(689.36,421.85)" d="M1.25,0A1.25,1.25 0 1,1 0,-1.25A1.25,1.25 0 0,1 1.25,0Z" style="opacity: 0.85; stroke-width: 0px; fill: rgb(85, 107, 47); fill-opacity: 1;"/><path class="point" transform="translate(693.7,405.84)" d="M1.25,0A1.25,1.25 0 1,1 0,-1.25A1.25,1.25 0 0,1 1.25,0Z" style="opacity: 0.85; stroke-width: 0px; fill: rgb(85, 107, 47); fill-opacity: 1;"/><path class="point" transform="translate(690.19,405.84)" d="M1.25,0A1.25,1.25 0 1,1 0,-1.25A1.25,1.25 0 0,1 1.25,0Z" style="opacity: 0.85; stroke-width: 0px; fill: rgb(85, 107, 47); fill-opacity: 1;"/><path class="point" transform="translate(692.03,357.8)" d="M1.25,0A1.25,1.25 0 1,1 0,-1.25A1.25,1.25 0 0,1 1.25,0Z" style="opacity: 0.85; stroke-width: 0px; fill: rgb(85, 107, 47); fill-opacity: 1;"/><path class="point" transform="translate(693.41,357.8)" d="M1.25,0A1.25,1.25 0 1,1 0,-1.25A1.25,1.25 0 0,1 1.25,0Z" style="opacity: 0.85; stroke-width: 0px; fill: rgb(85, 107, 47); fill-opacity: 1;"/><path class="point" transform="translate(689.21,349.8)" d="M1.25,0A1.25,1.25 0 1,1 0,-1.25A1.25,1.25 0 0,1 1.25,0Z" style="opacity: 0.85; stroke-width: 0px; fill: rgb(85, 107, 47); fill-opacity: 1;"/><path class="point" transform="translate(694.75,341.79)" d="M1.25,0A1.25,1.25 0 1,1 0,-1.25A1.25,1.25 0 0,1 1.25,0Z" style="opacity: 0.85; stroke-width: 0px; fill: rgb(85, 107, 47); fill-opacity: 1;"/><path class="point" transform="translate(693.17,341.79)" d="M1.25,0A1.25,1.25 0 1,1 0,-1.25A1.25,1.25 0 0,1 1.25,0Z" style="opacity: 0.85; stroke-width: 0px; fill: rgb(85, 107, 47); fill-opacity: 1;"/><path class="point" transform="translate(689.3,309.77)" d="M1.25,0A1.25,1.25 0 1,1 0,-1.25A1.25,1.25 0 0,1 1.25,0Z" style="opacity: 0.85; stroke-width: 0px; fill: rgb(85, 107, 47); fill-opacity: 1;"/><path class="point" transform="translate(694.3,293.76)" d="M1.25,0A1.25,1.25 0 1,1 0,-1.25A1.25,1.25 0 0,1 1.25,0Z" style="opacity: 0.85; stroke-width: 0px; fill: rgb(85, 107, 47); fill-opacity: 1;"/><path class="point" transform="translate(690.03,253.73)" d="M1.25,0A1.25,1.25 0 1,1 0,-1.25A1.25,1.25 0 0,1 1.25,0Z" style="opacity: 0.85; stroke-width: 0px; fill: rgb(85, 107, 47); fill-opacity: 1;"/></g></g><g class="trace violins" style="opacity: 0.8;"><path class="violin" d="M972.34,1159.36Q974.23,1143.56 975.7,1135.71C977.18,1127.79 978.97,1119.89 981.2,1112.06C983.46,1104.12 986.17,1096.24 989.18,1088.42C992.24,1080.47 995.83,1072.61 999.46,1064.77C1003.13,1056.84 1007.24,1049.01 1011.09,1041.12C1014.93,1033.24 1019,1025.41 1022.52,1017.47C1025.99,1009.65 1029.39,1001.79 1032.07,993.83C1034.7,986.02 1036.94,978.12 1038.53,970.18C1040.1,962.35 1041.04,954.43 1041.58,946.53C1042.12,938.66 1042.02,930.76 1041.78,922.88C1041.54,914.99 1040.83,907.11 1040.12,899.24C1039.4,891.35 1038.45,883.47 1037.49,875.59C1036.53,867.7 1035.49,859.82 1034.37,851.94C1033.25,844.05 1032.07,836.16 1030.75,828.29C1029.43,820.4 1028.01,812.52 1026.43,804.65C1024.84,796.75 1023.09,788.87 1021.24,781C1019.38,773.1 1017.33,765.22 1015.29,757.35C1013.24,749.46 1011.03,741.6 1008.96,733.71C1006.89,725.83 1004.75,717.96 1002.85,710.06C1000.95,702.19 999.12,694.31 997.56,686.41C996.01,678.55 994.63,670.66 993.52,662.76C992.41,654.9 991.56,647.01 990.88,639.12C990.2,631.25 989.79,623.36 989.45,615.47C989.11,607.59 988.99,599.7 988.85,591.82C988.71,583.94 988.71,576.05 988.63,568.17C988.55,560.29 988.52,552.41 988.38,544.53C988.24,536.65 988.07,528.76 987.81,520.88C987.54,513 987.21,505.11 986.79,497.23C986.37,489.34 985.86,481.46 985.3,473.58C984.73,465.7 984.08,457.82 983.4,449.94C982.72,442.06 981.96,434.17 981.21,426.29C980.45,418.41 979.65,410.52 978.87,402.64C978.09,394.76 977.29,386.88 976.55,379C975.81,371.12 975.08,363.24 974.42,355.35C973.77,347.47 973.15,339.59 972.62,331.7C972.09,323.82 971.62,315.93 971.22,308.05C970.83,300.17 970.51,292.29 970.25,284.41Q969.99,276.53 969.64,260.76L968.34,260.76Q967.98,276.53 967.72,284.41C967.45,292.29 967.14,300.17 966.75,308.05C966.36,315.93 965.89,323.82 965.36,331.7C964.83,339.59 964.22,347.47 963.56,355.35C962.9,363.24 962.16,371.12 961.42,379C960.68,386.88 959.87,394.76 959.1,402.64C958.32,410.52 957.52,418.41 956.77,426.29C956.02,434.17 955.26,442.06 954.58,449.94C953.9,457.82 953.25,465.7 952.68,473.58C952.12,481.46 951.61,489.34 951.19,497.23C950.77,505.11 950.44,513 950.17,520.88C949.91,528.76 949.74,536.65 949.6,544.53C949.46,552.41 949.43,560.29 949.35,568.17C949.27,576.05 949.27,583.94 949.13,591.82C948.99,599.7 948.87,607.59 948.53,615.47C948.19,623.36 947.78,631.25 947.1,639.12C946.42,647.01 945.56,654.89 944.45,662.76C943.34,670.66 941.97,678.55 940.42,686.41C938.86,694.31 937.03,702.19 935.13,710.06C933.23,717.96 931.09,725.83 929.02,733.71C926.95,741.6 924.74,749.46 922.69,757.35C920.65,765.22 918.6,773.1 916.74,781C914.89,788.87 913.14,796.75 911.55,804.65C909.97,812.52 908.55,820.4 907.23,828.29C905.91,836.16 904.74,844.05 903.61,851.94C902.49,859.82 901.44,867.7 900.48,875.59C899.52,883.47 898.58,891.35 897.86,899.24C897.15,907.11 896.43,914.99 896.19,922.88C895.95,930.76 895.86,938.66 896.4,946.53C896.94,954.43 897.88,962.35 899.45,970.18C901.04,978.12 903.28,986.02 905.91,993.83C908.59,1001.79 911.99,1009.65 915.45,1017.47C918.97,1025.41 923.04,1033.24 926.88,1041.12C930.73,1049.01 934.84,1056.84 938.51,1064.77C942.14,1072.61 945.73,1080.47 948.79,1088.42C951.8,1096.24 954.52,1104.12 956.78,1112.06C959.01,1119.89 960.79,1127.79 962.27,1135.71Q963.74,1143.56 965.64,1159.36Z" style="vector-effect: non-scaling-stroke; stroke-width: 1.5px; stroke: rgb(128, 0, 128); stroke-opacity: 1; fill: rgb(128, 0, 128); fill-opacity: 0.5;"/><path class="box" d="M963.95,854.16H974.02M963.95,958.24H974.02V750.09H963.95ZM968.99,958.24V1014.28M968.99,750.09V477.89" style="vector-effect: non-scaling-stroke; stroke-width: 1.5px; stroke: rgb(128, 0, 128); stroke-opacity: 1; fill: rgb(255, 255, 255); fill-opacity: 1;"/><path class="mean" d="M963.95,824.62H974.02" style="fill: none; vector-effect: non-scaling-stroke; stroke-width: 1.5px; stroke-dasharray: 3px, 1.5px; stroke: rgb(128, 0, 128); stroke-opacity: 1;"/><g class="points"><path class="point" transform="translate(870.49,1014.28)" d="M1.25,0A1.25,1.25 0 1,1 0,-1.25A1.25,1.25 0 0,1 1.25,0Z" style="opacity: 0.85; stroke-width: 0px; fill: rgb(128, 0, 128); fill-opacity: 1;"/><path class="point" transform="translate(865.31,1006.27)" d="M1.25,0A1.25,1.25 0 1,1 0,-1.25A1.25,1.25 0 0,1 1.25,0Z" style="opacity: 0.85; stroke-width: 0px; fill: rgb(128, 0, 128); fill-opacity: 1;"/><path class="point" transform="translate(872.18,1006.27)" d="M1.25,0A1.25,1.25 0 1,1 0,-1.25A1.25,1.25 0 0,1 1.25,0Z" style="opacity: 0.85; stroke-width: 0px; fill: rgb(128, 0, 128); fill-opacity: 1;"/><path class="point" transform="translate(864.56,1006.27)" d="M1.25,0A1.25,1.25 0 1,1 0,-1.25A1.25,1.25 0 0,1 1.25,0Z" style="opacity: 0.85; stroke-width: 0px; fill: rgb(128, 0, 128); fill-opacity: 1;"/><path class="point" transform="translate(867.28,1006.27)" d="M1.25,0A1.25,1.25 0 1,1 0,-1.25A1.25,1.25 0 0,1 1.25,0Z" style="opacity: 0.85; stroke-width: 0px; fill: rgb(128, 0, 128); fill-opacity: 1;"/><path class="point" transform="translate(870.51,998.27)" d="M1.25,0A1.25,1.25 0 1,1 0,-1.25A1.25,1.25 0 0,1 1.25,0Z" style="opacity: 0.85; stroke-width: 0px; fill: rgb(128, 0, 128); fill-opacity: 1;"/><path class="point" transform="translate(868.09,998.27)" d="M1.25,0A1.25,1.25 0 1,1 0,-1.25A1.25,1.25 0 0,1 1.25,0Z" style="opacity: 0.85; stroke-width: 0px; fill: rgb(128, 0, 128); fill-opacity: 1;"/><path class="point" transform="translate(869.51,998.27)" d="M1.25,0A1.25,1.25 0 1,1 0,-1.25A1.25,1.25 0 0,1 1.25,0Z" style="opacity: 0.85; stroke-width: 0px; fill: rgb(128, 0, 128); fill-opacity: 1;"/><path class="point" transform="translate(866.92,990.26)" d="M1.25,0A1.25,1.25 0 1,1 0,-1.25A1.25,1.25 0 0,1 1.25,0Z" style="opacity: 0.85; stroke-width: 0px; fill: rgb(128, 0, 128); fill-opacity: 1;"/><path class="point" transform="translate(865.73,982.25)" d="M1.25,0A1.25,1.25 0 1,1 0,-1.25A1.25,1.25 0 0,1 1.25,0Z" style="opacity: 0.85; stroke-width: 0px; fill: rgb(128, 0, 128); fill-opacity: 1;"/><path class="point" transform="translate(869.29,982.25)" d="M1.25,0A1.25,1.25 0 1,1 0,-1.25A1.25,1.25 0 0,1 1.25,0Z" style="opacity: 0.85; stroke-width: 0px; fill: rgb(128, 0, 128); fill-opacity: 1;"/><path class="point" transform="translate(867.13,982.25)" d="M1.25,0A1.25,1.25 0 1,1 0,-1.25A1.25,1.25 0 0,1 1.25,0Z" style="opacity: 0.85; stroke-width: 0px; fill: rgb(128, 0, 128); fill-opacity: 1;"/><path class="point" transform="translate(870.48,974.25)" d="M1.25,0A1.25,1.25 0 1,1 0,-1.25A1.25,1.25 0 0,1 1.25,0Z" style="opacity: 0.85; stroke-width: 0px; fill: rgb(128, 0, 128); fill-opacity: 1;"/><path class="point" transform="translate(864.89,974.25)" d="M1.25,0A1.25,1.25 0 1,1 0,-1.25A1.25,1.25 0 0,1 1.25,0Z" style="opacity: 0.85; stroke-width: 0px; fill: rgb(128, 0, 128); fill-opacity: 1;"/><path class="point" transform="translate(866.07,958.24)" d="M1.25,0A1.25,1.25 0 1,1 0,-1.25A1.25,1.25 0 0,1 1.25,0Z" style="opacity: 0.85; stroke-width: 0px; fill: rgb(128, 0, 128); fill-opacity: 1;"/><path class="point" transform="translate(871.35,958.24)" d="M1.25,0A1.25,1.25 0 1,1 0,-1.25A1.25,1.25 0 0,1 1.25,0Z" style="opacity: 0.85; stroke-width: 0px; fill: rgb(128, 0, 128); fill-opacity: 1;"/><path class="point" transform="translate(867.52,950.23)" d="M1.25,0A1.25,1.25 0 1,1 0,-1.25A1.25,1.25 0 0,1 1.25,0Z" style="opacity: 0.85; stroke-width: 0px; fill: rgb(128, 0, 128); fill-opacity: 1;"/><path class="point" transform="translate(865.69,950.23)" d="M1.25,0A1.25,1.25 0 1,1 0,-1.25A1.25,1.25 0 0,1 1.25,0Z" style="opacity: 0.85; stroke-width: 0px; fill: rgb(128, 0, 128); fill-opacity: 1;"/><path class="point" transform="translate(867.28,942.23)" d="M1.25,0A1.25,1.25 0 1,1 0,-1.25A1.25,1.25 0 0,1 1.25,0Z" style="opacity: 0.85; stroke-width: 0px; fill: rgb(128, 0, 128); fill-opacity: 1;"/><path class="point" transform="translate(868.21,942.23)" d="M1.25,0A1.25,1.25 0 1,1 0,-1.25A1.25,1.25 0 0,1 1.25,0Z" style="opacity: 0.85; stroke-width: 0px; fill: rgb(128, 0, 128); fill-opacity: 1;"/><path class="point" transform="translate(869.49,934.22)" d="M1.25,0A1.25,1.25 0 1,1 0,-1.25A1.25,1.25 0 0,1 1.25,0Z" style="opacity: 0.85; stroke-width: 0px; fill: rgb(128, 0, 128); fill-opacity: 1;"/><path class="point" transform="translate(868.58,918.21)" d="M1.25,0A1.25,1.25 0 1,1 0,-1.25A1.25,1.25 0 0,1 1.25,0Z" style="opacity: 0.85; stroke-width: 0px; fill: rgb(128, 0, 128); fill-opacity: 1;"/><path class="point" transform="translate(867.52,910.2)" d="M1.25,0A1.25,1.25 0 1,1 0,-1.25A1.25,1.25 0 0,1 1.25,0Z" style="opacity: 0.85; stroke-width: 0px; fill: rgb(128, 0, 128); fill-opacity: 1;"/><path class="point" transform="translate(866.13,910.2)" d="M1.25,0A1.25,1.25 0 1,1 0,-1.25A1.25,1.25 0 0,1 1.25,0Z" style="opacity: 0.85; stroke-width: 0px; fill: rgb(128, 0, 128); fill-opacity: 1;"/><path class="point" transform="translate(868.27,894.19)" d="M1.25,0A1.25,1.25 0 1,1 0,-1.25A1.25,1.25 0 0,1 1.25,0Z" style="opacity: 0.85; stroke-width: 0px; fill: rgb(128, 0, 128); fill-opacity: 1;"/><path class="point" transform="translate(867.53,878.18)" d="M1.25,0A1.25,1.25 0 1,1 0,-1.25A1.25,1.25 0 0,1 1.25,0Z" style="opacity: 0.85; stroke-width: 0px; fill: rgb(128, 0, 128); fill-opacity: 1;"/><path class="point" transform="translate(869.6,870.17)" d="M1.25,0A1.25,1.25 0 1,1 0,-1.25A1.25,1.25 0 0,1 1.25,0Z" style="opacity: 0.85; stroke-width: 0px; fill: rgb(128, 0, 128); fill-opacity: 1;"/><path class="point" transform="translate(868.03,870.17)" d="M1.25,0A1.25,1.25 0 1,1 0,-1.25A1.25,1.25 0 0,1 1.25,0Z" style="opacity: 0.85; stroke-width: 0px; fill: rgb(128, 0, 128); fill-opacity: 1;"/><path class="point" transform="translate(866.52,854.16)" d="M1.25,0A1.25,1.25 0 1,1 0,-1.25A1.25,1.25 0 0,1 1.25,0Z" style="opacity: 0.85; stroke-width: 0px; fill: rgb(128, 0, 128); fill-opacity: 1;"/><path class="point" transform="translate(865.47,854.16)" d="M1.25,0A1.25,1.25 0 1,1 0,-1.25A1.25,1.25 0 0,1 1.25,0Z" style="opacity: 0.85; stroke-width: 0px; fill: rgb(128, 0, 128); fill-opacity: 1;"/><path class="point" transform="translate(870.09,846.16)" d="M1.25,0A1.25,1.25 0 1,1 0,-1.25A1.25,1.25 0 0,1 1.25,0Z" style="opacity: 0.85; stroke-width: 0px; fill: rgb(128, 0, 128); fill-opacity: 1;"/><path class="point" transform="translate(865.85,846.16)" d="M1.25,0A1.25,1.25 0 1,1 0,-1.25A1.25,1.25 0 0,1 1.25,0Z" style="opacity: 0.85; stroke-width: 0px; fill: rgb(128, 0, 128); fill-opacity: 1;"/><path class="point" transform="translate(869.88,838.15)" d="M1.25,0A1.25,1.25 0 1,1 0,-1.25A1.25,1.25 0 0,1 1.25,0Z" style="opacity: 0.85; stroke-width: 0px; fill: rgb(128, 0, 128); fill-opacity: 1;"/><path class="point" transform="translate(868.93,830.14)" d="M1.25,0A1.25,1.25 0 1,1 0,-1.25A1.25,1.25 0 0,1 1.25,0Z" style="opacity: 0.85; stroke-width: 0px; fill: rgb(128, 0, 128); fill-opacity: 1;"/><path class="point" transform="translate(867.43,830.14)" d="M1.25,0A1.25,1.25 0 1,1 0,-1.25A1.25,1.25 0 0,1 1.25,0Z" style="opacity: 0.85; stroke-width: 0px; fill: rgb(128, 0, 128); fill-opacity: 1;"/><path class="point" transform="translate(866.6,822.14)" d="M1.25,0A1.25,1.25 0 1,1 0,-1.25A1.25,1.25 0 0,1 1.25,0Z" style="opacity: 0.85; stroke-width: 0px; fill: rgb(128, 0, 128); fill-opacity: 1;"/><path class="point" transform="translate(869.49,798.12)" d="M1.25,0A1.25,1.25 0 1,1 0,-1.25A1.25,1.25 0 0,1 1.25,0Z" style="opacity: 0.85; stroke-width: 0px; fill: rgb(128, 0, 128); fill-opacity: 1;"/><path class="point" transform="translate(867.99,790.12)" d="M1.25,0A1.25,1.25 0 1,1 0,-1.25A1.25,1.25 0 0,1 1.25,0Z" style="opacity: 0.85; stroke-width: 0px; fill: rgb(128, 0, 128); fill-opacity: 1;"/><path class="point" transform="translate(870.13,790.12)" d="M1.25,0A1.25,1.25 0 1,1 0,-1.25A1.25,1.25 0 0,1 1.25,0Z" style="opacity: 0.85; stroke-width: 0px; fill: rgb(128, 0, 128); fill-opacity: 1;"/><path class="point" transform="translate(866.12,782.11)" d="M1.25,0A1.25,1.25 0 1,1 0,-1.25A1.25,1.25 0 0,1 1.25,0Z" style="opacity: 0.85; stroke-width: 0px; fill: rgb(128, 0, 128); fill-opacity: 1;"/><path class="point" transform="translate(869.85,774.1)" d="M1.25,0A1.25,1.25 0 1,1 0,-1.25A1.25,1.25 0 0,1 1.25,0Z" style="opacity: 0.85; stroke-width: 0px; fill: rgb(128, 0, 128); fill-opacity: 1;"/><path class="point" transform="translate(868.07,766.1)" d="M1.25,0A1.25,1.25 0 1,1 0,-1.25A1.25,1.25 0 0,1 1.25,0Z" style="opacity: 0.85; stroke-width: 0px; fill: rgb(128, 0, 128); fill-opacity: 1;"/><path class="point" transform="translate(867.35,758.09)" d="M1.25,0A1.25,1.25 0 1,1 0,-1.25A1.25,1.25 0 0,1 1.25,0Z" style="opacity: 0.85; stroke-width: 0px; fill: rgb(128, 0, 128); fill-opacity: 1;"/><path class="point" transform="translate(866.45,750.09)" d="M1.25,0A1.25,1.25 0 1,1 0,-1.25A1.25,1.25 0 0,1 1.25,0Z" style="opacity: 0.85; stroke-width: 0px; fill: rgb(128, 0, 128); fill-opacity: 1;"/><path class="point" transform="translate(867.55,742.08)" d="M1.25,0A1.25,1.25 0 1,1 0,-1.25A1.25,1.25 0 0,1 1.25,0Z" style="opacity: 0.85; stroke-width: 0px; fill: rgb(128, 0, 128); fill-opacity: 1;"/><path class="point" transform="translate(869.46,726.07)" d="M1.25,0A1.25,1.25 0 1,1 0,-1.25A1.25,1.25 0 0,1 1.25,0Z" style="opacity: 0.85; stroke-width: 0px; fill: rgb(128, 0, 128); fill-opacity: 1;"/><path class="point" transform="translate(867.88,702.05)" d="M1.25,0A1.25,1.25 0 1,1 0,-1.25A1.25,1.25 0 0,1 1.25,0Z" style="opacity: 0.85; stroke-width: 0px; fill: rgb(128, 0, 128); fill-opacity: 1;"/><path class="point" transform="translate(867.03,686.04)" d="M1.25,0A1.25,1.25 0 1,1 0,-1.25A1.25,1.25 0 0,1 1.25,0Z" style="opacity: 0.85; stroke-width: 0px; fill: rgb(128, 0, 128); fill-opacity: 1;"/><path class="point" transform="translate(869.04,621.99)" d="M1.25,0A1.25,1.25 0 1,1 0,-1.25A1.25,1.25 0 0,1 1.25,0Z" style="opacity: 0.85; stroke-width: 0px; fill: rgb(128, 0, 128); fill-opacity: 1;"/><path class="point" transform="translate(867.46,613.99)" d="M1.25,0A1.25,1.25 0 1,1 0,-1.25A1.25,1.25 0 0,1 1.25,0Z" style="opacity: 0.85; stroke-width: 0px; fill: rgb(128, 0, 128); fill-opacity: 1;"/><path class="point" transform="translate(868.28,589.97)" d="M1.25,0A1.25,1.25 0 1,1 0,-1.25A1.25,1.25 0 0,1 1.25,0Z" style="opacity: 0.85; stroke-width: 0px; fill: rgb(128, 0, 128); fill-opacity: 1;"/><path class="point" transform="translate(868.89,557.95)" d="M1.25,0A1.25,1.25 0 1,1 0,-1.25A1.25,1.25 0 0,1 1.25,0Z" style="opacity: 0.85; stroke-width: 0px; fill: rgb(128, 0, 128); fill-opacity: 1;"/><path class="point" transform="translate(866.88,533.93)" d="M1.25,0A1.25,1.25 0 1,1 0,-1.25A1.25,1.25 0 0,1 1.25,0Z" style="opacity: 0.85; stroke-width: 0px; fill: rgb(128, 0, 128); fill-opacity: 1;"/><path class="point" transform="translate(869.73,517.92)" d="M1.25,0A1.25,1.25 0 1,1 0,-1.25A1.25,1.25 0 0,1 1.25,0Z" style="opacity: 0.85; stroke-width: 0px; fill: rgb(128, 0, 128); fill-opacity: 1;"/><path class="point" transform="translate(868.9,493.9)" d="M1.25,0A1.25,1.25 0 1,1 0,-1.25A1.25,1.25 0 0,1 1.25,0Z" style="opacity: 0.85; stroke-width: 0px; fill: rgb(128, 0, 128); fill-opacity: 1;"/><path class="point" transform="translate(866.96,477.89)" d="M1.25,0A1.25,1.25 0 1,1 0,-1.25A1.25,1.25 0 0,1 1.25,0Z" style="opacity: 0.85; stroke-width: 0px; fill: rgb(128, 0, 128); fill-opacity: 1;"/><path class="point" transform="translate(869.48,421.85)" d="M1.25,0A1.25,1.25 0 1,1 0,-1.25A1.25,1.25 0 0,1 1.25,0Z" style="opacity: 0.85; stroke-width: 0px; fill: rgb(128, 0, 128); fill-opacity: 1;"/><path class="point" transform="translate(867.17,405.84)" d="M1.25,0A1.25,1.25 0 1,1 0,-1.25A1.25,1.25 0 0,1 1.25,0Z" style="opacity: 0.85; stroke-width: 0px; fill: rgb(128, 0, 128); fill-opacity: 1;"/></g></g></g></g><g class="overplot"/><path class="xlines-above crisp" d="M0,0" style="fill: none;"/><path class="ylines-above crisp" d="M0,0" style="fill: none;"/><g class="overlines-above"/><g class="xaxislayer-above"><g class="xtick"><text text-anchor="middle" x="0" y="1385" transform="translate(243.3,0)" style="font-family: Arial, Bahnschrift; font-size: 24px; fill: rgb(42, 63, 95); fill-opacity: 1; white-space: pre; opacity: 1;">Tom</text></g><g class="xtick"><text text-anchor="middle" x="0" y="1385" transform="translate(444.72,0)" style="font-family: Arial, Bahnschrift; font-size: 24px; fill: rgb(42, 63, 95); fill-opacity: 1; white-space: pre; opacity: 1;">Gleb</text></g><g class="xtick"><text text-anchor="middle" x="0" y="1385" transform="translate(646.14,0)" style="font-family: Arial, Bahnschrift; font-size: 24px; fill: rgb(42, 63, 95); fill-opacity: 1; white-space: pre; opacity: 1;">Whats goin on</text></g><g class="xtick"><text text-anchor="middle" x="0" y="1385" transform="translate(847.57,0)" style="font-family: Arial, Bahnschrift; font-size: 24px; fill: rgb(42, 63, 95); fill-opacity: 1; white-space: pre; opacity: 1;">Deeplive.exe</text></g><g class="xtick"><text text-anchor="middle" x="0" y="1385" transform="translate(1048.99,0)" style="font-family: Arial, Bahnschrift; font-size: 24px; fill: rgb(42, 63, 95); fill-opacity: 1; white-space: pre; opacity: 1;">Deepflash2</text></g></g><g class="yaxislayer-above"><g class="ytick"><text text-anchor="end" x="79" y="7" transform="translate(0,1034.22)" style="font-family: Arial, Bahnschrift; font-size: 20px; fill: rgb(42, 63, 95); fill-opacity: 1; white-space: pre; opacity: 1;">0.1</text></g><g class="ytick"><text text-anchor="end" x="79" y="7" style="font-family: Arial, Bahnschrift; font-size: 20px; fill: rgb(42, 63, 95); fill-opacity: 1; white-space: pre; opacity: 1;" transform="translate(0,954.16)">0.2</text></g><g class="ytick"><text text-anchor="end" x="79" y="7" style="font-family: Arial, Bahnschrift; font-size: 20px; fill: rgb(42, 63, 95); fill-opacity: 1; white-space: pre; opacity: 1;" transform="translate(0,874.1)">0.3</text></g><g class="ytick"><text text-anchor="end" x="79" y="7" style="font-family: Arial, Bahnschrift; font-size: 20px; fill: rgb(42, 63, 95); fill-opacity: 1; white-space: pre; opacity: 1;" transform="translate(0,794.05)">0.4</text></g><g class="ytick"><text text-anchor="end" x="79" y="7" style="font-family: Arial, Bahnschrift; font-size: 20px; fill: rgb(42, 63, 95); fill-opacity: 1; white-space: pre; opacity: 1;" transform="translate(0,713.99)">0.5</text></g><g class="ytick"><text text-anchor="end" x="79" y="7" style="font-family: Arial, Bahnschrift; font-size: 20px; fill: rgb(42, 63, 95); fill-opacity: 1; white-space: pre; opacity: 1;" transform="translate(0,633.93)">0.6</text></g><g class="ytick"><text text-anchor="end" x="79" y="7" style="font-family: Arial, Bahnschrift; font-size: 20px; fill: rgb(42, 63, 95); fill-opacity: 1; white-space: pre; opacity: 1;" transform="translate(0,553.87)">0.7</text></g><g class="ytick"><text text-anchor="end" x="79" y="7" style="font-family: Arial, Bahnschrift; font-size: 20px; fill: rgb(42, 63, 95); fill-opacity: 1; white-space: pre; opacity: 1;" transform="translate(0,473.81)">0.8</text></g><g class="ytick"><text text-anchor="end" x="79" y="7" style="font-family: Arial, Bahnschrift; font-size: 20px; fill: rgb(42, 63, 95); fill-opacity: 1; white-space: pre; opacity: 1;" transform="translate(0,393.76)">0.9</text></g><g class="ytick"><text text-anchor="end" x="79" y="7" style="font-family: Arial, Bahnschrift; font-size: 20px; fill: rgb(42, 63, 95); fill-opacity: 1; white-space: pre; opacity: 1;" transform="translate(0,313.7)">1</text></g></g><g class="overaxes-above"/></g></g><g class="polarlayer"/><g class="ternarylayer"/><g class="geolayer"/><g class="funnelarealayer"/><g class="pielayer"/><g class="iciclelayer"/><g class="treemaplayer"/><g class="sunburstlayer"/><g class="glimages"/><defs id="topdefs-26f0d9"><g class="clips"/><clipPath id="legend26f0d9"><rect width="199" height="181" x="0" y="0"/></clipPath></defs><g class="layer-above"><g class="imagelayer"/><g class="shapelayer"/></g><g class="infolayer"><g class="legend" pointer-events="all" transform="translate(1228.52,100)"><rect class="bg" shape-rendering="crispEdges" style="stroke: rgb(68, 68, 68); stroke-opacity: 1; fill: rgb(255, 255, 255); fill-opacity: 1; stroke-width: 0px;" width="199" height="181" x="0" y="0"/><g class="scrollbox" transform="" clip-path="url(#legend26f0d9)"><g class="groups"><g class="traces" transform="translate(0,22.1)" style="opacity: 1;"><text class="legendtext" text-anchor="start" x="40" y="9.360000000000001" style="font-family: Arial, Bahnschrift; font-size: 24px; fill: rgb(42, 63, 95); fill-opacity: 1; white-space: pre;">Tom</text><g class="layers" style="opacity: 0.8;"><g class="legendfill"/><g class="legendlines"/><g class="legendsymbols"><g class="legendpoints"><path class="legendbox" d="M6,6H-6V-6H6Z" transform="translate(20,0)" style="stroke-width: 1.5px; fill: rgb(0, 0, 0); fill-opacity: 0.5; stroke: rgb(0, 0, 0); stroke-opacity: 1;"/></g></g></g><rect class="legendtoggle" x="0" y="-17.1" width="193.421875" height="34.2" style="fill: rgb(0, 0, 0); fill-opacity: 0;"/></g><g class="traces" transform="translate(0,56.300000000000004)" style="opacity: 1;"><text class="legendtext" text-anchor="start" x="40" y="9.360000000000001" style="font-family: Arial, Bahnschrift; font-size: 24px; fill: rgb(42, 63, 95); fill-opacity: 1; white-space: pre;">Gleb</text><g class="layers" style="opacity: 0.8;"><g class="legendfill"/><g class="legendlines"/><g class="legendsymbols"><g class="legendpoints"><path class="legendbox" d="M6,6H-6V-6H6Z" transform="translate(20,0)" style="stroke-width: 1.5px; fill: rgb(255, 69, 0); fill-opacity: 0.5; stroke: rgb(255, 69, 0); stroke-opacity: 1;"/></g></g></g><rect class="legendtoggle" x="0" y="-17.1" width="193.421875" height="34.2" style="fill: rgb(0, 0, 0); fill-opacity: 0;"/></g><g class="traces" transform="translate(0,90.5)" style="opacity: 1;"><text class="legendtext" text-anchor="start" x="40" y="9.360000000000001" style="font-family: Arial, Bahnschrift; font-size: 24px; fill: rgb(42, 63, 95); fill-opacity: 1; white-space: pre;">Whats goin on</text><g class="layers" style="opacity: 0.8;"><g class="legendfill"/><g class="legendlines"/><g class="legendsymbols"><g class="legendpoints"><path class="legendbox" d="M6,6H-6V-6H6Z" transform="translate(20,0)" style="stroke-width: 1.5px; fill: rgb(25, 25, 112); fill-opacity: 0.5; stroke: rgb(25, 25, 112); stroke-opacity: 1;"/></g></g></g><rect class="legendtoggle" x="0" y="-17.1" width="193.421875" height="34.2" style="fill: rgb(0, 0, 0); fill-opacity: 0;"/></g><g class="traces" transform="translate(0,124.70000000000002)" style="opacity: 1;"><text class="legendtext" text-anchor="start" x="40" y="9.360000000000001" style="font-family: Arial, Bahnschrift; font-size: 24px; fill: rgb(42, 63, 95); fill-opacity: 1; white-space: pre;">Deeplive.exe</text><g class="layers" style="opacity: 0.8;"><g class="legendfill"/><g class="legendlines"/><g class="legendsymbols"><g class="legendpoints"><path class="legendbox" d="M6,6H-6V-6H6Z" transform="translate(20,0)" style="stroke-width: 1.5px; fill: rgb(85, 107, 47); fill-opacity: 0.5; stroke: rgb(85, 107, 47); stroke-opacity: 1;"/></g></g></g><rect class="legendtoggle" x="0" y="-17.1" width="193.421875" height="34.2" style="fill: rgb(0, 0, 0); fill-opacity: 0;"/></g><g class="traces" transform="translate(0,158.9)" style="opacity: 1;"><text class="legendtext" text-anchor="start" x="40" y="9.360000000000001" style="font-family: Arial, Bahnschrift; font-size: 24px; fill: rgb(42, 63, 95); fill-opacity: 1; white-space: pre;">Deepflash2</text><g class="layers" style="opacity: 0.8;"><g class="legendfill"/><g class="legendlines"/><g class="legendsymbols"><g class="legendpoints"><path class="legendbox" d="M6,6H-6V-6H6Z" transform="translate(20,0)" style="stroke-width: 1.5px; fill: rgb(128, 0, 128); fill-opacity: 0.5; stroke: rgb(128, 0, 128); stroke-opacity: 1;"/></g></g></g><rect class="legendtoggle" x="0" y="-17.1" width="193.421875" height="34.2" style="fill: rgb(0, 0, 0); fill-opacity: 0;"/></g></g></g><rect class="scrollbar" rx="20" ry="3" width="0" height="0" style="fill: rgb(128, 139, 164); fill-opacity: 1;" x="0" y="0"/></g><g class="g-gtitle"><text class="gtitle" x="288" y="144" text-anchor="middle" dy="0.7em" style="font-family: Arial, Bahnschrift; font-size: 34px; fill: rgb(42, 63, 95); opacity: 1; font-weight: normal; white-space: pre;">HPA-largeintestine</text></g><g class="g-xtitle"/><g class="g-ytitle"/></g></svg>